<?xml version="1.0" standalone="no"?>
<!DOCTYPE svg PUBLIC "-//W3C//DTD SVG 1.1//EN" "http://www.w3.org/Graphics/SVG/1.1/DTD/svg11.dtd" >
<svg>
<metadata>
Created by FontForge 20090914 at Thu Dec 14 06:13:25 2017
 By www-data
Copyright (c) 2016 by Tatiana Biserova &#38; Jovanny Lemonad. All rights reserved.
</metadata>
<defs>
<font id="Kazmann-Sans" horiz-adv-x="280" >
  <font-face 
    font-family="Kazmann Sans"
    font-weight="400"
    font-stretch="normal"
    units-per-em="1000"
    panose-1="2 0 5 8 2 0 0 2 0 3"
    ascent="800"
    descent="-200"
    x-height="399.998"
    cap-height="700"
    bbox="-50 -200.001 839.998 899.999"
    underline-thickness="50"
    underline-position="-50"
    unicode-range="U+000D-U+F6D4"
  />
<missing-glyph horiz-adv-x="0" 
 />
    <glyph glyph-name=".notdef" horiz-adv-x="0" 
 />
    <glyph glyph-name=".null" horiz-adv-x="0" 
 />
    <glyph glyph-name=".null" horiz-adv-x="0" 
 />
    <glyph glyph-name="nonmarkingreturn" unicode="&#xd;" horiz-adv-x="0" 
 />
    <glyph glyph-name="space" unicode=" " horiz-adv-x="120" 
 />
    <glyph glyph-name="exclam" unicode="!" horiz-adv-x="160" 
d="M50 45c0 10 5 15 15 15h30c10 0 15 -5 15 -15v-30c0 -10 -5 -15 -15 -15h-30c-10 0 -15 5 -15 15v30zM50 685c0 10 5 15 15 15h30c10 0 15 -5 15 -15v-530c0 -10 -5 -15 -15 -15h-30c-10 0 -15 5 -15 15v530z" />
    <glyph glyph-name="quotedbl" unicode="&#x22;" horiz-adv-x="250" 
d="M40 685c0 10 5 15 15 15h30c10 0 15 -5 15 -15v-170c0 -10 -5 -15 -15 -15h-30c-10 0 -15 5 -15 15v170zM150 685c0 10 5 15 15 15h30c10 0 15 -5 15 -15v-170c0 -10 -5 -15 -15 -15h-30c-10 0 -15 5 -15 15v170z" />
    <glyph glyph-name="numbersign" unicode="#" horiz-adv-x="400" 
d="M225 210h-80l-25 -195c-1.33301 -10 -6.33301 -15 -15 -15h-30c-11.333 0 -16.333 5 -15 15l25 195h-60c-10 0 -15 5 -15 15v30c0 10 5 15 15 15h65l20 160h-55c-10 0 -15 5 -15 15v30c0 10 5 15 15 15h60l25 195c0.666992 10 5.66699 15 15 15h30
c10.667 0 15.667 -5 15 -15l-25 -195h80l25 195c0.666992 10 5.66699 15 15 15h30c10.667 0 15.667 -5 15 -15l-25 -195h60c10 0 15 -5 15 -15v-30c0 -10 -5 -15 -15 -15h-65l-20 -160h55c10 0 15 -5 15 -15v-30c0 -10 -5 -15 -15 -15h-60l-25 -195
c-1.33301 -10 -6.33301 -15 -15 -15h-30c-11.333 0 -16.333 5 -15 15zM150 270h80l20 160h-80z" />
    <glyph glyph-name="dollar" unicode="$" horiz-adv-x="300" 
d="M120 0h-20c-17.333 0 -31.666 5.66699 -42.999 17s-17 25.666 -17 42.999v115c0 10 5 15 15 15h30c10 0 15 -5 15 -15v-100c0 -10 5 -15 15 -15h70c10 0 15 5 15 15v185c0 15.333 -2 26.333 -6 33s-8.66699 12.334 -14 17.001l-100 90
c-10 9.33301 -19.167 20.333 -27.5 33s-12.5 31.667 -12.5 57v150c0 17.333 5.66699 31.666 17 42.999s25.666 17 42.999 17h20v35c0 10 5 15 15 15h30c10 0 15 -5 15 -15v-35h20c17.333 0 31.666 -5.66699 42.999 -17s17 -25.666 17 -42.999v-110c0 -10 -5 -15 -15 -15h-30
c-10 0 -15 5 -15 15v95c0 10 -5 15 -15 15h-70c-10 0 -15 -5 -15 -15v-125c0 -15.333 2 -26.333 6 -33s8.66699 -12.334 14 -17.001l100 -90c10 -9.33301 19.167 -20.333 27.5 -33s12.5 -31.667 12.5 -57v-210c0 -17.333 -5.66699 -31.666 -17 -42.999
s-25.666 -17 -42.999 -17h-20v-35c0 -10 -5 -15 -15 -15h-30c-10 0 -15 5 -15 15v35z" />
    <glyph glyph-name="percent" unicode="%" horiz-adv-x="640" 
d="M100 375c0 -4.66699 1 -8.33398 3 -11.001s6 -4 12 -4h45c6 0 10 1.33301 12 4s3 6.33398 3 11.001v250c0 4.66699 -1 8.33398 -3 11.001s-6 4 -12 4h-45c-6 0 -10 -1.33301 -12 -4s-3 -6.33398 -3 -11.001v-250zM265 15c-3.33301 -10 -10 -15 -20 -15h-30
c-10 0 -13.333 5 -10 15l170 670c2.66699 10 9.33398 15 20.001 15h30c9.33301 0 12.666 -5 9.99902 -15zM40 640c0 17.333 5.66699 31.666 17 42.999s25.666 17 42.999 17h75c17.333 0 31.666 -5.66699 42.999 -17s17 -25.666 17 -42.999v-280
c0 -17.333 -5.66699 -31.666 -17 -42.999s-25.666 -17 -42.999 -17h-75c-17.333 0 -31.666 5.66699 -42.999 17s-17 25.666 -17 42.999v280zM465 75c0 -4.66699 1 -8.33398 3 -11.001s6 -4 12 -4h45c6 0 10 1.33301 12 4s3 6.33398 3 11.001v250
c0 4.66699 -1 8.33398 -3 11.001s-6 4 -12 4h-45c-6 0 -10 -1.33301 -12 -4s-3 -6.33398 -3 -11.001v-250zM405 340c0 17.333 5.66699 31.666 17 42.999s25.666 17 42.999 17h75c17.333 0 31.666 -5.66699 42.999 -17s17 -25.666 17 -42.999v-280
c0 -17.333 -5.66699 -31.666 -17 -42.999s-25.666 -17 -42.999 -17h-75c-17.333 0 -31.666 5.66699 -42.999 17s-17 25.666 -17 42.999v280z" />
    <glyph glyph-name="ampersand" unicode="&#x26;" horiz-adv-x="392" 
d="M315 145l55.0029 -129.999c4 -10 0.666992 -15 -10 -15h-30c-10.667 0 -17.334 5 -20.001 15l-25 55l-5 -20c-4 -15.333 -11.667 -27.5 -23 -36.5s-27 -13.5 -47 -13.5h-90c-17.333 0 -31.666 5.66699 -42.999 17s-17 25.666 -17 42.999v330
c0 17.333 5.66699 31.666 17 42.999s25.666 17 42.999 17h5l-20 50c-2.66699 5.33301 -5.33398 11.333 -8.00098 18c-4.66699 12.667 -7 25 -7 37v85c0 17.333 5.66699 31.666 17 42.999s25.666 17 42.999 17h80c17.333 0 31.666 -5.66699 42.999 -17s17 -25.666 17 -42.999
v-190c0 -17.333 -5.66699 -31.666 -17 -42.999s-25.666 -17 -42.999 -17h-20l75 -170l25 75c4 10 10.667 15 20 15h30c10.667 0 14 -5 10 -15zM255.003 145.001l-105.001 245.001h-15c-10 0 -15 -5 -15 -15v-300c0 -10 5 -15 15 -15h75c5.33301 0 9.33301 1.16699 12 3.5
s5.33398 6.16602 8.00098 11.499zM215.002 450.002c10 0 15 5 15 15v160c0 10 -5 15 -15 15h-50c-10 0 -15 -5 -15 -15v-80c0 -7.33301 1.66699 -15 5 -23c1.33301 -4 3 -8 5 -12l25 -60h30z" />
    <glyph glyph-name="quotesingle" unicode="'" horiz-adv-x="140" 
d="M40 685c0 10 5 15 15 15h30c10 0 15 -5 15 -15v-170c0 -10 -5 -15 -15 -15h-30c-10 0 -15 5 -15 15v170z" />
    <glyph glyph-name="parenleft" unicode="(" horiz-adv-x="200" 
d="M60 640c0 17.333 5.66699 31.668 17 43.001s25.666 17 42.999 17h45c10 0 15 -5 15 -15v-30c0 -10 -5 -15 -15 -15h-30c-10 0 -15 -5 -15 -15v-710c0 -10 5 -15 15 -15h30c10 0 15 -5 15 -15v-30c0 -10 -5 -15 -15 -15h-45c-17.333 0 -31.666 5.66699 -42.999 17
s-17 25.666 -17 42.999v740z" />
    <glyph glyph-name="parenright" unicode=")" horiz-adv-x="200" 
d="M140 -100c0 -17.333 -5.66699 -31.668 -17 -43.001s-25.666 -17 -42.999 -17h-45c-10 0 -15 5 -15 15v30c0 10 5 15 15 15h30c10 0 15 5 15 15v710c0 10 -5 15 -15 15h-30c-10 0 -15 5 -15 15v30c0 10 5 15 15 15h45c17.333 0 31.666 -5.66699 42.999 -17
s17 -25.666 17 -42.999v-740z" />
    <glyph glyph-name="asterisk" unicode="*" horiz-adv-x="316" 
d="M148 420c-10 0 -15 5 -15 15v80l-70 -40c-5.33301 -2.66699 -9.16602 -3.66699 -11.499 -3s-5.16602 3.33398 -8.49902 8.00098l-10 20c-3.33301 5.33301 -3.83301 9.16602 -1.5 11.499s6.16602 5.16602 11.499 8.49902l70 40l-70 40
c-5.33301 3.33301 -9.16602 6.16602 -11.499 8.49902s-1.83301 6.16602 1.5 11.499l10 20c3.33301 4.66699 6.16602 7.33398 8.49902 8.00098s6.16602 -0.333008 11.499 -3l70 -40v80c0 10 5 15 15 15h20c10 0 15 -5 15 -15v-80l70 40
c5.33301 2.66699 9.16602 3.66699 11.499 3s5.16602 -3.33398 8.49902 -8.00098l10 -20c3.33301 -5.33301 3.83301 -9.16602 1.5 -11.499s-6.16602 -5.16602 -11.499 -8.49902l-70 -40l70 -40c5.33301 -3.33301 9.16602 -6.16602 11.499 -8.49902
s1.83301 -6.16602 -1.5 -11.499l-10 -20c-3.33301 -4.66699 -6.16602 -7.33398 -8.49902 -8.00098s-6.16602 0.333008 -11.499 3l-70 40v-80c0 -10 -5 -15 -15 -15h-20z" />
    <glyph glyph-name="plus" unicode="+" horiz-adv-x="320" 
d="M190 135c0 -10 -5 -15 -15 -15h-30c-10 0 -15 5 -15 15v105h-95c-10 0 -15 5 -15 15v30c0 10 5 15 15 15h95v105c0 10 5 15 15 15h30c10 0 15 -5 15 -15v-105h95c10 0 15 -5 15 -15v-30c0 -10 -5 -15 -15 -15h-95v-105z" />
    <glyph glyph-name="comma" unicode="," horiz-adv-x="100" 
d="M65 60c10 0 15.002 -5 15.002 -15v-30c0 -2.66699 -0.333008 -5.16699 -1 -7.5s-1.33398 -4.5 -2.00098 -6.5c-0.666992 -2.66699 -1.33398 -4.66699 -2.00098 -6l-15 -35c-2.66699 -6.66699 -6 -10 -10 -10h-10c-6 0 -7.66699 3.33301 -5 10l15 40h-15
c-10 0 -15 5 -15 15v30c0 10 5 15 15 15h30v0z" />
    <glyph glyph-name="hyphen" unicode="-" horiz-adv-x="310" 
d="M35 240c-10 0 -15 5 -15 15v30c0 10 5 15 15 15h240c10 0 15 -5 15 -15v-30c0 -10 -5 -15 -15 -15h-240z" />
    <glyph glyph-name="period" unicode="." horiz-adv-x="100" 
d="M20 45c0 10 5 15 15 15h30c10 0 15 -5 15 -15v-30c0 -10 -5 -15 -15 -15h-30c-10 0 -15 5 -15 15v30z" />
    <glyph glyph-name="slash" unicode="/" horiz-adv-x="274" 
d="M82 15c-3.33301 -10 -10 -15 -20 -15h-30c-10 0 -13.333 5 -10 15l170 670c2.66699 10 9.33398 15 20.001 15h30c9.33301 0 12.666 -5 9.99902 -15z" />
    <glyph glyph-name="zero" unicode="0" horiz-adv-x="320" 
d="M50 640c0 17.333 5.66699 31.666 17 42.999s25.666 17 42.999 17h100c17.333 0 31.666 -5.66699 42.999 -17s17 -25.666 17 -42.999v-580c0 -17.333 -5.66699 -31.666 -17 -42.999s-25.666 -17 -42.999 -17h-100c-17.333 0 -31.666 5.66699 -42.999 17
s-17 25.666 -17 42.999v580zM195 60c10 0 15 5 15 15v550c0 10 -5 15 -15 15h-70c-10 0 -15 -5 -15 -15v-550c0 -10 5 -15 15 -15h70z" />
    <glyph glyph-name="one" unicode="1" horiz-adv-x="200" 
d="M150 15c0 -10 -5 -15 -15 -15h-30c-10 0 -15 5 -15 15v625h-55c-10 0 -15 5 -15 15v30c0 10 5 15 15 15h100c10 0 15 -5 15 -15v-670z" />
    <glyph glyph-name="two" unicode="2" horiz-adv-x="300" 
d="M260 440c0 -25.333 -4.16504 -44.333 -12.498 -57s-17.5 -23.667 -27.5 -33l-100 -90c-5.33301 -4.66699 -10 -10.334 -14 -17.001s-6 -17.667 -6 -33v-150h145c10 0 15 -5 15 -15v-30c0 -10 -5 -15 -15 -15h-190c-10 0 -15 5 -15 15v205
c0 25.333 4.16699 44.333 12.5 57s17.5 23.667 27.5 33l100 90c5.33301 4.66699 10 10.334 14 17.001s6 17.667 6 33v175c0 10 -5 15 -15 15h-70c-10 0 -15 -5 -15 -15v-95c0 -10 -5 -15 -15 -15h-30c-10 0 -15 5 -15 15v110c0 17.333 5.66699 31.666 17 42.999
s25.666 17 42.999 17h100c17.333 0 31.666 -5.66699 42.999 -17s17 -25.666 17 -42.999v-200z" />
    <glyph glyph-name="three" unicode="3" horiz-adv-x="292" 
d="M235 700c14.667 0 19.666 -5.00098 14.999 -15.001l-110 -255h50c17.333 0 31.666 -5.66699 42.999 -17s17 -25.666 17 -42.999v-310c0 -17.333 -5.66699 -31.666 -17 -42.999s-25.666 -17 -42.999 -17h-100c-17.333 0 -31.666 5.66699 -42.999 17s-17 25.666 -17 42.999
v115c0 10 5 15 15 15h30c10 0 15 -5 15 -15v-100c0 -10 5 -15 15 -15h70c10 0 15 5 15 15v280c0 10 -5 15 -15 15h-105c-14.667 0 -19.667 5 -15 15l110 255h-120c-10 0 -15 5 -15 15v30c0 10 5 15 15 15h190z" />
    <glyph glyph-name="four" unicode="4" horiz-adv-x="301" 
d="M266 250c10 0 15 -4.99805 15 -14.998v-30c0 -10 -5 -15 -15 -15h-25v-175c0 -10 -5 -15 -15 -15h-30c-10 0 -15 5 -15 15v175h-155c-5.33301 0 -9.5 1.16699 -12.5 3.5s-3.83301 6.16602 -2.5 11.499l150 480c2 5.33301 4.83301 9.16602 8.5 11.499
s9.16699 3.5 16.5 3.5h40c10 0 15 -5 15 -15v-435h25zM181 560.002l-95 -310h95v310z" />
    <glyph glyph-name="five" unicode="5" horiz-adv-x="300" 
d="M50 685c0 10 4.99902 14.999 14.999 14.999h170c10 0 15 -5 15 -15v-30c0 -10 -5 -15 -15 -15h-125v-210h90c17.333 0 31.666 -5.66699 42.999 -17s17 -25.666 17 -42.999v-310c0 -17.333 -5.66699 -31.666 -17 -42.999s-25.666 -17 -42.999 -17h-100
c-17.333 0 -31.666 5.66699 -42.999 17s-17 25.666 -17 42.999v115c0 10 5 15 15 15h30c10 0 15 -5 15 -15v-100c0 -10 5 -15 15 -15h70c10 0 15 5 15 15v280c0 10 -5 15 -15 15h-120c-10 0 -15 5 -15 15v300z" />
    <glyph glyph-name="six" unicode="6" horiz-adv-x="310" 
d="M270 60c0 -17.333 -5.66602 -31.667 -16.999 -43s-25.666 -17 -42.999 -17h-100c-17.333 0 -31.666 5.66699 -42.999 17s-17 25.666 -17 42.999v580c0 17.333 5.66699 31.666 17 42.999s25.666 17 42.999 17h100c17.333 0 31.666 -5.66699 42.999 -17
s17 -25.666 17 -42.999v-110c0 -10 -5 -15 -15 -15h-30c-10 0 -15 5 -15 15v95c0 10 -5 15 -15 15h-70c-10 0 -15 -5 -15 -15v-215h100c17.333 0 31.666 -5.66699 42.999 -17s17 -25.666 17 -42.999v-290zM195.001 59.999c10 0 15 5 15 15v260c0 10 -5 15 -15 15h-85v-275
c0 -10 5 -15 15 -15h70z" />
    <glyph glyph-name="seven" unicode="7" horiz-adv-x="251" 
d="M215 700c5.33301 0 9.5 -1.16797 12.5 -3.50098s3.83301 -6.16602 2.5 -11.499l-140 -670c-2 -10 -8.66699 -15 -20 -15h-30c-8.66699 0 -12 5 -10 15l130 625h-135c-10 0 -15 5 -15 15v30c0 10 5 15 15 15h190z" />
    <glyph glyph-name="eight" unicode="8" horiz-adv-x="320" 
d="M205 700c17.333 0 31.665 -5.66699 42.998 -17s17 -25.666 17 -42.999v-190c0 -10 -1.66699 -18 -5 -24s-6.66602 -10.667 -9.99902 -14c-4.66699 -3.33301 -9.66699 -5.66602 -15 -6.99902c7.33301 -2 14 -5 20 -9c5.33301 -4 10 -9.5 14 -16.5s6 -16.833 6 -29.5v-290
c0 -17.333 -5.66699 -31.666 -17 -42.999s-25.666 -17 -42.999 -17h-110c-17.333 0 -31.666 5.66699 -42.999 17s-17 25.666 -17 42.999v290c0 12.667 2 22.5 6 29.5s8.66699 12.5 14 16.5c6 4 12.667 7 20 9c-6 1.33301 -11 3.66602 -15 6.99902s-7.5 8 -10.5 14
s-4.5 14 -4.5 24v190c0 17.333 5.66699 31.666 17 42.999s25.666 17 42.999 17h90zM119.999 370c-10 0 -15 -5 -15 -15v-280c0 -10 5 -15 15 -15h80c10 0 15 5 15 15v280c0 10 -5 15 -15 15h-80zM129.999 640c-10 0 -15 -5 -15 -15v-180c0 -10 5 -15 15 -15h60
c10 0 15 5 15 15v180c0 10 -5 15 -15 15h-60z" />
    <glyph glyph-name="nine" unicode="9" horiz-adv-x="310" 
d="M40 640c0 17.333 5.66602 31.667 16.999 43s25.666 17 42.999 17h100c17.333 0 31.666 -5.66699 42.999 -17s17 -25.666 17 -42.999v-580c0 -17.333 -5.66699 -31.666 -17 -42.999s-25.666 -17 -42.999 -17h-100c-17.333 0 -31.666 5.66699 -42.999 17
s-17 25.666 -17 42.999v115c0 10 5 15 15 15h30c10 0 15 -5 15 -15v-100c0 -10 5 -15 15 -15h70c10 0 15 5 15 15v215h-100c-17.333 0 -31.666 5.66699 -42.999 17s-17 25.666 -17 42.999v290zM114.999 640.001c-10 0 -15 -5 -15 -15v-260c0 -10 5 -15 15 -15h85v275
c0 10 -5 15 -15 15h-70z" />
    <glyph glyph-name="colon" unicode=":" horiz-adv-x="100" 
d="M20 45c0 10 5 15 15 15h30c10 0 15 -5 15 -15v-30c0 -10 -5 -15 -15 -15h-30c-10 0 -15 5 -15 15v30zM20 385c0 10 5 15 15 15h30c10 0 15 -5 15 -15v-30c0 -10 -5 -15 -15 -15h-30c-10 0 -15 5 -15 15v30z" />
    <glyph glyph-name="semicolon" unicode=";" horiz-adv-x="100" 
d="M20 385c0 10 5 15 15 15h30c10 0 15 -5 15 -15v-30c0 -10 -5 -15 -15 -15h-30c-10 0 -15 5 -15 15v30zM65 60c10 0 15.002 -5 15.002 -15v-30c0 -2.66699 -0.333008 -5.16699 -1 -7.5s-1.33398 -4.5 -2.00098 -6.5c-0.666992 -2.66699 -1.33398 -4.66699 -2.00098 -6
l-15 -35c-2.66699 -6.66699 -6 -10 -10 -10h-10c-6 0 -7.66699 3.33301 -5 10l15 40h-15c-10 0 -15 5 -15 15v30c0 10 5 15 15 15h30z" />
    <glyph glyph-name="less" unicode="&#x3c;" horiz-adv-x="420" 
d="M20 225c0 9.33301 5 16 15 20l350 130c10 4 15 0.666992 15 -10v-30c0 -10 -5 -16.667 -15 -20l-295 -110l295 -110c10 -3.33301 15 -10 15 -20v-30c0 -10.667 -5 -14 -15 -10l-350 130c-10 4 -15 10.667 -15 20v40z" />
    <glyph glyph-name="equal" unicode="=" horiz-adv-x="310" 
d="M35 170c-10 0 -15 5 -15 15v30c0 10 5 15 15 15h240c10 0 15 -5 15 -15v-30c0 -10 -5 -15 -15 -15h-240zM35 310c-10 0 -15 5 -15 15v30c0 10 5 15 15 15h240c10 0 15 -5 15 -15v-30c0 -10 -5 -15 -15 -15h-240z" />
    <glyph glyph-name="greater" unicode="&#x3e;" horiz-adv-x="420" 
d="M400 185c0 -9.33301 -5 -16 -15 -20l-350 -130c-10 -4 -15 -0.666992 -15 10v30c0 10 5 16.667 15 20l295 110l-295 110c-10 3.33301 -15 10 -15 20v30c0 10.667 5 14 15 10l350 -130c10 -4 15 -10.667 15 -20v-40z" />
    <glyph glyph-name="question" unicode="?" 
d="M100 255c0 25.333 4.16895 44.333 12.502 57s17.5 23.667 27.5 33l30 25c5.33301 4.66699 10 10.334 14 17.001s6 17.667 6 33v215c0 10 -5 15 -15 15h-70c-10 0 -15 -5 -15 -15v-105c0 -10 -5 -15 -15 -15h-30c-10 0 -15 5 -15 15v120
c0 17.333 5.66699 31.666 17 42.999s25.666 17 42.999 17h100c17.333 0 31.666 -5.66699 42.999 -17s17 -25.666 17 -42.999v-240c0 -25.333 -4.16699 -44.333 -12.5 -57s-17.5 -23.667 -27.5 -33l-30 -25c-5.33301 -4.66699 -10 -10.334 -14 -17.001s-6 -17.667 -6 -33v-90
c0 -10 -5 -15 -15 -15h-30c-10 0 -15 5 -15 15v100zM100.002 45c0 10 5 15 15 15h30c10 0 15 -5 15 -15v-30c0 -10 -5 -15 -15 -15h-30c-10 0 -15 5 -15 15v30z" />
    <glyph glyph-name="at" unicode="@" horiz-adv-x="470" 
d="M130 0c-17.333 0 -31.6641 5.66699 -42.9971 17s-17 25.666 -17 42.999v110c0 17.333 5.66699 31.666 17 42.999s25.666 17 42.999 17h80v95c0 10 -5 15 -15 15h-50c-10 0 -15 -5 -15 -15v-40c0 -10 -5 -15 -15 -15h-30c-10 0 -15 5 -15 15v55
c0 17.333 5.66699 31.666 17 42.999s25.666 17 42.999 17h80c17.333 0 31.666 -5.66699 42.999 -17s17 -25.666 17 -42.999v-280h65c10 0 15 5 15 15v420c0 10 -5 15 -15 15h-250c-10 0 -15 5 -15 15v30c0 10 5 15 15 15h265c17.333 0 31.666 -5.66699 42.999 -17
s17 -25.666 17 -42.999v-450c0 -17.333 -5.66699 -31.666 -17 -42.999s-25.666 -17 -42.999 -17h-220zM210.002 170h-65c-10 0 -15 -5 -15 -15v-80c0 -10 5 -15 15 -15h65v110z" />
    <glyph glyph-name="A" unicode="A" horiz-adv-x="300" 
d="M180 700c8.66699 0 13.667 -5 15 -15l85 -670c0 -10 -5 -15 -15 -15h-30c-9.33301 0 -14.333 5 -15 15l-15 115h-110l-15 -115c-1.33301 -10 -6.33301 -15 -15 -15h-30c-10 0 -15 5 -15 15l85 670c0.666992 10 5.66699 15 15 15h60zM200 190l-50 405l-50 -405h100z" />
    <glyph glyph-name="B" unicode="B" horiz-adv-x="315" 
d="M50 685c0 10 4.99902 14.9971 14.999 14.9971h135c17.333 0 31.666 -5.66699 42.999 -17s17 -25.666 17 -42.999v-190c0 -10 -1.66699 -18 -5 -24s-6.66602 -10.667 -9.99902 -14c-4.66699 -3.33301 -9.66699 -5.66602 -15 -6.99902c7.33301 -2 14 -5 20 -9
c5.33301 -4 10 -9.5 14 -16.5s6 -16.833 6 -29.5v-290c0 -17.333 -5.66699 -31.666 -17 -42.999s-25.666 -17 -42.999 -17h-145c-10 0 -15 5 -15 15v670zM194.999 59.9971c10 0 15 5 15 15v280c0 10 -5 15 -15 15h-85v-310h85zM109.999 639.997v-210h75c10 0 15 5 15 15v180
c0 10 -5 15 -15 15h-75z" />
    <glyph glyph-name="C" unicode="C" horiz-adv-x="300" 
d="M270 60c0 -17.333 -5.66699 -31.666 -17 -42.999s-25.666 -17 -42.999 -17h-100c-17.333 0 -31.666 5.66699 -42.999 17s-17 25.666 -17 42.999v580c0 17.333 5.66699 31.666 17 42.999s25.666 17 42.999 17h100c17.333 0 31.666 -5.66699 42.999 -17
s17 -25.666 17 -42.999v-110c0 -10 -5 -15 -15 -15h-30c-10 0 -15 5 -15 15v95c0 10 -5 15 -15 15h-70c-10 0 -15 -5 -15 -15v-550c0 -10 5 -15 15 -15h70c10 0 15 5 15 15v100c0 10 5 15 15 15h30c10 0 15 -5 15 -15v-115z" />
    <glyph glyph-name="D" unicode="D" horiz-adv-x="320" 
d="M50 685c0 10 5 14.998 15 14.998h145c17.333 0 31.666 -5.66699 42.999 -17s17 -25.666 17 -42.999v-580c0 -17.333 -5.66699 -31.666 -17 -42.999s-25.666 -17 -42.999 -17h-145c-10 0 -15 5 -15 15v670zM195 59.998c10 0 15 5 15 15v550c0 10 -5 15 -15 15h-85v-580h85
z" />
    <glyph glyph-name="E" unicode="E" horiz-adv-x="260" 
d="M50 685c0 10 5 15 15 15h170c10 0 15 -5 15 -15v-30c0 -10 -5 -15 -15 -15h-125v-210h85c10 0 15 -5 15 -15v-30c0 -10 -5 -15 -15 -15h-85v-310h125c10 0 15 -5 15 -15v-30c0 -10 -5 -15 -15 -15h-170c-10 0 -15 5 -15 15v670z" />
    <glyph glyph-name="F" unicode="F" horiz-adv-x="260" 
d="M50 685c0 10 5 15 15 15h170c10 0 15 -5 15 -15v-30c0 -10 -5 -15 -15 -15h-125v-270h85c10 0 15 -5 15 -15v-30c0 -10 -5 -15 -15 -15h-85v-295c0 -10 -5 -15 -15 -15h-30c-10 0 -15 5 -15 15v670z" />
    <glyph glyph-name="G" unicode="G" horiz-adv-x="320" 
d="M270 15c0 -10 -4.99902 -14.999 -14.999 -14.999h-145c-17.333 0 -31.666 5.66699 -42.999 17s-17 25.666 -17 42.999v580c0 17.333 5.66699 31.666 17 42.999s25.666 17 42.999 17h100c17.333 0 31.666 -5.66699 42.999 -17s17 -25.666 17 -42.999v-110
c0 -10 -5 -15 -15 -15h-30c-10 0 -15 5 -15 15v95c0 10 -5 15 -15 15h-70c-10 0 -15 -5 -15 -15v-550c0 -10 5 -15 15 -15h85v250h-25c-10 0 -15 5 -15 15v30c0 10 5 15 15 15h70c10 0 15 -5 15 -15v-340z" />
    <glyph glyph-name="H" unicode="H" horiz-adv-x="320" 
d="M50 685c0 10 5 15 15 15h30c10 0 15 -5 15 -15v-255h100v255c0 10 5 15 15 15h30c10 0 15 -5 15 -15v-670c0 -10 -5 -15 -15 -15h-30c-10 0 -15 5 -15 15v355h-100v-355c0 -10 -5 -15 -15 -15h-30c-10 0 -15 5 -15 15v670z" />
    <glyph glyph-name="I" unicode="I" horiz-adv-x="160" 
d="M50 685c0 10 5 15 15 15h30c10 0 15 -5 15 -15v-670c0 -10 -5 -15 -15 -15h-30c-10 0 -15 5 -15 15v670z" />
    <glyph glyph-name="J" unicode="J" 
d="M170 685c0 10 4.99805 15 14.998 15h30c10 0 15 -5 15 -15v-625c0 -17.333 -5.66699 -31.666 -17 -42.999s-25.666 -17 -42.999 -17h-80c-17.333 0 -31.666 5.66699 -42.999 17s-17 25.666 -17 42.999v115c0 10 5 15 15 15h30c10 0 15 -5 15 -15v-100c0 -10 5 -15 15 -15
h50c10 0 15 5 15 15v610z" />
    <glyph glyph-name="K" unicode="K" horiz-adv-x="282" 
d="M50 685c0 10 5 15 15 15h30c10 0 15 -5 15 -15v-255l90 255c3.33301 10 10 15 20 15h30c10.667 0 14 -5 10 -15l-90 -255l110 -415c2.66699 -10 -0.666016 -15 -9.99902 -15h-30c-10.667 0 -17.334 5 -20.001 15l-85 330l-25 -70v-260c0 -10 -5 -15 -15 -15h-30
c-10 0 -15 5 -15 15v670z" />
    <glyph glyph-name="L" unicode="L" horiz-adv-x="250" 
d="M50 685c0 10 5 15 15 15h30c10 0 15 -5 15 -15v-625h125c10 0 15 -5 15 -15v-30c0 -10 -5 -15 -15 -15h-170c-10 0 -15 5 -15 15v670z" />
    <glyph glyph-name="M" unicode="M" horiz-adv-x="450" 
d="M205 140c-5.33301 0 -8.83301 1.16699 -10.5 3.5s-3.16699 6.16602 -4.5 11.499l-80 385v-525c0 -10 -5 -15 -15 -15h-30c-10 0 -15 5 -15 15v670c0 10 5 15 15 15h55c5.33301 0 8.83301 -1.16699 10.5 -3.5s3.16699 -6.16602 4.5 -11.499l90 -435l90 435
c1.33301 5.33301 2.83301 9.16602 4.5 11.499s5.16699 3.5 10.5 3.5h55c10 0 15 -5 15 -15v-670c0 -10 -5 -15 -15 -15h-30c-10 0 -15 5 -15 15v525l-80 -385c-1.33301 -5.33301 -2.83301 -9.16602 -4.5 -11.499s-5.16699 -3.5 -10.5 -3.5h-40z" />
    <glyph glyph-name="N" unicode="N" horiz-adv-x="320" 
d="M110 560l-0.000976562 -545.001c0 -10 -5 -15 -15 -15h-30c-10 0 -15 5 -15 15v670c0 10 5 15 15 15h30c5.33301 0 9.33301 -1.16699 12 -3.5s5.33398 -6.16602 8.00098 -11.499l95 -220v220c0 10 5 15 15 15h30c10 0 15 -5 15 -15v-670c0 -10 -5 -15 -15 -15h-30
c-10 0 -15 5 -15 15v315z" />
    <glyph glyph-name="O" unicode="O" horiz-adv-x="320" 
d="M50 640c0 17.333 5.66699 31.666 17 42.999s25.666 17 42.999 17h100c17.333 0 31.666 -5.66699 42.999 -17s17 -25.666 17 -42.999v-580c0 -17.333 -5.66699 -31.666 -17 -42.999s-25.666 -17 -42.999 -17h-100c-17.333 0 -31.666 5.66699 -42.999 17
s-17 25.666 -17 42.999v580zM195 60c10 0 15 5 15 15v550c0 10 -5 15 -15 15h-70c-10 0 -15 -5 -15 -15v-550c0 -10 5 -15 15 -15h70z" />
    <glyph glyph-name="P" unicode="P" horiz-adv-x="310" 
d="M50 685c0 10 5 14.998 15 14.998h145c17.333 0 31.666 -5.66699 42.999 -17s17 -25.666 17 -42.999v-360c0 -17.333 -5.66699 -31.666 -17 -42.999s-25.666 -17 -42.999 -17h-100v-205c0 -10 -5 -15 -15 -15h-30c-10 0 -15 5 -15 15v670zM110 639.998v-360h85
c10 0 15 5 15 15v330c0 10 -5 15 -15 15h-85z" />
    <glyph glyph-name="Q" unicode="Q" horiz-adv-x="329" 
d="M50 640c0 17.333 5.66992 31.668 17.0029 43.001s25.666 17 42.999 17h100c17.333 0 31.666 -5.66699 42.999 -17s17 -25.666 17 -42.999v-560c0 -5.33301 -0.333008 -9.83301 -1 -13.5s-1.33398 -6.83398 -2.00098 -9.50098s-1.33398 -5 -2.00098 -7l30 -30
c2.66699 -2.66699 4 -6 4 -10s-1.33301 -7.33301 -4 -10l-25 -25c-2.66699 -2.66699 -6 -4 -10 -4s-7.33301 1.33301 -10 4l-30 30c-2.66699 -1.33301 -5.33398 -2.33301 -8.00098 -3s-5.66699 -1.16699 -9 -1.5s-7.66602 -0.5 -12.999 -0.5h-80
c-17.333 0 -31.666 5.66699 -42.999 17s-17 25.666 -17 42.999v580zM195.003 60.002c10 0 15 5 15 15v550c0 10 -5 15 -15 15h-70c-10 0 -15 -5 -15 -15v-550c0 -10 5 -15 15 -15h70z" />
    <glyph glyph-name="R" unicode="R" horiz-adv-x="327" 
d="M50 685c0 10 5 15 15 15h145c17.333 0 31.666 -5.66699 42.999 -17s17 -25.666 17 -42.999v-360c0 -7.33301 -1.33301 -14 -4 -20s-5.66699 -10.667 -9 -14c-3.33301 -4.66699 -7.33301 -8.33398 -12 -11.001l60 -220c2.66699 -10 -0.666016 -15 -9.99902 -15h-30
c-11.333 0 -18 5 -20 15l-55 205h-80v-205c0 -10 -5 -15 -15 -15h-30c-10 0 -15 5 -15 15v670zM110 640v-360h85c10 0 15 5 15 15v330c0 10 -5 15 -15 15h-85z" />
    <glyph glyph-name="S" unicode="S" horiz-adv-x="300" 
d="M260 60c0 -17.333 -5.66699 -31.666 -17 -42.999s-25.666 -17 -42.999 -17h-100c-17.333 0 -31.666 5.66699 -42.999 17s-17 25.666 -17 42.999v115c0 10 5 15 15 15h30c10 0 15 -5 15 -15v-100c0 -10 5 -15 15 -15h70c10 0 15 5 15 15v185c0 15.333 -2 26.333 -6 33
s-8.66699 12.334 -14 17.001l-100 90c-10 9.33301 -19.167 20.333 -27.5 33s-12.5 31.667 -12.5 57v150c0 17.333 5.66699 31.666 17 42.999s25.666 17 42.999 17h100c17.333 0 31.666 -5.66699 42.999 -17s17 -25.666 17 -42.999v-110c0 -10 -5 -15 -15 -15h-30
c-10 0 -15 5 -15 15v95c0 10 -5 15 -15 15h-70c-10 0 -15 -5 -15 -15v-125c0 -15.333 2 -26.333 6 -33s8.66699 -12.334 14 -17.001l100 -90c10 -9.33301 19.167 -20.333 27.5 -33s12.5 -31.667 12.5 -57v-210z" />
    <glyph glyph-name="T" unicode="T" horiz-adv-x="240" 
d="M150 15c0 -10 -5 -15 -15 -15h-30c-10 0 -15 5 -15 15v625h-75c-10 0 -15 5 -15 15v30c0 10 5 15 15 15h210c10 0 15 -5 15 -15v-30c0 -10 -5 -15 -15 -15h-75v-625z" />
    <glyph glyph-name="U" unicode="U" horiz-adv-x="320" 
d="M110 75c0 -10 4.99805 -15 14.998 -15h70c10 0 15 5 15 15v610c0 10 5 15 15 15h30c10 0 15 -5 15 -15v-625c0 -17.333 -5.66699 -31.666 -17 -42.999s-25.666 -17 -42.999 -17h-100c-17.333 0 -31.666 5.66699 -42.999 17s-17 25.666 -17 42.999v625c0 10 5 15 15 15h30
c10 0 15 -5 15 -15v-610z" />
    <glyph glyph-name="V" unicode="V" horiz-adv-x="300" 
d="M120 0c-9.33301 0 -14.333 5 -15 15l-85 670c0 10 5 15 15 15h30c8.66699 0 13.667 -5 15 -15l70 -580l70 580c0.666992 10 5.66699 15 15 15h30c10 0 15 -5 15 -15l-85 -670c-1.33301 -10 -6.33301 -15 -15 -15h-60z" />
    <glyph glyph-name="W" unicode="W" horiz-adv-x="440" 
d="M240 485c8.66699 0 13.667 -5 15 -15l40 -360l65 575c0.666992 10 5.66699 15 15 15h30c10 0 15 -5 15 -15l-75 -670c-1.33301 -10 -6.33301 -15 -15 -15h-60c-9.33301 0 -14.333 5 -15 15l-35 305l-35 -305c-1.33301 -10 -6.33301 -15 -15 -15h-60
c-9.33301 0 -14.333 5 -15 15l-75 670c0 10 5 15 15 15h30c8.66699 0 13.667 -5 15 -15l65 -575l40 360c0.666992 10 5.66699 15 15 15h40z" />
    <glyph glyph-name="X" unicode="X" horiz-adv-x="272" 
d="M76 15c-2 -10 -8.66699 -15 -20 -15h-30c-8.66699 0 -12 5 -10 15l85 350l-75 320c-2 10 1.33301 15 10 15h30c11.333 0 18 -5 20 -15l50 -225l50 225c2 10 8.66699 15 20 15h30c8.66699 0 12 -5 10 -15l-75 -320l85 -350c2 -10 -1.33301 -15 -10 -15h-30
c-11.333 0 -18 5 -20 15l-60 260z" />
    <glyph glyph-name="Y" unicode="Y" horiz-adv-x="262" 
d="M116 0c-10 0 -15 5 -15 15v275l-90 395c-2 10 1.33301 15 10 15h30c11.333 0 18 -5 20 -15l60 -275l60 275c2 10 8.66699 15 20 15h30c8.66699 0 12 -5 10 -15l-90 -395v-275c0 -10 -5 -15 -15 -15h-30z" />
    <glyph glyph-name="Z" unicode="Z" horiz-adv-x="242" 
d="M216 60c10 0 15 -5 15 -15v-30c0 -10 -5 -15 -15 -15h-190c-5.33301 0 -9.5 1.16699 -12.5 3.5s-3.83301 6.16602 -2.5 11.499l150 625h-125c-10 0 -15 5 -15 15v30c0 10 5 15 15 15h180c5.33301 0 9.5 -1.16699 12.5 -3.5s3.83301 -6.16602 2.5 -11.499l-150 -625h135v0
z" />
    <glyph glyph-name="bracketleft" unicode="[" horiz-adv-x="200" 
d="M60 685c0 10 5 15 15 15h90c10 0 15 -5 15 -15v-30c0 -10 -5 -15 -15 -15h-45v-740h45c10 0 15 -5 15 -15v-30c0 -10 -5 -15 -15 -15h-90c-10 0 -15 5 -15 15v830z" />
    <glyph glyph-name="backslash" unicode="\" horiz-adv-x="274" 
d="M22 685c-3.33301 10 0 15 10 15h30c10 0 16.667 -5 20 -15l170 -670c2.66699 -10 -0.666016 -15 -9.99902 -15h-30c-10.667 0 -17.334 5 -20.001 15z" />
    <glyph glyph-name="bracketright" unicode="]" horiz-adv-x="200" 
d="M140 -145c0 -10 -5 -15 -15 -15h-90c-10 0 -15 5 -15 15v30c0 10 5 15 15 15h45v740h-45c-10 0 -15 5 -15 15v30c0 10 5 15 15 15h90c10 0 15 -5 15 -15v-830z" />
    <glyph glyph-name="asciicircum" unicode="^" horiz-adv-x="274" 
d="M157 700c9.33301 0 16 -5 20 -15l75 -210c4 -10 0.666992 -15 -10 -15h-30c-10 0 -16.667 5 -20 15l-55 155l-55 -155c-3.33301 -10 -10 -15 -20 -15h-30c-10.667 0 -14 5 -10 15l75 210c4 10 10.667 15 20 15h40z" />
    <glyph glyph-name="underscore" unicode="_" horiz-adv-x="250" 
d="M5 -150c-10 0 -15 5 -15 15v30c0 10 5 15 15 15h240c10 0 15 -5 15 -15v-30c0 -10 -5 -15 -15 -15h-240z" />
    <glyph glyph-name="grave" unicode="`" horiz-adv-x="164" 
d="M107 580c-5.33301 0 -9.33301 1.33105 -12 3.99805s-5.33398 6.33398 -8.00098 11.001l-55 90c-2.66699 4.66699 -3 8.33398 -1 11.001s5.66699 4 11 4h40c10 0 16.667 -5 20 -15l30 -90c2.66699 -10 -0.666016 -15 -9.99902 -15h-15z" />
    <glyph glyph-name="a" unicode="a" horiz-adv-x="275" 
d="M175 170h-65c-10 0 -15 -5 -15 -15v-80c0 -10 5 -15 15 -15h65v110zM95 0c-17.333 0 -31.6641 5.66895 -42.9971 17.002s-17 25.666 -17 42.999v110c0 17.333 5.66699 31.666 17 42.999s25.666 17 42.999 17h80v95c0 10 -5 15 -15 15h-50c-10 0 -15 -5 -15 -15v-40
c0 -10 -5 -15 -15 -15h-30c-10 0 -15 5 -15 15v55c0 17.333 5.66699 31.666 17 42.999s25.666 17 42.999 17h80c17.333 0 31.666 -5.66699 42.999 -17s17 -25.666 17 -42.999v-325c0 -10 -5 -15 -15 -15h-125z" />
    <glyph glyph-name="b" unicode="b" 
d="M240 60c0 -17.333 -5.66699 -31.668 -17 -43.001s-25.666 -17 -42.999 -17h-125c-10 0 -15 5 -15 15v670c0 10 5 15 15 15h30c10 0 15 -5 15 -15v-285h80c17.333 0 31.666 -5.66699 42.999 -17s17 -25.666 17 -42.999v-280zM180 324.998c0 10 -5 15 -15 15h-65v-280h65
c10 0 15 5 15 15v250z" />
    <glyph glyph-name="c" unicode="c" horiz-adv-x="275" 
d="M240 60c0 -17.333 -5.66699 -31.666 -17 -42.999s-25.666 -17 -42.999 -17h-80c-17.333 0 -31.666 5.66699 -42.999 17s-17 25.666 -17 42.999v280c0 17.333 5.66699 31.666 17 42.999s25.666 17 42.999 17h80c17.333 0 31.666 -5.66699 42.999 -17
s17 -25.666 17 -42.999v-60c0 -10 -5 -15 -15 -15h-30c-10 0 -15 5 -15 15v45c0 10 -5 15 -15 15h-50c-10 0 -15 -5 -15 -15v-250c0 -10 5 -15 15 -15h50c10 0 15 5 15 15v50c0 10 5 15 15 15h30c10 0 15 -5 15 -15v-65z" />
    <glyph glyph-name="d" unicode="d" 
d="M40 340c0 17.333 5.66699 31.668 17 43.001s25.666 17 42.999 17h80v285c0 10 5 15 15 15h30c10 0 15 -5 15 -15v-670c0 -10 -5 -15 -15 -15h-125c-17.333 0 -31.666 5.66699 -42.999 17s-17 25.666 -17 42.999v280zM100 75.002c0 -10 5 -15 15 -15h65v280h-65
c-10 0 -15 -5 -15 -15v-250z" />
    <glyph glyph-name="e" unicode="e" 
d="M240 60c0 -17.333 -5.66699 -31.666 -17 -42.999s-25.666 -17 -42.999 -17h-80c-17.333 0 -31.666 5.66699 -42.999 17s-17 25.666 -17 42.999v280c0 17.333 5.66699 31.666 17 42.999s25.666 17 42.999 17h80c17.333 0 31.666 -5.66699 42.999 -17
s17 -25.666 17 -42.999v-145c0 -10 -5 -15 -15 -15h-125v-105c0 -10 5 -15 15 -15h50c10 0 15 5 15 15v50c0 10 5 15 15 15h30c10 0 15 -5 15 -15v-65zM100 240h80v85c0 10 -5 15 -15 15h-50c-10 0 -15 -5 -15 -15v-85z" />
    <glyph glyph-name="f" unicode="f" horiz-adv-x="190" 
d="M25 340c-10 0 -14.999 5.00098 -14.999 15.001v30c0 10 5 15 15 15h25v240c0 17.333 5.66699 31.666 17 42.999s25.666 17 42.999 17h75c10 0 15 -5 15 -15v-30c0 -10 -5 -15 -15 -15h-60c-10 0 -15 -5 -15 -15v-225h55c10 0 15 -5 15 -15v-30c0 -10 -5 -15 -15 -15h-55
v-325c0 -10 -5 -15 -15 -15h-30c-10 0 -15 5 -15 15v325h-25z" />
    <glyph glyph-name="g" unicode="g" 
d="M40 -75c0 10 4.99805 15.002 14.998 15.002h30c10 0 15 -5 15 -15v-50c0 -10 5 -15 15 -15h50c10 0 15 5 15 15v125h-80c-17.333 0 -31.666 5.66699 -42.999 17s-17 25.666 -17 42.999v280c0 17.333 5.66699 31.666 17 42.999s25.666 17 42.999 17h125c10 0 15 -5 15 -15
v-525c0 -17.333 -5.66699 -31.666 -17 -42.999s-25.666 -17 -42.999 -17h-80c-17.333 0 -31.666 5.66699 -42.999 17s-17 25.666 -17 42.999v65zM99.998 75.002c0 -10 5 -15 15 -15h65v280h-65c-10 0 -15 -5 -15 -15v-250z" />
    <glyph glyph-name="h" unicode="h" 
d="M180 325c0 10 -4.99902 14.999 -14.999 14.999h-65v-325c0 -10 -5 -15 -15 -15h-30c-10 0 -15 5 -15 15v670c0 10 5 15 15 15h30c10 0 15 -5 15 -15v-285h80c17.333 0 31.666 -5.66699 42.999 -17s17 -25.666 17 -42.999v-325c0 -10 -5 -15 -15 -15h-30
c-10 0 -15 5 -15 15v310z" />
    <glyph glyph-name="i" unicode="i" horiz-adv-x="140" 
d="M40 385c0 10 5 15 15 15h30c10 0 15 -5 15 -15v-370c0 -10 -5 -15 -15 -15h-30c-10 0 -15 5 -15 15v370zM40 525c0 10 5 15 15 15h30c10 0 15 -5 15 -15v-30c0 -10 -5 -15 -15 -15h-30c-10 0 -15 5 -15 15v30z" />
    <glyph glyph-name="j" unicode="j" horiz-adv-x="140" 
d="M40 525c0 10 5 15 15 15h30c10 0 15 -5 15 -15v-30c0 -10 -5 -15 -15 -15h-30c-10 0 -15 5 -15 15v30zM-50 -155c0 10 4.99902 14.999 14.999 14.999h60c10 0 15 5 15 15v510c0 10 5 15 15 15h30c10 0 15 -5 15 -15v-525c0 -17.333 -5.66699 -31.666 -17 -42.999
s-25.666 -17 -42.999 -17h-75c-10 0 -15 5 -15 15v30z" />
    <glyph glyph-name="k" unicode="k" horiz-adv-x="257" 
d="M255 15c4 -10 0.669922 -14.999 -9.99707 -14.999h-35c-9.33301 0 -16 5 -20 15l-70 165l-20 -45v-120c0 -10 -5 -15 -15 -15h-30c-10 0 -15 5 -15 15v670c0 10 5 15 15 15h30c10 0 15 -5 15 -15v-440l65 140c3.33301 5.33301 6.16602 9.16602 8.49902 11.499
s6.16602 3.5 11.499 3.5h35c11.333 0 14.666 -5 9.99902 -15l-70 -150z" />
    <glyph glyph-name="l" unicode="l" horiz-adv-x="140" 
d="M40 685c0 10 5 15 15 15h30c10 0 15 -5 15 -15v-670c0 -10 -5 -15 -15 -15h-30c-10 0 -15 5 -15 15v670z" />
    <glyph glyph-name="m" unicode="m" horiz-adv-x="420" 
d="M320 325c0 10 -4.99902 14.999 -14.999 14.999h-65v-325c0 -10 -5 -15 -15 -15h-30c-10 0 -15 5 -15 15v310c0 10 -5 15 -15 15h-65v-325c0 -10 -5 -15 -15 -15h-30c-10 0 -15 5 -15 15v370c0 10 5 15 15 15h265c17.333 0 31.666 -5.66699 42.999 -17
s17 -25.666 17 -42.999v-325c0 -10 -5 -15 -15 -15h-30c-10 0 -15 5 -15 15v310z" />
    <glyph glyph-name="n" unicode="n" 
d="M180 325c0 10 -4.99902 14.999 -14.999 14.999h-65v-325c0 -10 -5 -15 -15 -15h-30c-10 0 -15 5 -15 15v370c0 10 5 15 15 15h125c17.333 0 31.666 -5.66699 42.999 -17s17 -25.666 17 -42.999v-325c0 -10 -5 -15 -15 -15h-30c-10 0 -15 5 -15 15v310z" />
    <glyph glyph-name="o" unicode="o" 
d="M180 325c0 10 -5 15 -15 15h-50c-10 0 -15 -5 -15 -15v-250c0 -10 5 -15 15 -15h50c10 0 15 5 15 15v250zM240 60c0 -17.333 -5.66699 -31.666 -17 -42.999s-25.666 -17 -42.999 -17h-80c-17.333 0 -31.666 5.66699 -42.999 17s-17 25.666 -17 42.999v280
c0 17.333 5.66699 31.666 17 42.999s25.666 17 42.999 17h80c17.333 0 31.666 -5.66699 42.999 -17s17 -25.666 17 -42.999v-280z" />
    <glyph glyph-name="p" unicode="p" 
d="M180 325c0 10 -5 15 -15 15h-65v-280h65c10 0 15 5 15 15v250zM240 60c0 -17.333 -5.66699 -31.668 -17 -43.001s-25.666 -17 -42.999 -17h-80v-185c0 -10 -5 -15 -15 -15h-30c-10 0 -15 5 -15 15v570c0 10 5 15 15 15h125c17.333 0 31.666 -5.66699 42.999 -17
s17 -25.666 17 -42.999v-280z" />
    <glyph glyph-name="q" unicode="q" 
d="M100 75c0 -10 5 -15 15 -15h65v280h-65c-10 0 -15 -5 -15 -15v-250zM40 340c0 17.333 5.66699 31.668 17 43.001s25.666 17 42.999 17h125c10 0 15 -5 15 -15v-570c0 -10 -5 -15 -15 -15h-30c-10 0 -15 5 -15 15v185h-80c-17.333 0 -31.666 5.66699 -42.999 17
s-17 25.666 -17 42.999v280z" />
    <glyph glyph-name="r" unicode="r" horiz-adv-x="210" 
d="M195 400c10 0 15 -4.99902 15 -14.999v-30c0 -10 -5 -15 -15 -15h-25c-20 0 -36.667 -6.66699 -50 -20s-20 -30 -20 -50v-255c0 -10 -5 -15 -15 -15h-30c-10 0 -15 5 -15 15v370c0 10 5 15 15 15h30c10 0 15 -5 15 -15v-45c2 11.333 6 21.333 12 30
c5.33301 7.33301 12.5 14.166 21.5 20.499s21.167 9.5 36.5 9.5h25v0z" />
    <glyph glyph-name="s" unicode="s" horiz-adv-x="270" 
d="M235 60c0 -17.333 -5.66699 -31.666 -17 -42.999s-25.666 -17 -42.999 -17h-80c-17.333 0 -31.666 5.66699 -42.999 17s-17 25.666 -17 42.999v65c0 10 5 15 15 15h30c10 0 15 -5 15 -15v-50c0 -10 5 -15 15 -15h50c10 0 15 5 15 15v45c0 15.333 -2 26 -6 32
s-8.66699 10.333 -14 13l-80 45c-10 5.33301 -19.167 13.666 -27.5 24.999s-12.5 29.666 -12.5 54.999v50c0 17.333 5.66699 31.666 17 42.999s25.666 17 42.999 17h80c17.333 0 31.666 -5.66699 42.999 -17s17 -25.666 17 -42.999v-60c0 -10 -5 -15 -15 -15h-30
c-10 0 -15 5 -15 15v45c0 10 -5 15 -15 15h-50c-10 0 -15 -5 -15 -15v-30c0 -15.333 2 -26 6 -32s8.66699 -10.333 14 -13l80 -45c10 -5.33301 19.167 -13.666 27.5 -24.999s12.5 -29.666 12.5 -54.999v-65z" />
    <glyph glyph-name="t" unicode="t" horiz-adv-x="220" 
d="M50 400l-0.000976562 175.001c0 10 5 15 15 15h30c10 0 15 -5 15 -15v-175h55c10 0 15 -5 15 -15v-30c0 -10 -5 -15 -15 -15h-55v-265c0 -10 5 -15 15 -15h60c10 0 15 -5 15 -15v-30c0 -10 -5 -15 -15 -15h-75c-17.333 0 -31.666 5.66699 -42.999 17
s-17 25.666 -17 42.999v280h-25c-10 0 -15 5 -15 15v30c0 10 5 15 15 15h25z" />
    <glyph glyph-name="u" unicode="u" 
d="M100 75c0 -10 4.99902 -14.999 14.999 -14.999h65v325c0 10 5 15 15 15h30c10 0 15 -5 15 -15v-370c0 -10 -5 -15 -15 -15h-125c-17.333 0 -31.666 5.66699 -42.999 17s-17 25.666 -17 42.999v325c0 10 5 15 15 15h30c10 0 15 -5 15 -15v-310z" />
    <glyph glyph-name="v" unicode="v" horiz-adv-x="252" 
d="M101 0c-5.33301 0 -8.83301 1.16699 -10.5 3.5s-3.16699 6.16602 -4.5 11.499l-65 370c-1.33301 5.33301 -1 9.16602 1 11.499s6.66699 3.5 14 3.5h30c2.66699 0 5.5 -1.16699 8.5 -3.5s5.16699 -6.16602 6.5 -11.499l45 -280l45 280
c1.33301 5.33301 3.5 9.16602 6.5 11.499s5.83301 3.5 8.5 3.5h30c7.33301 0 12 -1.16699 14 -3.5s2.33301 -6.16602 1 -11.499l-65 -370c-1.33301 -5.33301 -2.83301 -9.16602 -4.5 -11.499s-5.16699 -3.5 -10.5 -3.5h-50z" />
    <glyph glyph-name="w" unicode="w" horiz-adv-x="382" 
d="M206 295c5.33301 0 8.83301 -1.16699 10.5 -3.5s3.16699 -6.16602 4.5 -11.499l35 -180l45 285c1.33301 5.33301 3.5 9.16602 6.5 11.499s5.83301 3.5 8.5 3.5h30c7.33301 0 12 -1.16699 14 -3.5s2.33301 -6.16602 1 -11.499l-60 -370
c-1.33301 -5.33301 -2.83301 -9.16602 -4.5 -11.499s-5.16699 -3.5 -10.5 -3.5h-45c-5.33301 0 -8.83301 1.16699 -10.5 3.5s-3.16699 6.16602 -4.5 11.499l-35 180l-35 -180c-1.33301 -5.33301 -2.83301 -9.16602 -4.5 -11.499s-5.16699 -3.5 -10.5 -3.5h-45
c-5.33301 0 -8.83301 1.16699 -10.5 3.5s-3.16699 6.16602 -4.5 11.499l-60 370c-1.33301 5.33301 -1 9.16602 1 11.499s6.66699 3.5 14 3.5h30c2.66699 0 5.5 -1.16699 8.5 -3.5s5.16699 -6.16602 6.5 -11.499l45 -285l35 180c1.33301 5.33301 2.83301 9.16602 4.5 11.499
s5.16699 3.5 10.5 3.5h30z" />
    <glyph glyph-name="x" unicode="x" horiz-adv-x="254" 
d="M127 275l39.999 110c2.66699 10 9.33398 15 20.001 15h30c10.667 0 14 -5 10 -15l-65 -165l75 -205c2.66699 -10 -0.666016 -15 -9.99902 -15h-30c-10.667 0 -17.334 5 -20.001 15l-50 145l-50 -145c-3.33301 -10 -10 -15 -20 -15h-30c-10 0 -13.333 5 -10 15l75 205
l-65 165c-4 10 -0.666992 15 10 15h30c10 0 16.667 -5 20 -15z" />
    <glyph glyph-name="y" unicode="y" 
d="M40 -75c0 10 4.99707 15.001 14.9971 15.001h30c10 0 15 -5 15 -15v-50c0 -10 5 -15 15 -15h50c10 0 15 5 15 15v125h-80c-17.333 0 -31.666 5.66699 -42.999 17s-17 25.666 -17 42.999v325c0 10 5 15 15 15h30c10 0 15 -5 15 -15v-310c0 -10 5 -15 15 -15h65v325
c0 10 5 15 15 15h30c10 0 15 -5 15 -15v-525c0 -17.333 -5.66699 -31.666 -17 -42.999s-25.666 -17 -42.999 -17h-80c-17.333 0 -31.666 5.66699 -42.999 17s-17 25.666 -17 42.999v65v0z" />
    <glyph glyph-name="z" unicode="z" horiz-adv-x="222" 
d="M91 60h105c10 0 15 -5 15 -15v-30c0 -10 -5 -15 -15 -15h-170c-7.33301 -0 -12 1.83301 -14 5.5s-2.33301 6.83398 -1 9.50098l120 325h-105c-10 0 -15 5 -15 15v30c0 10 5 15 15 15h170c7.33301 0 12 -1.83301 14 -5.5s2.33301 -6.83398 1 -9.50098z" />
    <glyph glyph-name="braceleft" unicode="{" horiz-adv-x="210" 
d="M55 300c10 0 15 5.00195 15 15.002v325c0 17.333 5.66699 31.666 17 42.999s25.666 17 42.999 17h45c10 0 15 -5 15 -15v-30c0 -10 -5 -15 -15 -15h-30c-10 0 -15 -5 -15 -15v-305c0 -11.333 -2 -20.333 -6 -27s-8.66699 -11.667 -14 -15c-6 -4 -12.667 -6.66699 -20 -8
c7.33301 -1.33301 14 -4 20 -8c5.33301 -3.33301 10 -8.33301 14 -15s6 -15.667 6 -27v-305c0 -10 5 -15 15 -15h30c10 0 15 -5 15 -15v-30c0 -10 -5 -15 -15 -15h-45c-17.333 0 -31.666 5.66699 -42.999 17s-17 25.666 -17 42.999v325c0 10 -5 15 -15 15h-20
c-10 0 -15 5 -15 15v30c0 10 5 15 15 15h20z" />
    <glyph glyph-name="bar" unicode="|" horiz-adv-x="160" 
d="M50 685c0 10 5 15 15 15h30c10 0 15 -5 15 -15v-870c0 -10 -5 -15 -15 -15h-30c-10 0 -15 5 -15 15v870z" />
    <glyph glyph-name="braceright" unicode="}" horiz-adv-x="210" 
d="M175 300c10 0 15 -5.00195 15 -15.002v-30c0 -10 -5 -15 -15 -15h-20c-10 0 -15 -5 -15 -15v-325c0 -17.333 -5.66699 -31.666 -17 -42.999s-25.666 -17 -42.999 -17h-45c-10 0 -15 5 -15 15v30c0 10 5 15 15 15h30c10 0 15 5 15 15v305c0 11.333 2 20.333 6 27
s8.66699 11.667 14 15c6 4 12.667 6.66699 20 8c-7.33301 1.33301 -14 4 -20 8c-5.33301 3.33301 -10 8.33301 -14 15s-6 15.667 -6 27v305c0 10 -5 15 -15 15h-30c-10 0 -15 5 -15 15v30c0 10 5 15 15 15h45c17.333 0 31.666 -5.66699 42.999 -17s17 -25.666 17 -42.999
v-325c0 -10 5 -15 15 -15h20z" />
    <glyph glyph-name="asciitilde" unicode="~" horiz-adv-x="320" 
d="M100 350c20 0 35.167 -4.16699 45.5 -12.5s18.5 -17.5 24.5 -27.5l20 -30c3.33301 -5.33301 7.5 -10 12.5 -14s12.5 -6 22.5 -6s15 5 15 15v60c0 10 5 15 15 15h30c10 0 15 -5 15 -15v-75c0 -17.333 -5.66699 -31.666 -17 -42.999s-25.666 -17 -42.999 -17h-20
c-20 0 -35.167 4.16699 -45.5 12.5s-18.5 17.5 -24.5 27.5l-20 30c-3.33301 5.33301 -7.5 10 -12.5 14s-12.5 6 -22.5 6s-15 -5 -15 -15v-60c0 -10 -5 -15 -15 -15h-30c-10 0 -15 5 -15 15v75c0 17.333 5.66699 31.666 17 42.999s25.666 17 42.999 17h20v0z" />
    <glyph glyph-name="nonbreakingspace" unicode="&#xa0;" horiz-adv-x="0" 
 />
    <glyph glyph-name="exclamdown" unicode="&#xa1;" horiz-adv-x="160" 
d="M50 385c0 10 5 15 15 15h30c10 0 15 -5 15 -15v-30c0 -10 -5 -15 -15 -15h-30c-10 0 -15 5 -15 15v30zM50 245c0 10 5 15 15 15h30c10 0 15 -5 15 -15v-430c0 -10 -5 -15 -15 -15h-30c-10 0 -15 5 -15 15v430z" />
    <glyph glyph-name="cent" unicode="&#xa2;" horiz-adv-x="275" 
d="M110 0h-10c-17.333 0 -31.666 5.66699 -42.999 17s-17 25.666 -17 42.999v280c0 17.333 5.66699 31.666 17 42.999s25.666 17 42.999 17h10v45c0 10 5 15 15 15h30c10 0 15 -5 15 -15v-45h10c17.333 0 31.666 -5.66699 42.999 -17s17 -25.666 17 -42.999v-60
c0 -10 -5 -15 -15 -15h-30c-10 0 -15 5 -15 15v45c0 10 -5 15 -15 15h-50c-10 0 -15 -5 -15 -15v-250c0 -10 5 -15 15 -15h50c10 0 15 5 15 15v50c0 10 5 15 15 15h30c10 0 15 -5 15 -15v-65c0 -17.333 -5.66699 -31.666 -17 -42.999s-25.666 -17 -42.999 -17h-10v-45
c0 -10 -5 -15 -15 -15h-30c-10 0 -15 5 -15 15v45z" />
    <glyph glyph-name="sterling" unicode="&#xa3;" horiz-adv-x="260" 
d="M35 0c-10 0 -14.999 5.00098 -14.999 15.001v30c0 10 5 15 15 15h45v280h-25c-10 0 -15 5 -15 15v30c0 10 5 15 15 15h25v240c0 17.333 5.66699 31.666 17 42.999s25.666 17 42.999 17h75c10 0 15 -5 15 -15v-30c0 -10 -5 -15 -15 -15h-60c-10 0 -15 -5 -15 -15v-225h55
c10 0 15 -5 15 -15v-30c0 -10 -5 -15 -15 -15h-55v-280h105c10 0 15 -5 15 -15v-30c0 -10 -5 -15 -15 -15h-210z" />
    <glyph glyph-name="currency" unicode="&#xa4;" horiz-adv-x="330" 
d="M130 190v-175.002c0 -10 -5 -15 -15 -15h-30c-10 0 -15 5 -15 15v175h-25c-10 0 -15 5 -15 15v30c0 10 5 15 15 15h25v60h-25c-10 0 -15 5 -15 15v30c0 10 5 15 15 15h25v315c0 10 5 15 15 15h145c17.333 0 31.666 -5.66699 42.999 -17s17 -25.666 17 -42.999v-270
c0 -17.333 -5.66699 -31.666 -17 -42.999s-25.666 -17 -42.999 -17h-100v-60h115c10 0 15 -5 15 -15v-30c0 -10 -5 -15 -15 -15h-115zM130 639.998v-270h85c10 0 15 5 15 15v240c0 10 -5 15 -15 15h-85z" />
    <glyph glyph-name="yen" unicode="&#xa5;" horiz-adv-x="262" 
d="M161 120v-105c0 -10 -5 -15 -15 -15h-30c-10 0 -15 5 -15 15v105h-55c-10 0 -15 5 -15 15v30c0 10 5 15 15 15h55v50h-55c-10 0 -15 5 -15 15v30c0 10 5 15 15 15h55l-90 395c-2 10 1.33301 15 10 15h30c11.333 0 18 -5 20 -15l60 -275l60 275c2 10 8.66699 15 20 15h30
c8.66699 0 12 -5 10 -15l-90 -395h55c10 0 15 -5 15 -15v-30c0 -10 -5 -15 -15 -15h-55v-50h55c10 0 15 -5 15 -15v-30c0 -10 -5 -15 -15 -15h-55z" />
    <glyph glyph-name="brokenbar" unicode="&#xa6;" horiz-adv-x="160" 
d="M50 185c0 10 5 15 15 15h30c10 0 15 -5 15 -15v-370c0 -10 -5 -15 -15 -15h-30c-10 0 -15 5 -15 15v370zM50 685c0 10 5 15 15 15h30c10 0 15 -5 15 -15v-370c0 -10 -5 -15 -15 -15h-30c-10 0 -15 5 -15 15v370z" />
    <glyph glyph-name="section" unicode="&#xa7;" horiz-adv-x="310" 
d="M45 640c0 17.333 5.66699 31.666 17 42.999s25.666 17 42.999 17h100c17.333 0 31.666 -5.66699 42.999 -17s17 -25.666 17 -42.999v-110c0 -10 -5 -15 -15 -15h-30c-10 0 -15 5 -15 15v95c0 10 -5 15 -15 15h-70c-10 0 -15 -5 -15 -15v-125c0 -15.333 2 -26.333 6 -33
s8.66699 -12.334 14 -17.001l100 -90c10 -9.33301 19.167 -20.333 27.5 -33s12.5 -31.667 12.5 -57v-410c0 -17.333 -5.66699 -31.666 -17 -42.999s-25.666 -17 -42.999 -17h-100c-17.333 0 -31.666 5.66699 -42.999 17s-17 25.666 -17 42.999v110c0 10 5 15 15 15h30
c10 0 15 -5 15 -15v-95c0 -10 5 -15 15 -15h70c10 0 15 5 15 15v125c0 15.333 -2 26.333 -6 33s-8.66699 12.334 -14 17.001l-100 90c-10 9.33301 -19.167 20.333 -27.5 33s-12.5 31.667 -12.5 57v410zM105 380v-140c0 -15.333 2 -26.333 6 -33s8.66699 -12.334 14 -17.001
l80 -70v140c0 15.333 -2 26.333 -6 33s-8.66699 12.334 -14 17.001z" />
    <glyph glyph-name="dieresis" unicode="&#xa8;" horiz-adv-x="230" 
d="M30 685c0 10 5 15 15 15h30c10 0 15 -5 15 -15v-30c0 -10 -5 -15 -15 -15h-30c-10 0 -15 5 -15 15v30zM140 685c0 10 5 15 15 15h30c10 0 15 -5 15 -15v-30c0 -10 -5 -15 -15 -15h-30c-10 0 -15 5 -15 15v30z" />
    <glyph glyph-name="copyright" unicode="&#xa9;" horiz-adv-x="580" 
d="M60 640c0 17.333 5.66699 31.666 17 42.999s25.666 17 42.999 17h340c17.333 0 31.666 -5.66699 42.999 -17s17 -25.666 17 -42.999v-580c0 -17.333 -5.66699 -31.666 -17 -42.999s-25.666 -17 -42.999 -17h-340c-17.333 0 -31.666 5.66699 -42.999 17
s-17 25.666 -17 42.999v580zM445 60c10 0 15 5 15 15v550c0 10 -5 15 -15 15h-310c-10 0 -15 -5 -15 -15v-550c0 -10 5 -15 15 -15h310zM390 210c0 -17.333 -5.66699 -31.666 -17 -42.999s-25.666 -17 -42.999 -17h-80c-17.333 0 -31.666 5.66699 -42.999 17
s-17 25.666 -17 42.999v280c0 17.333 5.66699 31.666 17 42.999s25.666 17 42.999 17h80c17.333 0 31.666 -5.66699 42.999 -17s17 -25.666 17 -42.999v-60c0 -10 -5 -15 -15 -15h-30c-10 0 -15 5 -15 15v45c0 10 -5 15 -15 15h-50c-10 0 -15 -5 -15 -15v-250
c0 -10 5 -15 15 -15h50c10 0 15 5 15 15v50c0 10 5 15 15 15h30c10 0 15 -5 15 -15v-65z" />
    <glyph glyph-name="ordfeminine" unicode="&#xaa;" 
d="M180 470h-65c-10 0 -15 -5 -15 -15v-80c0 -10 5 -15 15 -15h65v110zM100 300c-17.333 0 -31.6641 5.66895 -42.9971 17.002s-17 25.666 -17 42.999v110c0 17.333 5.66699 31.666 17 42.999s25.666 17 42.999 17h80v95c0 10 -5 15 -15 15h-50c-10 0 -15 -5 -15 -15v-40
c0 -10 -5 -15 -15 -15h-30c-10 0 -15 5 -15 15v55c0 17.333 5.66699 31.666 17 42.999s25.666 17 42.999 17h80c17.333 0 31.666 -5.66699 42.999 -17s17 -25.666 17 -42.999v-325c0 -10 -5 -15 -15 -15h-125z" />
    <glyph glyph-name="guillemotleft" unicode="&#xab;" horiz-adv-x="312" 
d="M30 200c0 6 1.66699 12.333 5 19c1.33301 3.33301 3 7 5 11l60 130c4.66699 10 11.334 15 20.001 15h30c11.333 0 14.666 -5 9.99902 -15l-60 -130c-2 -4 -3.66699 -7.66699 -5 -11c-3.33301 -6.66699 -5 -13 -5 -19s1.66699 -12.333 5 -19c1.33301 -3.33301 3 -7 5 -11
l60 -130c4.66699 -10 1.33398 -15 -9.99902 -15h-30c-8.66699 0 -15.334 5 -20.001 15l-60 130c-2 4 -3.66699 7.66699 -5 11c-3.33301 6.66699 -5 13 -5 19zM150 200c0 6 1.66699 12.333 5 19c1.33301 3.33301 3 7 5 11l60 130c4.66699 10 11.334 15 20.001 15h30
c11.333 0 14.666 -5 9.99902 -15l-60 -130c-2 -4 -3.66699 -7.66699 -5 -11c-3.33301 -6.66699 -5 -13 -5 -19s1.66699 -12.333 5 -19c1.33301 -3.33301 3 -7 5 -11l60 -130c4.66699 -10 1.33398 -15 -9.99902 -15h-30c-8.66699 0 -15.334 5 -20.001 15l-60 130
c-2 4 -3.66699 7.66699 -5 11c-3.33301 6.66699 -5 13 -5 19z" />
    <glyph glyph-name="logicalnot" unicode="&#xac;" horiz-adv-x="310" 
d="M230 280h-195c-10 0 -15 5 -15 15v30c0 10 5 15 15 15h240c10 0 15 -5 15 -15v-120c0 -10 -5 -15 -15 -15h-30c-10 0 -15 5 -15 15v75z" />
    <glyph glyph-name="uni00AD" unicode="&#xad;" horiz-adv-x="310" 
d="M35 240c-10 0 -15 5 -15 15v30c0 10 5 15 15 15h240c10 0 15 -5 15 -15v-30c0 -10 -5 -15 -15 -15h-240z" />
    <glyph glyph-name="registered" unicode="&#xae;" horiz-adv-x="580" 
d="M60 640c0 17.333 5.66699 31.666 17 42.999s25.666 17 42.999 17h340c17.333 0 31.666 -5.66699 42.999 -17s17 -25.666 17 -42.999v-580c0 -17.333 -5.66699 -31.666 -17 -42.999s-25.666 -17 -42.999 -17h-340c-17.333 0 -31.666 5.66699 -42.999 17
s-17 25.666 -17 42.999v580zM445 60c10 0 15 5 15 15v550c0 10 -5 15 -15 15h-310c-10 0 -15 -5 -15 -15v-550c0 -10 5 -15 15 -15h310zM385 380c0 -12.667 -2.49902 -22.833 -7.49902 -30.5s-10.167 -13.834 -15.5 -18.501c-6.66699 -5.33301 -14 -9 -22 -11l66 -155
c4 -10 0.666992 -15 -10 -15h-30c-9.33301 0 -16 5 -20 15l-61 145h-30v-145c0 -10 -5 -15 -15 -15h-30c-10 0 -15 5 -15 15v370c0 10 5 15 15 15h115c17.333 0 31.666 -5.66699 42.999 -17s17 -25.666 17 -42.999v-110zM325.001 475.001c0 10 -5 15 -15 15h-55v-120h55
c10 0 15 5 15 15v90z" />
    <glyph glyph-name="macron" unicode="&#xaf;" horiz-adv-x="250" 
d="M45 640c-10 0 -15 5 -15 15v30c0 10 5 15 15 15h160c10 0 15 -5 15 -15v-30c0 -10 -5 -15 -15 -15h-160z" />
    <glyph glyph-name="degree" unicode="&#xb0;" 
d="M190 635c0 10 -5 15 -15 15h-70c-10 0 -15 -5 -15 -15v-80c0 -10 5 -15 15 -15h70c10 0 15 5 15 15v80zM240 550c0 -17.333 -5.66699 -31.666 -17 -42.999s-25.666 -17 -42.999 -17h-80c-17.333 0 -31.666 5.66699 -42.999 17s-17 25.666 -17 42.999v90
c0 17.333 5.66699 31.666 17 42.999s25.666 17 42.999 17h80c17.333 0 31.666 -5.66699 42.999 -17s17 -25.666 17 -42.999v-90z" />
    <glyph glyph-name="plusminus" unicode="&#xb1;" horiz-adv-x="340" 
d="M45 80c-10 0 -15 5 -15 15v30c0 10 5 15 15 15h95v140h-95c-10 0 -15 5 -15 15v30c0 10 5 15 15 15h95v105c0 10 5 15 15 15h30c10 0 15 -5 15 -15v-105h95c10 0 15 -5 15 -15v-30c0 -10 -5 -15 -15 -15h-95v-140h95c10 0 15 -5 15 -15v-30c0 -10 -5 -15 -15 -15h-250z
" />
    <glyph glyph-name="twosuperior" unicode="&#xb2;" horiz-adv-x="260" 
d="M30 395c0 25.333 4.16895 43.666 12.502 54.999s17.5 19.666 27.5 24.999l80 45c5.33301 2.66699 10 7 14 13s6 16.667 6 32v60c0 10 -5 15 -15 15h-50c-10 0 -15 -5 -15 -15v-45c0 -10 -5 -15 -15 -15h-30c-10 0 -15 5 -15 15v60c0 17.333 5.66699 31.666 17 42.999
s25.666 17 42.999 17h80c17.333 0 31.666 -5.66699 42.999 -17s17 -25.666 17 -42.999v-80c0 -25.333 -4.16699 -43.666 -12.5 -54.999s-17.5 -19.666 -27.5 -24.999l-80 -45c-5.33301 -2.66699 -10 -7 -14 -13s-6 -16.667 -6 -32v-30h125c10 0 15 -5 15 -15v-30
c0 -10 -5 -15 -15 -15h-170c-10 0 -15 5 -15 15v80z" />
    <glyph glyph-name="threesuperior" unicode="&#xb3;" horiz-adv-x="270" 
d="M30 425c0 10 5 15 15 15h30c10 0 15 -5 15 -15v-50c0 -10 5 -15 15 -15h50c10 0 15 5 15 15v90c0 10 -5 15 -15 15h-40c-10 0 -15 5 -15 15v30c0 10 5 15 15 15h40c10 0 15 5 15 15v70c0 10 -5 15 -15 15h-50c-10 0 -15 -5 -15 -15v-45c0 -10 -5 -15 -15 -15h-30
c-10 0 -15 5 -15 15v60c0 17.333 5.66699 31.666 17 42.999s25.666 17 42.999 17h80c17.333 0 31.666 -5.66699 42.999 -17s17 -25.666 17 -42.999v-80c0 -10 -1.83301 -18.333 -5.5 -25s-7.83398 -11.667 -12.501 -15c-5.33301 -4.66699 -11 -8 -17 -10
c6 -2.66699 11.667 -6 17 -10c4.66699 -4 8.83398 -9.16699 12.501 -15.5s5.5 -14.5 5.5 -24.5v-100c0 -17.333 -5.66699 -31.666 -17 -42.999s-25.666 -17 -42.999 -17h-80c-17.333 0 -31.666 5.66699 -42.999 17s-17 25.666 -17 42.999v65z" />
    <glyph glyph-name="acute" unicode="&#xb4;" horiz-adv-x="164" 
d="M42 580c-10 0 -13.333 5.00195 -10 15.002l30 90c2.66699 10 9.33398 15 20.001 15h40c5.33301 0 9 -1.33301 11 -4s1.66699 -6.33398 -1 -11.001l-55 -90c-2.66699 -4.66699 -5.33398 -8.33398 -8.00098 -11.001s-6.66699 -4 -12 -4h-15v0z" />
    <glyph glyph-name="mu" unicode="&#xb5;" horiz-adv-x="300" 
d="M240 75c0 -10 5 -15 15 -15h20c10 0 15 -5 15 -15v-30c0 -10 -5 -15 -15 -15h-175v-185c0 -10 -5 -15 -15 -15h-30c-10 0 -15 5 -15 15v570c0 10 5 15 15 15h30c10 0 15 -5 15 -15v-325h65c10 0 15 5 15 15v310c0 10 5 15 15 15h30c10 0 15 -5 15 -15v-310z" />
    <glyph glyph-name="paragraph" unicode="&#xb6;" horiz-adv-x="360" 
d="M200 15c0 -10 -5 -14.998 -15 -14.998h-30c-10 0 -15 5 -15 15v325h-40c-17.333 0 -31.666 5.66699 -42.999 17s-17 25.666 -17 42.999v240c0 17.333 5.66699 31.666 17 42.999s25.666 17 42.999 17h195c10 0 15 -5 15 -15v-670c0 -10 -5 -15 -15 -15h-30
c-10 0 -15 5 -15 15v625h-50v-60v-4v-561z" />
    <glyph glyph-name="periodcentered" unicode="&#xb7;" horiz-adv-x="120" 
d="M30 355c0 10 5 15 15 15h30c10 0 15 -5 15 -15v-30c0 -10 -5 -15 -15 -15h-30c-10 0 -15 5 -15 15v30z" />
    <glyph glyph-name="cedilla" unicode="&#xb8;" horiz-adv-x="175" 
d="M45 -170c-10 0 -15 4.99805 -15 14.998v15c0 10 5 15 15 15h40c10 0 15 5 15 15v10c0 10 -5 15 -15 15h-35c-10.667 0 -14 5 -10 15l25 80h35l-15 -50c17.333 0 31.666 -5.66699 42.999 -17s17 -25.666 17 -42.999v-10c0 -17.333 -5.66699 -31.666 -17 -42.999
s-25.666 -17 -42.999 -17h-40z" />
    <glyph glyph-name="onesuperior" unicode="&#xb9;" horiz-adv-x="180" 
d="M140 315c0 -10 -5 -15 -15 -15h-30c-10 0 -15 5 -15 15v325h-35c-10 0 -15 5 -15 15v30c0 10 5 15 15 15h80c10 0 15 -5 15 -15v-370z" />
    <glyph glyph-name="ordmasculine" unicode="&#xba;" horiz-adv-x="275" 
d="M100 375c0 -4.66699 1 -8.33398 3 -11.001s6 -4 12 -4h45c6 0 10 1.33301 12 4s3 6.33398 3 11.001v250c0 4.66699 -1 8.33398 -3 11.001s-6 4 -12 4h-45c-6 0 -10 -1.33301 -12 -4s-3 -6.33398 -3 -11.001v-250zM40 640c0 17.333 5.66699 31.666 17 42.999
s25.666 17 42.999 17h75c17.333 0 31.666 -5.66699 42.999 -17s17 -25.666 17 -42.999v-280c0 -17.333 -5.66699 -31.666 -17 -42.999s-25.666 -17 -42.999 -17h-75c-17.333 0 -31.666 5.66699 -42.999 17s-17 25.666 -17 42.999v280z" />
    <glyph glyph-name="guillemotright" unicode="&#xbb;" horiz-adv-x="312" 
d="M282 200c0 -2.66699 -0.5 -5.66699 -1.5 -9s-2.16699 -6.66602 -3.5 -9.99902c-2 -3.33301 -3.66699 -7 -5 -11l-60 -130c-2.66699 -5.33301 -5.33398 -9.16602 -8.00098 -11.499s-6.66699 -3.5 -12 -3.5h-30c-5.33301 0 -9 1.16699 -11 3.5s-1.66699 6.16602 1 11.499
l60 130c1.33301 4 3 7.66699 5 11c1.33301 3.33301 2.5 6.66602 3.5 9.99902s1.5 6.33301 1.5 9s-0.5 5.66699 -1.5 9s-2.16699 6.66602 -3.5 9.99902c-2 3.33301 -3.66699 7 -5 11l-60 130c-2.66699 5.33301 -3 9.16602 -1 11.499s5.66699 3.5 11 3.5h30
c5.33301 0 9.33301 -1.16699 12 -3.5s5.33398 -6.16602 8.00098 -11.499l60 -130c1.33301 -4 3 -7.66699 5 -11c1.33301 -3.33301 2.5 -6.66602 3.5 -9.99902s1.5 -6.33301 1.5 -9zM162 200c0 -2.66699 -0.5 -5.66699 -1.5 -9s-2.16699 -6.66602 -3.5 -9.99902
c-2 -3.33301 -3.66699 -7 -5 -11l-60 -130c-2.66699 -5.33301 -5.33398 -9.16602 -8.00098 -11.499s-6.66699 -3.5 -12 -3.5h-30c-5.33301 0 -9 1.16699 -11 3.5s-1.66699 6.16602 1 11.499l60 130c1.33301 4 3 7.66699 5 11c1.33301 3.33301 2.5 6.66602 3.5 9.99902
s1.5 6.33301 1.5 9s-0.5 5.66699 -1.5 9s-2.16699 6.66602 -3.5 9.99902c-2 3.33301 -3.66699 7 -5 11l-60 130c-2.66699 5.33301 -3 9.16602 -1 11.499s5.66699 3.5 11 3.5h30c5.33301 0 9.33301 -1.16699 12 -3.5s5.33398 -6.16602 8.00098 -11.499l60 -130
c1.33301 -4 3 -7.66699 5 -11c1.33301 -3.33301 2.5 -6.66602 3.5 -9.99902s1.5 -6.33301 1.5 -9z" />
    <glyph glyph-name="onequarter" unicode="&#xbc;" horiz-adv-x="590" 
d="M215 15c-3.33301 -10 -10 -15 -20 -15h-30c-10 0 -13.333 5 -10 15l170 670c2.66699 10 9.33398 15 20.001 15h30c9.33301 0 12.666 -5 9.99902 -15zM140 315c0 -10 -5 -15 -15 -15h-30c-10 0 -15 5 -15 15v325h-35c-10 0 -15 5 -15 15v30c0 10 5 15 15 15h80
c10 0 15 -5 15 -15v-370zM420 215c0 -10 4.99902 -14.999 14.999 -14.999h55v185c0 10 5 15 15 15h30c10 0 15 -5 15 -15v-370c0 -10 -5 -15 -15 -15h-30c-10 0 -15 5 -15 15v125h-70c-17.333 0 -31.666 5.66699 -42.999 17s-17 25.666 -17 42.999v185c0 10 5 15 15 15h30
c10 0 15 -5 15 -15v-170z" />
    <glyph glyph-name="onehalf" unicode="&#xbd;" horiz-adv-x="600" 
d="M215 15c-3.33301 -10 -10 -15 -20 -15h-30c-10 0 -13.333 5 -10 15l170 670c2.66699 10 9.33398 15 20.001 15h30c9.33301 0 12.666 -5 9.99902 -15zM140 315c0 -10 -5 -15 -15 -15h-30c-10 0 -15 5 -15 15v325h-35c-10 0 -15 5 -15 15v30c0 10 5 15 15 15h80
c10 0 15 -5 15 -15v-370zM360 95c0 25.333 4.16895 43.666 12.502 54.999s17.5 19.666 27.5 24.999l80 45c5.33301 2.66699 10 7 14 13s6 16.667 6 32v60c0 10 -5 15 -15 15h-50c-10 0 -15 -5 -15 -15v-45c0 -10 -5 -15 -15 -15h-30c-10 0 -15 5 -15 15v60
c0 17.333 5.66699 31.666 17 42.999s25.666 17 42.999 17h80c17.333 0 31.666 -5.66699 42.999 -17s17 -25.666 17 -42.999v-80c0 -25.333 -4.16699 -43.666 -12.5 -54.999s-17.5 -19.666 -27.5 -24.999l-80 -45c-5.33301 -2.66699 -10 -7 -14 -13s-6 -16.667 -6 -32v-30
h125c10 0 15 -5 15 -15v-30c0 -10 -5 -15 -15 -15h-170c-10 0 -15 5 -15 15v80z" />
    <glyph glyph-name="threequarters" unicode="&#xbe;" horiz-adv-x="640" 
d="M265 15c-3.33301 -10 -10 -15 -20 -15h-30c-10 0 -13.333 5 -10 15l170 670c2.66699 10 9.33398 15 20.001 15h30c9.33301 0 12.666 -5 9.99902 -15zM470 215c0 -10 4.99902 -14.999 14.999 -14.999h55v185c0 10 5 15 15 15h30c10 0 15 -5 15 -15v-370
c0 -10 -5 -15 -15 -15h-30c-10 0 -15 5 -15 15v125h-70c-17.333 0 -31.666 5.66699 -42.999 17s-17 25.666 -17 42.999v185c0 10 5 15 15 15h30c10 0 15 -5 15 -15v-170zM29.999 425.001c0 10 5 15 15 15h30c10 0 15 -5 15 -15v-50c0 -10 5 -15 15 -15h50c10 0 15 5 15 15
v90c0 10 -5 15 -15 15h-40c-10 0 -15 5 -15 15v30c0 10 5 15 15 15h40c10 0 15 5 15 15v70c0 10 -5 15 -15 15h-50c-10 0 -15 -5 -15 -15v-45c0 -10 -5 -15 -15 -15h-30c-10 0 -15 5 -15 15v60c0 17.333 5.66699 31.666 17 42.999s25.666 17 42.999 17h80
c17.333 0 31.666 -5.66699 42.999 -17s17 -25.666 17 -42.999v-80c0 -10 -1.83301 -18.333 -5.5 -25s-7.83398 -11.667 -12.501 -15c-5.33301 -4.66699 -11 -8 -17 -10c6 -2.66699 11.667 -6 17 -10c4.66699 -4 8.83398 -9.16699 12.501 -15.5s5.5 -14.5 5.5 -24.5v-100
c0 -17.333 -5.66699 -31.666 -17 -42.999s-25.666 -17 -42.999 -17h-80c-17.333 0 -31.666 5.66699 -42.999 17s-17 25.666 -17 42.999v65z" />
    <glyph glyph-name="questiondown" unicode="&#xbf;" horiz-adv-x="240" 
d="M160 175c0 -25.333 -4.16895 -44.333 -12.502 -57s-17.5 -23.667 -27.5 -33l-30 -25c-5.33301 -4.66699 -10 -10.334 -14 -17.001s-6 -17.667 -6 -33v-135c0 -10 5 -15 15 -15h70c10 0 15 5 15 15v75c0 10 5 15 15 15h30c10 0 15 -5 15 -15v-90
c0 -17.333 -5.66699 -31.666 -17 -42.999s-25.666 -17 -42.999 -17h-100c-17.333 0 -31.666 5.66699 -42.999 17s-17 25.666 -17 42.999v160c0 25.333 4.16699 44.333 12.5 57s17.5 23.667 27.5 33l30 25c5.33301 4.66699 10 10.334 14 17.001s6 17.667 6 33v60
c0 10 5 15 15 15h30c10 0 15 -5 15 -15v-70zM159.998 355c0 -10 -5 -15 -15 -15h-30c-10 0 -15 5 -15 15v30c0 10 5 15 15 15h30c10 0 15 -5 15 -15v-30z" />
    <glyph glyph-name="Agrave" unicode="&#xc0;" horiz-adv-x="300" 
d="M180 700c8.66699 0 13.667 -5 15 -15l85 -670c0 -10 -5 -15 -15 -15h-30c-9.33301 0 -14.333 5 -15 15l-15 115h-110l-15 -115c-1.33301 -10 -6.33301 -15 -15 -15h-30c-10 0 -15 5 -15 15l85 670c0.666992 10 5.66699 15 15 15h60zM200 190l-50 405l-50 -405h100z
M136 770c-5.33301 0 -9.33301 1.33105 -12 3.99805s-5.33398 6.33398 -8.00098 11.001l-55 90c-2.66699 4.66699 -3 8.33398 -1 11.001s5.66699 4 11 4h40c10 0 16.667 -5 20 -15l30 -90c2.66699 -10 -0.666016 -15 -9.99902 -15h-15z" />
    <glyph glyph-name="Aacute" unicode="&#xc1;" horiz-adv-x="300" 
d="M180 700c8.66699 0 13.667 -5 15 -15l85 -670c0 -10 -5 -15 -15 -15h-30c-9.33301 0 -14.333 5 -15 15l-15 115h-110l-15 -115c-1.33301 -10 -6.33301 -15 -15 -15h-30c-10 0 -15 5 -15 15l85 670c0.666992 10 5.66699 15 15 15h60zM200 190l-50 405l-50 -405h100z
M139 770c-10 0 -13.333 5.00195 -10 15.002l30 90c2.66699 10 9.33398 15 20.001 15h40c5.33301 0 9 -1.33301 11 -4s1.66699 -6.33398 -1 -11.001l-55 -90c-2.66699 -4.66699 -5.33398 -8.33398 -8.00098 -11.001s-6.66699 -4 -12 -4h-15z" />
    <glyph glyph-name="Acircumflex" unicode="&#xc2;" horiz-adv-x="300" 
d="M180 700c8.66699 0 13.667 -5 15 -15l85 -670c0 -10 -5 -15 -15 -15h-30c-9.33301 0 -14.333 5 -15 15l-15 115h-110l-15 -115c-1.33301 -10 -6.33301 -15 -15 -15h-30c-10 0 -15 5 -15 15l85 670c0.666992 10 5.66699 15 15 15h60zM200 190l-50 405l-50 -405h100z
M162 870c9.33301 0 17.667 -5 25 -15l50 -70c8 -10 6.33301 -15 -5 -15h-25c-5.33301 0 -9.5 1.16699 -12.5 3.5s-7.16699 6.16602 -12.5 11.499l-32 38l-32 -38c-5.33301 -5.33301 -9.5 -9.16602 -12.5 -11.499s-7.16699 -3.5 -12.5 -3.5h-25c-11.333 0 -13 5 -5 15l50 70
c6.66699 10 15 15 25 15h24z" />
    <glyph glyph-name="Atilde" unicode="&#xc3;" horiz-adv-x="300" 
d="M180 700c8.66699 0 13.667 -5 15 -15l85 -670c0 -10 -5 -15 -15 -15h-30c-9.33301 0 -14.333 5 -15 15l-15 115h-110l-15 -115c-1.33301 -10 -6.33301 -15 -15 -15h-30c-10 0 -15 5 -15 15l85 670c0.666992 10 5.66699 15 15 15h60zM200 190l-50 405l-50 -405h100z
M240 820c0 -15.333 -4.5 -27.5 -13.5 -36.5s-21.167 -13.5 -36.5 -13.5h-10c-10 0 -17.833 2.33301 -23.5 7s-11.167 10.667 -16.5 18l-5 10c-3.33301 5.33301 -6.16602 9.16602 -8.49902 11.499s-6.16602 3.5 -11.499 3.5c-10 0 -15 -5 -15 -15v-20c0 -10 -5 -15 -15 -15
h-10c-10 0 -15 5 -15 15v30c0 15.333 4.5 27.5 13.5 36.5s21.167 13.5 36.5 13.5h10c10 0 17.833 -2.33301 23.5 -7s11.167 -10.667 16.5 -18l5 -10c3.33301 -5.33301 6.16602 -9.16602 8.49902 -11.499s6.16602 -3.5 11.499 -3.5c10 0 15 5 15 15v20c0 10 5 15 15 15h10
c10 0 15 -5 15 -15v-30z" />
    <glyph glyph-name="Adieresis" unicode="&#xc4;" horiz-adv-x="300" 
d="M180 700c8.66699 0 13.667 -5 15 -15l85 -670c0 -10 -5 -15 -15 -15h-30c-9.33301 0 -14.333 5 -15 15l-15 115h-110l-15 -115c-1.33301 -10 -6.33301 -15 -15 -15h-30c-10 0 -15 5 -15 15l85 670c0.666992 10 5.66699 15 15 15h60zM200 190l-50 405l-50 -405h100z
M65 825c0 10 5 15 15 15h30c10 0 15 -5 15 -15v-30c0 -10 -5 -15 -15 -15h-30c-10 0 -15 5 -15 15v30zM175 825c0 10 5 15 15 15h30c10 0 15 -5 15 -15v-30c0 -10 -5 -15 -15 -15h-30c-10 0 -15 5 -15 15v30z" />
    <glyph glyph-name="Aring" unicode="&#xc5;" horiz-adv-x="300" 
d="M180 700c8.66699 0 13.667 -5 15 -15l85 -670c0 -10 -5 -15 -15 -15h-30c-9.33301 0 -14.333 5 -15 15l-15 115h-110l-15 -115c-1.33301 -10 -6.33301 -15 -15 -15h-30c-10 0 -15 5 -15 15l85 670c0.666992 10 5.66699 15 15 15h60zM200 190l-50 405l-50 -405h100z
M170 840c0 10 -5 15 -15 15h-10c-10 0 -15 -5 -15 -15v-10c0 -10 5 -15 15 -15h10c10 0 15 5 15 15v10zM215 830c0 -17.333 -5.66699 -31.666 -17 -42.999s-25.666 -17 -42.999 -17h-10c-17.333 0 -31.666 5.66699 -42.999 17s-17 25.666 -17 42.999v10
c0 17.333 5.66699 31.666 17 42.999s25.666 17 42.999 17h10c17.333 0 31.666 -5.66699 42.999 -17s17 -25.666 17 -42.999v-10z" />
    <glyph glyph-name="AE" unicode="&#xc6;" horiz-adv-x="400" 
d="M80 15c-1.33301 -10 -6.33301 -15 -15 -15h-30c-10 0 -15 5 -15 15l85 670c0.666992 10 5.66699 15 15 15h255c10 0 15 -5 15 -15v-30c0 -10 -5 -15 -15 -15h-125v-210h85c10 0 15 -5 15 -15v-30c0 -10 -5 -15 -15 -15h-85v-310h125c10 0 15 -5 15 -15v-30
c0 -10 -5 -15 -15 -15h-170c-10 0 -15 5 -15 15v115h-95zM100 190h90v450h-35z" />
    <glyph glyph-name="Ccedilla" unicode="&#xc7;" horiz-adv-x="300" 
d="M127 -170c-10 0 -15 4.99805 -15 14.998v15c0 10 5 15 15 15h40c10 0 15 5 15 15v10c0 10 -5 15 -15 15h-35c-10.667 0 -14 5 -10 15l22 70h-34c-17.333 0 -31.666 5.66699 -42.999 17s-17 25.666 -17 42.999v580c0 17.333 5.66699 31.666 17 42.999s25.666 17 42.999 17
h100c17.333 0 31.666 -5.66699 42.999 -17s17 -25.666 17 -42.999v-110c0 -10 -5 -15 -15 -15h-30c-10 0 -15 5 -15 15v95c0 10 -5 15 -15 15h-70c-10 0 -15 -5 -15 -15v-550c0 -10 5 -15 15 -15h70c10 0 15 5 15 15v100c0 10 5 15 15 15h30c10 0 15 -5 15 -15v-115
c0 -17.333 -5.66699 -31.666 -17 -42.999s-25.666 -17 -42.999 -17h-31l-12 -40c17.333 0 31.666 -5.66699 42.999 -17s17 -25.666 17 -42.999v-10c0 -17.333 -5.66699 -31.666 -17 -42.999s-25.666 -17 -42.999 -17h-40z" />
    <glyph glyph-name="Egrave" unicode="&#xc8;" horiz-adv-x="260" 
d="M50 685c0 10 5 15 15 15h170c10 0 15 -5 15 -15v-30c0 -10 -5 -15 -15 -15h-125v-210h85c10 0 15 -5 15 -15v-30c0 -10 -5 -15 -15 -15h-85v-310h125c10 0 15 -5 15 -15v-30c0 -10 -5 -15 -15 -15h-170c-10 0 -15 5 -15 15v670zM146 770
c-5.33301 0 -9.33301 1.33105 -12 3.99805s-5.33398 6.33398 -8.00098 11.001l-55 90c-2.66699 4.66699 -3 8.33398 -1 11.001s5.66699 4 11 4h40c10 0 16.667 -5 20 -15l30 -90c2.66699 -10 -0.666016 -15 -9.99902 -15h-15z" />
    <glyph glyph-name="Eacute" unicode="&#xc9;" horiz-adv-x="260" 
d="M50 685c0 10 5 15 15 15h170c10 0 15 -5 15 -15v-30c0 -10 -5 -15 -15 -15h-125v-210h85c10 0 15 -5 15 -15v-30c0 -10 -5 -15 -15 -15h-85v-310h125c10 0 15 -5 15 -15v-30c0 -10 -5 -15 -15 -15h-170c-10 0 -15 5 -15 15v670zM139 770
c-10 0 -13.333 5.00195 -10 15.002l30 90c2.66699 10 9.33398 15 20.001 15h40c5.33301 0 9 -1.33301 11 -4s1.66699 -6.33398 -1 -11.001l-55 -90c-2.66699 -4.66699 -5.33398 -8.33398 -8.00098 -11.001s-6.66699 -4 -12 -4h-15v0z" />
    <glyph glyph-name="Ecircumflex" unicode="&#xca;" horiz-adv-x="260" 
d="M50 685c0 10 5 15 15 15h170c10 0 15 -5 15 -15v-30c0 -10 -5 -15 -15 -15h-125v-210h85c10 0 15 -5 15 -15v-30c0 -10 -5 -15 -15 -15h-85v-310h125c10 0 15 -5 15 -15v-30c0 -10 -5 -15 -15 -15h-170c-10 0 -15 5 -15 15v670zM162 870c9.33301 0 17.667 -5 25 -15
l50 -70c8 -10 6.33301 -15 -5 -15h-25c-5.33301 0 -9.5 1.16699 -12.5 3.5s-7.16699 6.16602 -12.5 11.499l-32 38l-32 -38c-5.33301 -5.33301 -9.5 -9.16602 -12.5 -11.499s-7.16699 -3.5 -12.5 -3.5h-25c-11.333 0 -13 5 -5 15l50 70c6.66699 10 15 15 25 15h24z" />
    <glyph glyph-name="Edieresis" unicode="&#xcb;" horiz-adv-x="260" 
d="M50 685c0 10 5 15 15 15h170c10 0 15 -5 15 -15v-30c0 -10 -5 -15 -15 -15h-125v-210h85c10 0 15 -5 15 -15v-30c0 -10 -5 -15 -15 -15h-85v-310h125c10 0 15 -5 15 -15v-30c0 -10 -5 -15 -15 -15h-170c-10 0 -15 5 -15 15v670zM65 825c0 10 5 15 15 15h30
c10 0 15 -5 15 -15v-30c0 -10 -5 -15 -15 -15h-30c-10 0 -15 5 -15 15v30zM175 825c0 10 5 15 15 15h30c10 0 15 -5 15 -15v-30c0 -10 -5 -15 -15 -15h-30c-10 0 -15 5 -15 15v30z" />
    <glyph glyph-name="Igrave" unicode="&#xcc;" horiz-adv-x="161" 
d="M51 685c0 10 5 15 15 15h30c10 0 15 -5 15 -15v-670c0 -10 -5 -15 -15 -15h-30c-10 0 -15 5 -15 15v670zM78 770c-5.33301 0 -9.33301 1.33105 -12 3.99805s-5.33398 6.33398 -8.00098 11.001l-55 90c-2.66699 4.66699 -3 8.33398 -1 11.001s5.66699 4 11 4h40
c10 0 16.667 -5 20 -15l30 -90c2.66699 -10 -0.666016 -15 -9.99902 -15h-15z" />
    <glyph glyph-name="Iacute" unicode="&#xcd;" horiz-adv-x="166" 
d="M50 685c0 10 5 15 15 15h30c10 0 15 -5 15 -15v-670c0 -10 -5 -15 -15 -15h-30c-10 0 -15 5 -15 15v670zM74 770c-10 0 -13.333 5.00195 -10 15.002l30 90c2.66699 10 9.33398 15 20.001 15h40c5.33301 0 9 -1.33301 11 -4s1.66699 -6.33398 -1 -11.001l-55 -90
c-2.66699 -4.66699 -5.33398 -8.33398 -8.00098 -11.001s-6.66699 -4 -12 -4h-15v0z" />
    <glyph glyph-name="Icircumflex" unicode="&#xce;" horiz-adv-x="184" 
d="M62 685c0 10 5 15 15 15h30c10 0 15 -5 15 -15v-670c0 -10 -5 -15 -15 -15h-30c-10 0 -15 5 -15 15v670zM105 870c9.33301 0 17.667 -5 25 -15l50 -70c8 -10 6.33301 -15 -5 -15h-25c-5.33301 0 -9.5 1.16699 -12.5 3.5s-7.16699 6.16602 -12.5 11.499l-32 38l-32 -38
c-5.33301 -5.33301 -9.5 -9.16602 -12.5 -11.499s-7.16699 -3.5 -12.5 -3.5h-25c-11.333 0 -13 5 -5 15l50 70c6.66699 10 15 15 25 15h24z" />
    <glyph glyph-name="Idieresis" unicode="&#xcf;" horiz-adv-x="170" 
d="M55 685c0 10 5 15 15 15h30c10 0 15 -5 15 -15v-670c0 -10 -5 -15 -15 -15h-30c-10 0 -15 5 -15 15v670zM1 825c0 10 5 15 15 15h30c10 0 15 -5 15 -15v-30c0 -10 -5 -15 -15 -15h-30c-10 0 -15 5 -15 15v30zM111 825c0 10 5 15 15 15h30c10 0 15 -5 15 -15v-30
c0 -10 -5 -15 -15 -15h-30c-10 0 -15 5 -15 15v30z" />
    <glyph glyph-name="Eth" unicode="&#xd0;" horiz-adv-x="330" 
d="M60 330l-25 -0.00195312c-10 0 -15 5 -15 15v30c0 10 5 15 15 15h25v295c0 10 5 15 15 15h145c17.333 0 31.666 -5.66699 42.999 -17s17 -25.666 17 -42.999v-580c0 -17.333 -5.66699 -31.666 -17 -42.999s-25.666 -17 -42.999 -17h-145c-10 0 -15 5 -15 15v315z
M120 329.998v-270h85c10 0 15 5 15 15v550c0 10 -5 15 -15 15h-85v-250h25c10 0 15 -5 15 -15v-30c0 -10 -5 -15 -15 -15h-25z" />
    <glyph glyph-name="Ntilde" unicode="&#xd1;" horiz-adv-x="320" 
d="M110 560l-0.000976562 -545.001c0 -10 -5 -15 -15 -15h-30c-10 0 -15 5 -15 15v670c0 10 5 15 15 15h30c5.33301 0 9.33301 -1.16699 12 -3.5s5.33398 -6.16602 8.00098 -11.499l95 -220v220c0 10 5 15 15 15h30c10 0 15 -5 15 -15v-670c0 -10 -5 -15 -15 -15h-30
c-10 0 -15 5 -15 15v315zM249.999 819.999c0 -15.333 -4.5 -27.5 -13.5 -36.5s-21.167 -13.5 -36.5 -13.5h-10c-10 0 -17.833 2.33301 -23.5 7s-11.167 10.667 -16.5 18l-5 10c-3.33301 5.33301 -6.16602 9.16602 -8.49902 11.499s-6.16602 3.5 -11.499 3.5
c-10 0 -15 -5 -15 -15v-20c0 -10 -5 -15 -15 -15h-10c-10 0 -15 5 -15 15v30c0 15.333 4.5 27.5 13.5 36.5s21.167 13.5 36.5 13.5h10c10 0 17.833 -2.33301 23.5 -7s11.167 -10.667 16.5 -18l5 -10c3.33301 -5.33301 6.16602 -9.16602 8.49902 -11.499
s6.16602 -3.5 11.499 -3.5c10 0 15 5 15 15v20c0 10 5 15 15 15h10c10 0 15 -5 15 -15v-30z" />
    <glyph glyph-name="Ograve" unicode="&#xd2;" horiz-adv-x="320" 
d="M50 640c0 17.333 5.66699 31.666 17 42.999s25.666 17 42.999 17h100c17.333 0 31.666 -5.66699 42.999 -17s17 -25.666 17 -42.999v-580c0 -17.333 -5.66699 -31.666 -17 -42.999s-25.666 -17 -42.999 -17h-100c-17.333 0 -31.666 5.66699 -42.999 17
s-17 25.666 -17 42.999v580zM195 60c10 0 15 5 15 15v550c0 10 -5 15 -15 15h-70c-10 0 -15 -5 -15 -15v-550c0 -10 5 -15 15 -15h70zM156 770c-5.33301 0 -9.33301 1.33105 -12 3.99805s-5.33398 6.33398 -8.00098 11.001l-55 90c-2.66699 4.66699 -3 8.33398 -1 11.001
s5.66699 4 11 4h40c10 0 16.667 -5 20 -15l30 -90c2.66699 -10 -0.666016 -15 -9.99902 -15h-15z" />
    <glyph glyph-name="Oacute" unicode="&#xd3;" horiz-adv-x="320" 
d="M50 640c0 17.333 5.66699 31.666 17 42.999s25.666 17 42.999 17h100c17.333 0 31.666 -5.66699 42.999 -17s17 -25.666 17 -42.999v-580c0 -17.333 -5.66699 -31.666 -17 -42.999s-25.666 -17 -42.999 -17h-100c-17.333 0 -31.666 5.66699 -42.999 17
s-17 25.666 -17 42.999v580zM195 60c10 0 15 5 15 15v550c0 10 -5 15 -15 15h-70c-10 0 -15 -5 -15 -15v-550c0 -10 5 -15 15 -15h70zM149 770c-10 0 -13.333 5.00195 -10 15.002l30 90c2.66699 10 9.33398 15 20.001 15h40c5.33301 0 9 -1.33301 11 -4
s1.66699 -6.33398 -1 -11.001l-55 -90c-2.66699 -4.66699 -5.33398 -8.33398 -8.00098 -11.001s-6.66699 -4 -12 -4h-15v0z" />
    <glyph glyph-name="Ocircumflex" unicode="&#xd4;" horiz-adv-x="320" 
d="M50 640c0 17.333 5.66699 31.666 17 42.999s25.666 17 42.999 17h100c17.333 0 31.666 -5.66699 42.999 -17s17 -25.666 17 -42.999v-580c0 -17.333 -5.66699 -31.666 -17 -42.999s-25.666 -17 -42.999 -17h-100c-17.333 0 -31.666 5.66699 -42.999 17
s-17 25.666 -17 42.999v580zM195 60c10 0 15 5 15 15v550c0 10 -5 15 -15 15h-70c-10 0 -15 -5 -15 -15v-550c0 -10 5 -15 15 -15h70zM172 870c9.33301 0 17.667 -5 25 -15l50 -70c8 -10 6.33301 -15 -5 -15h-25c-5.33301 0 -9.5 1.16699 -12.5 3.5
s-7.16699 6.16602 -12.5 11.499l-32 38l-32 -38c-5.33301 -5.33301 -9.5 -9.16602 -12.5 -11.499s-7.16699 -3.5 -12.5 -3.5h-25c-11.333 0 -13 5 -5 15l50 70c6.66699 10 15 15 25 15h24z" />
    <glyph glyph-name="Otilde" unicode="&#xd5;" horiz-adv-x="320" 
d="M50 640c0 17.333 5.66699 31.666 17 42.999s25.666 17 42.999 17h100c17.333 0 31.666 -5.66699 42.999 -17s17 -25.666 17 -42.999v-580c0 -17.333 -5.66699 -31.666 -17 -42.999s-25.666 -17 -42.999 -17h-100c-17.333 0 -31.666 5.66699 -42.999 17
s-17 25.666 -17 42.999v580zM195 60c10 0 15 5 15 15v550c0 10 -5 15 -15 15h-70c-10 0 -15 -5 -15 -15v-550c0 -10 5 -15 15 -15h70zM250 820c0 -15.333 -4.5 -27.5 -13.5 -36.5s-21.167 -13.5 -36.5 -13.5h-10c-10 0 -17.833 2.33301 -23.5 7s-11.167 10.667 -16.5 18
l-5 10c-3.33301 5.33301 -6.16602 9.16602 -8.49902 11.499s-6.16602 3.5 -11.499 3.5c-10 0 -15 -5 -15 -15v-20c0 -10 -5 -15 -15 -15h-10c-10 0 -15 5 -15 15v30c0 15.333 4.5 27.5 13.5 36.5s21.167 13.5 36.5 13.5h10c10 0 17.833 -2.33301 23.5 -7
s11.167 -10.667 16.5 -18l5 -10c3.33301 -5.33301 6.16602 -9.16602 8.49902 -11.499s6.16602 -3.5 11.499 -3.5c10 0 15 5 15 15v20c0 10 5 15 15 15h10c10 0 15 -5 15 -15v-30z" />
    <glyph glyph-name="Odieresis" unicode="&#xd6;" horiz-adv-x="320" 
d="M50 640c0 17.333 5.66699 31.666 17 42.999s25.666 17 42.999 17h100c17.333 0 31.666 -5.66699 42.999 -17s17 -25.666 17 -42.999v-580c0 -17.333 -5.66699 -31.666 -17 -42.999s-25.666 -17 -42.999 -17h-100c-17.333 0 -31.666 5.66699 -42.999 17
s-17 25.666 -17 42.999v580zM195 60c10 0 15 5 15 15v550c0 10 -5 15 -15 15h-70c-10 0 -15 -5 -15 -15v-550c0 -10 5 -15 15 -15h70zM75 825c0 10 5 15 15 15h30c10 0 15 -5 15 -15v-30c0 -10 -5 -15 -15 -15h-30c-10 0 -15 5 -15 15v30zM185 825c0 10 5 15 15 15h30
c10 0 15 -5 15 -15v-30c0 -10 -5 -15 -15 -15h-30c-10 0 -15 5 -15 15v30z" />
    <glyph glyph-name="multiply" unicode="&#xd7;" horiz-adv-x="348" 
d="M129 270l-104.994 105c-2.66699 2.66699 -4 6.83398 -4 12.501s1.33301 9.83398 4 12.501l20 20c2.66699 2.66699 6.66699 4.16699 12 4.5s9.66602 -1.16699 12.999 -4.5l105 -105l105 105c3.33301 3.33301 7.66602 4.83301 12.999 4.5s9.33301 -1.83301 12 -4.5l20 -20
c2.66699 -2.66699 4 -6.83398 4 -12.501s-1.33301 -9.83398 -4 -12.501l-105 -105l105 -105c2.66699 -2.66699 4 -6.83398 4 -12.501s-1.33301 -9.83398 -4 -12.501l-20 -20c-2.66699 -2.66699 -6.83398 -4.16699 -12.501 -4.5s-9.83398 1.16699 -12.501 4.5l-105 105
l-105 -105c-2.66699 -3.33301 -6.83398 -4.83301 -12.501 -4.5s-9.83398 1.83301 -12.501 4.5l-20 20c-2.66699 2.66699 -4 6.83398 -4 12.501s1.33301 9.83398 4 12.501z" />
    <glyph glyph-name="Oslash" unicode="&#xd8;" horiz-adv-x="330" 
d="M55 352v288c0 17.333 5.66699 31.666 17 42.999s25.666 17 42.999 17h100c17.333 0 31.666 -5.66699 42.999 -17s17 -25.666 17 -42.999v-233l30 8c10 2.66699 15 -0.666016 15 -9.99902v-30c0 -10.667 -5 -17.334 -15 -20.001l-30 -8v-287
c0 -17.333 -5.66699 -31.666 -17 -42.999s-25.666 -17 -42.999 -17h-100c-17.333 0 -31.666 5.66699 -42.999 17s-17 25.666 -17 42.999v232l-30 -7c-10 -3.33301 -15 0 -15 10v30c0 10 5 16.667 15 20zM115 367l100 25v233c0 10 -5 15 -15 15h-70c-10 0 -15 -5 -15 -15
v-258zM200 60c10 0 15 5 15 15v257l-100 -25v-232c0 -10 5 -15 15 -15h70z" />
    <glyph glyph-name="Ugrave" unicode="&#xd9;" horiz-adv-x="320" 
d="M110 75c0 -10 4.99805 -15 14.998 -15h70c10 0 15 5 15 15v610c0 10 5 15 15 15h30c10 0 15 -5 15 -15v-625c0 -17.333 -5.66699 -31.666 -17 -42.999s-25.666 -17 -42.999 -17h-100c-17.333 0 -31.666 5.66699 -42.999 17s-17 25.666 -17 42.999v625c0 10 5 15 15 15h30
c10 0 15 -5 15 -15v-610zM155.998 770c-5.33301 0 -9.33301 1.33105 -12 3.99805s-5.33398 6.33398 -8.00098 11.001l-55 90c-2.66699 4.66699 -3 8.33398 -1 11.001s5.66699 4 11 4h40c10 0 16.667 -5 20 -15l30 -90c2.66699 -10 -0.666016 -15 -9.99902 -15h-15z" />
    <glyph glyph-name="Uacute" unicode="&#xda;" horiz-adv-x="320" 
d="M110 75c0 -10 4.99805 -15 14.998 -15h70c10 0 15 5 15 15v610c0 10 5 15 15 15h30c10 0 15 -5 15 -15v-625c0 -17.333 -5.66699 -31.666 -17 -42.999s-25.666 -17 -42.999 -17h-100c-17.333 0 -31.666 5.66699 -42.999 17s-17 25.666 -17 42.999v625c0 10 5 15 15 15h30
c10 0 15 -5 15 -15v-610zM148.998 770c-10 0 -13.333 5.00195 -10 15.002l30 90c2.66699 10 9.33398 15 20.001 15h40c5.33301 0 9 -1.33301 11 -4s1.66699 -6.33398 -1 -11.001l-55 -90c-2.66699 -4.66699 -5.33398 -8.33398 -8.00098 -11.001s-6.66699 -4 -12 -4h-15v0z
" />
    <glyph glyph-name="Ucircumflex" unicode="&#xdb;" horiz-adv-x="320" 
d="M110 75c0 -10 4.99805 -15 14.998 -15h70c10 0 15 5 15 15v610c0 10 5 15 15 15h30c10 0 15 -5 15 -15v-625c0 -17.333 -5.66699 -31.666 -17 -42.999s-25.666 -17 -42.999 -17h-100c-17.333 0 -31.666 5.66699 -42.999 17s-17 25.666 -17 42.999v625c0 10 5 15 15 15h30
c10 0 15 -5 15 -15v-610zM171.998 870c9.33301 0 17.667 -5 25 -15l50 -70c8 -10 6.33301 -15 -5 -15h-25c-5.33301 0 -9.5 1.16699 -12.5 3.5s-7.16699 6.16602 -12.5 11.499l-32 38l-32 -38c-5.33301 -5.33301 -9.5 -9.16602 -12.5 -11.499s-7.16699 -3.5 -12.5 -3.5h-25
c-11.333 0 -13 5 -5 15l50 70c6.66699 10 15 15 25 15h24z" />
    <glyph glyph-name="Udieresis" unicode="&#xdc;" horiz-adv-x="320" 
d="M110 75c0 -10 4.99805 -15 14.998 -15h70c10 0 15 5 15 15v610c0 10 5 15 15 15h30c10 0 15 -5 15 -15v-625c0 -17.333 -5.66699 -31.666 -17 -42.999s-25.666 -17 -42.999 -17h-100c-17.333 0 -31.666 5.66699 -42.999 17s-17 25.666 -17 42.999v625c0 10 5 15 15 15h30
c10 0 15 -5 15 -15v-610zM74.998 815c0 10 5 15 15 15h30c10 0 15 -5 15 -15v-30c0 -10 -5 -15 -15 -15h-30c-10 0 -15 5 -15 15v30zM184.998 815c0 10 5 15 15 15h30c10 0 15 -5 15 -15v-30c0 -10 -5 -15 -15 -15h-30c-10 0 -15 5 -15 15v30z" />
    <glyph glyph-name="Yacute" unicode="&#xdd;" horiz-adv-x="262" 
d="M116 0c-10 0 -15 5 -15 15v275l-90 395c-2 10 1.33301 15 10 15h30c11.333 0 18 -5 20 -15l60 -275l60 275c2 10 8.66699 15 20 15h30c8.66699 0 12 -5 10 -15l-90 -395v-275c0 -10 -5 -15 -15 -15h-30zM130 770c-10 0 -13.333 5.00195 -10 15.002l30 90
c2.66699 10 9.33398 15 20.001 15h40c5.33301 0 9 -1.33301 11 -4s1.66699 -6.33398 -1 -11.001l-55 -90c-2.66699 -4.66699 -5.33398 -8.33398 -8.00098 -11.001s-6.66699 -4 -12 -4h-15v0z" />
    <glyph glyph-name="Thorn" unicode="&#xde;" horiz-adv-x="310" 
d="M50 695c0 10 5 14.998 15 14.998h30c10 0 15 -5 15 -15v-85h100c17.333 0 31.666 -5.66699 42.999 -17s17 -25.666 17 -42.999v-400c0 -17.333 -5.66699 -31.666 -17 -42.999s-25.666 -17 -42.999 -17h-100v-85c0 -10 -5 -15 -15 -15h-30c-10 0 -15 5 -15 15v690z
M195 149.998c10 0 15 5 15 15v370c0 10 -5 15 -15 15h-85v-400h85z" />
    <glyph glyph-name="germandbls" unicode="&#xdf;" 
d="M165 60c10 0 15.001 5 15.001 15v260c0 10 -5 15 -15 15h-10c-10 0 -15 5 -15 15v30c0 10 5 15 15 15s15 5 15 15v200c0 10 -5 15 -15 15h-40c-10 0 -15 -5 -15 -15v-610c0 -10 -5 -15 -15 -15h-30c-10 0 -15 5 -15 15v625c0 17.333 5.66699 31.666 17 42.999
s25.666 17 42.999 17h70c17.333 0 31.666 -5.66699 42.999 -17s17 -25.666 17 -42.999v-210c0 -18.667 -3.66699 -31.5 -11 -38.5s-12 -10.833 -14 -11.5c1.33301 -0.666992 4 -1.83398 8 -3.50098s8 -4.5 12 -8.5s7.5 -9.16699 10.5 -15.5s4.5 -13.833 4.5 -22.5v-270
c0 -17.333 -5.66699 -31.666 -17 -42.999s-25.666 -17 -42.999 -17h-30c-10 0 -15 5 -15 15v30c0 10 5 15 15 15h15z" />
    <glyph glyph-name="agrave" unicode="&#xe0;" horiz-adv-x="275" 
d="M175 170h-65c-10 0 -15 -5 -15 -15v-80c0 -10 5 -15 15 -15h65v110zM95 0c-17.333 0 -31.6641 5.66895 -42.9971 17.002s-17 25.666 -17 42.999v110c0 17.333 5.66699 31.666 17 42.999s25.666 17 42.999 17h80v95c0 10 -5 15 -15 15h-50c-10 0 -15 -5 -15 -15v-40
c0 -10 -5 -15 -15 -15h-30c-10 0 -15 5 -15 15v55c0 17.333 5.66699 31.666 17 42.999s25.666 17 42.999 17h80c17.333 0 31.666 -5.66699 42.999 -17s17 -25.666 17 -42.999v-325c0 -10 -5 -15 -15 -15h-125zM131.002 481.002c-5.33301 0 -9.33301 1.33105 -12 3.99805
s-5.33398 6.33398 -8.00098 11.001l-55 90c-2.66699 4.66699 -3 8.33398 -1 11.001s5.66699 4 11 4h40c10 0 16.667 -5 20 -15l30 -90c2.66699 -10 -0.666016 -15 -9.99902 -15h-15z" />
    <glyph glyph-name="aacute" unicode="&#xe1;" horiz-adv-x="275" 
d="M175 170h-65c-10 0 -15 -5 -15 -15v-80c0 -10 5 -15 15 -15h65v110zM95 0c-17.333 0 -31.6641 5.66895 -42.9971 17.002s-17 25.666 -17 42.999v110c0 17.333 5.66699 31.666 17 42.999s25.666 17 42.999 17h80v95c0 10 -5 15 -15 15h-50c-10 0 -15 -5 -15 -15v-40
c0 -10 -5 -15 -15 -15h-30c-10 0 -15 5 -15 15v55c0 17.333 5.66699 31.666 17 42.999s25.666 17 42.999 17h80c17.333 0 31.666 -5.66699 42.999 -17s17 -25.666 17 -42.999v-325c0 -10 -5 -15 -15 -15h-125zM134.002 481.002c-10 0 -13.333 5.00195 -10 15.002l30 90
c2.66699 10 9.33398 15 20.001 15h40c5.33301 0 9 -1.33301 11 -4s1.66699 -6.33398 -1 -11.001l-55 -90c-2.66699 -4.66699 -5.33398 -8.33398 -8.00098 -11.001s-6.66699 -4 -12 -4h-15v0z" />
    <glyph glyph-name="acircumflex" unicode="&#xe2;" horiz-adv-x="275" 
d="M175 170h-65c-10 0 -15 -5 -15 -15v-80c0 -10 5 -15 15 -15h65v110zM95 0c-17.333 0 -31.6641 5.66895 -42.9971 17.002s-17 25.666 -17 42.999v110c0 17.333 5.66699 31.666 17 42.999s25.666 17 42.999 17h80v95c0 10 -5 15 -15 15h-50c-10 0 -15 -5 -15 -15v-40
c0 -10 -5 -15 -15 -15h-30c-10 0 -15 5 -15 15v55c0 17.333 5.66699 31.666 17 42.999s25.666 17 42.999 17h80c17.333 0 31.666 -5.66699 42.999 -17s17 -25.666 17 -42.999v-325c0 -10 -5 -15 -15 -15h-125zM147.002 581.002c9.33301 0 17.667 -5 25 -15l50 -70
c8 -10 6.33301 -15 -5 -15h-25c-5.33301 0 -9.5 1.16699 -12.5 3.5s-7.16699 6.16602 -12.5 11.499l-32 38l-32 -38c-5.33301 -5.33301 -9.5 -9.16602 -12.5 -11.499s-7.16699 -3.5 -12.5 -3.5h-25c-11.333 0 -13 5 -5 15l50 70c6.66699 10 15 15 25 15h24z" />
    <glyph glyph-name="atilde" unicode="&#xe3;" horiz-adv-x="275" 
d="M175 170h-65c-10 0 -15 -5 -15 -15v-80c0 -10 5 -15 15 -15h65v110zM95 0c-17.333 0 -31.6641 5.66895 -42.9971 17.002s-17 25.666 -17 42.999v110c0 17.333 5.66699 31.666 17 42.999s25.666 17 42.999 17h80v95c0 10 -5 15 -15 15h-50c-10 0 -15 -5 -15 -15v-40
c0 -10 -5 -15 -15 -15h-30c-10 0 -15 5 -15 15v55c0 17.333 5.66699 31.666 17 42.999s25.666 17 42.999 17h80c17.333 0 31.666 -5.66699 42.999 -17s17 -25.666 17 -42.999v-325c0 -10 -5 -15 -15 -15h-125zM225.002 531.002c0 -15.333 -4.5 -27.5 -13.5 -36.5
s-21.167 -13.5 -36.5 -13.5h-10c-10 0 -17.833 2.33301 -23.5 7s-11.167 10.667 -16.5 18l-5 10c-3.33301 5.33301 -6.16602 9.16602 -8.49902 11.499s-6.16602 3.5 -11.499 3.5c-10 0 -15 -5 -15 -15v-20c0 -10 -5 -15 -15 -15h-10c-10 0 -15 5 -15 15v30
c0 15.333 4.5 27.5 13.5 36.5s21.167 13.5 36.5 13.5h10c10 0 17.833 -2.33301 23.5 -7s11.167 -10.667 16.5 -18l5 -10c3.33301 -5.33301 6.16602 -9.16602 8.49902 -11.499s6.16602 -3.5 11.499 -3.5c10 0 15 5 15 15v20c0 10 5 15 15 15h10c10 0 15 -5 15 -15v-30z" />
    <glyph glyph-name="adieresis" unicode="&#xe4;" horiz-adv-x="275" 
d="M175 170h-65c-10 0 -15 -5 -15 -15v-80c0 -10 5 -15 15 -15h65v110zM95 0c-17.333 0 -31.6641 5.66895 -42.9971 17.002s-17 25.666 -17 42.999v110c0 17.333 5.66699 31.666 17 42.999s25.666 17 42.999 17h80v95c0 10 -5 15 -15 15h-50c-10 0 -15 -5 -15 -15v-40
c0 -10 -5 -15 -15 -15h-30c-10 0 -15 5 -15 15v55c0 17.333 5.66699 31.666 17 42.999s25.666 17 42.999 17h80c17.333 0 31.666 -5.66699 42.999 -17s17 -25.666 17 -42.999v-325c0 -10 -5 -15 -15 -15h-125zM50.002 536.002c0 10 5 15 15 15h30c10 0 15 -5 15 -15v-30
c0 -10 -5 -15 -15 -15h-30c-10 0 -15 5 -15 15v30zM160.002 536.002c0 10 5 15 15 15h30c10 0 15 -5 15 -15v-30c0 -10 -5 -15 -15 -15h-30c-10 0 -15 5 -15 15v30z" />
    <glyph glyph-name="aring" unicode="&#xe5;" horiz-adv-x="275" 
d="M175 170h-65c-10 0 -15 -5 -15 -15v-80c0 -10 5 -15 15 -15h65v110zM95 0c-17.333 0 -31.6641 5.66895 -42.9971 17.002s-17 25.666 -17 42.999v110c0 17.333 5.66699 31.666 17 42.999s25.666 17 42.999 17h80v95c0 10 -5 15 -15 15h-50c-10 0 -15 -5 -15 -15v-40
c0 -10 -5 -15 -15 -15h-30c-10 0 -15 5 -15 15v55c0 17.333 5.66699 31.666 17 42.999s25.666 17 42.999 17h80c17.333 0 31.666 -5.66699 42.999 -17s17 -25.666 17 -42.999v-325c0 -10 -5 -15 -15 -15h-125zM155.002 551.002c0 10 -5 15 -15 15h-10c-10 0 -15 -5 -15 -15
v-10c0 -10 5 -15 15 -15h10c10 0 15 5 15 15v10zM200.002 541.002c0 -17.333 -5.66699 -31.666 -17 -42.999s-25.666 -17 -42.999 -17h-10c-17.333 0 -31.666 5.66699 -42.999 17s-17 25.666 -17 42.999v10c0 17.333 5.66699 31.666 17 42.999s25.666 17 42.999 17h10
c17.333 0 31.666 -5.66699 42.999 -17s17 -25.666 17 -42.999v-10z" />
    <glyph glyph-name="ae" unicode="&#xe6;" horiz-adv-x="415" 
d="M235 230h80v95c0 10 -5 15 -15 15h-50c-10 0 -15 -5 -15 -15v-95zM175 325c0 10 -4.99902 15.001 -14.999 15.001h-50c-10 0 -15 -5 -15 -15v-40c0 -10 -5 -15 -15 -15h-30c-10 0 -15 5 -15 15v55c0 17.333 5.66699 31.666 17 42.999s25.666 17 42.999 17h60
c7.33301 0 14 -1 20 -3s11.333 -4.33301 16 -7c5.33301 -2.66699 10 -6 14 -10c4 4 8.66699 7.33301 14 10c4.66699 2.66699 10 5 16 7s12.667 3 20 3h60c17.333 0 31.666 -5.66699 42.999 -17s17 -25.666 17 -42.999v-155c0 -10 -5 -15 -15 -15h-125v-95
c0 -10 5 -15 15 -15h50c10 0 15 5 15 15v50c0 10 5 15 15 15h30c10 0 15 -5 15 -15v-65c0 -17.333 -5.66699 -31.666 -17 -42.999s-25.666 -17 -42.999 -17h-60c-7.33301 0 -14 1 -20 3s-11.333 4.33301 -16 7c-5.33301 2.66699 -10 6 -14 10
c-4 -4 -8.66699 -7.33301 -14 -10c-4.66699 -2.66699 -10 -5 -16 -7s-12.667 -3 -20 -3h-60c-17.333 0 -31.666 5.66699 -42.999 17s-17 25.666 -17 42.999v110c0 17.333 5.66699 31.666 17 42.999s25.666 17 42.999 17h80v95zM110.001 170.001c-10 0 -15 -5 -15 -15v-80
c0 -10 5 -15 15 -15h50c10 0 15 5 15 15v95h-65z" />
    <glyph glyph-name="ccedilla" unicode="&#xe7;" horiz-adv-x="275" 
d="M107 -170c-10 0 -15 4.99805 -15 14.998v15c0 10 5 15 15 15h40c10 0 15 5 15 15v10c0 10 -5 15 -15 15h-35c-10.667 0 -14 5 -10 15l22 70h-24c-17.333 0 -31.666 5.66699 -42.999 17s-17 25.666 -17 42.999v280c0 17.333 5.66699 31.666 17 42.999s25.666 17 42.999 17
h80c17.333 0 31.666 -5.66699 42.999 -17s17 -25.666 17 -42.999v-60c0 -10 -5 -15 -15 -15h-30c-10 0 -15 5 -15 15v45c0 10 -5 15 -15 15h-50c-10 0 -15 -5 -15 -15v-250c0 -10 5 -15 15 -15h50c10 0 15 5 15 15v50c0 10 5 15 15 15h30c10 0 15 -5 15 -15v-65
c0 -17.333 -5.66699 -31.666 -17 -42.999s-25.666 -17 -42.999 -17h-21l-12 -40c17.333 0 31.666 -5.66699 42.999 -17s17 -25.666 17 -42.999v-10c0 -17.333 -5.66699 -31.666 -17 -42.999s-25.666 -17 -42.999 -17h-40z" />
    <glyph glyph-name="egrave" unicode="&#xe8;" 
d="M240 60c0 -17.333 -5.66699 -31.666 -17 -42.999s-25.666 -17 -42.999 -17h-80c-17.333 0 -31.666 5.66699 -42.999 17s-17 25.666 -17 42.999v280c0 17.333 5.66699 31.666 17 42.999s25.666 17 42.999 17h80c17.333 0 31.666 -5.66699 42.999 -17
s17 -25.666 17 -42.999v-145c0 -10 -5 -15 -15 -15h-125v-105c0 -10 5 -15 15 -15h50c10 0 15 5 15 15v50c0 10 5 15 15 15h30c10 0 15 -5 15 -15v-65zM100 240h80v85c0 10 -5 15 -15 15h-50c-10 0 -15 -5 -15 -15v-85zM136 481c-5.33301 0 -9.33301 1.33105 -12 3.99805
s-5.33398 6.33398 -8.00098 11.001l-55 90c-2.66699 4.66699 -3 8.33398 -1 11.001s5.66699 4 11 4h40c10 0 16.667 -5 20 -15l30 -90c2.66699 -10 -0.666016 -15 -9.99902 -15h-15z" />
    <glyph glyph-name="eacute" unicode="&#xe9;" 
d="M240 60c0 -17.333 -5.66699 -31.666 -17 -42.999s-25.666 -17 -42.999 -17h-80c-17.333 0 -31.666 5.66699 -42.999 17s-17 25.666 -17 42.999v280c0 17.333 5.66699 31.666 17 42.999s25.666 17 42.999 17h80c17.333 0 31.666 -5.66699 42.999 -17
s17 -25.666 17 -42.999v-145c0 -10 -5 -15 -15 -15h-125v-105c0 -10 5 -15 15 -15h50c10 0 15 5 15 15v50c0 10 5 15 15 15h30c10 0 15 -5 15 -15v-65zM100 240h80v85c0 10 -5 15 -15 15h-50c-10 0 -15 -5 -15 -15v-85zM139 481c-10 0 -13.333 5.00195 -10 15.002l30 90
c2.66699 10 9.33398 15 20.001 15h40c5.33301 0 9 -1.33301 11 -4s1.66699 -6.33398 -1 -11.001l-55 -90c-2.66699 -4.66699 -5.33398 -8.33398 -8.00098 -11.001s-6.66699 -4 -12 -4h-15v0z" />
    <glyph glyph-name="ecircumflex" unicode="&#xea;" 
d="M240 60c0 -17.333 -5.66699 -31.666 -17 -42.999s-25.666 -17 -42.999 -17h-80c-17.333 0 -31.666 5.66699 -42.999 17s-17 25.666 -17 42.999v280c0 17.333 5.66699 31.666 17 42.999s25.666 17 42.999 17h80c17.333 0 31.666 -5.66699 42.999 -17
s17 -25.666 17 -42.999v-145c0 -10 -5 -15 -15 -15h-125v-105c0 -10 5 -15 15 -15h50c10 0 15 5 15 15v50c0 10 5 15 15 15h30c10 0 15 -5 15 -15v-65zM100 240h80v85c0 10 -5 15 -15 15h-50c-10 0 -15 -5 -15 -15v-85zM152 581c9.33301 0 17.667 -5 25 -15l50 -70
c8 -10 6.33301 -15 -5 -15h-25c-5.33301 0 -9.5 1.16699 -12.5 3.5s-7.16699 6.16602 -12.5 11.499l-32 38l-32 -38c-5.33301 -5.33301 -9.5 -9.16602 -12.5 -11.499s-7.16699 -3.5 -12.5 -3.5h-25c-11.333 0 -13 5 -5 15l50 70c6.66699 10 15 15 25 15h24z" />
    <glyph glyph-name="edieresis" unicode="&#xeb;" 
d="M240 60c0 -17.333 -5.66699 -31.666 -17 -42.999s-25.666 -17 -42.999 -17h-80c-17.333 0 -31.666 5.66699 -42.999 17s-17 25.666 -17 42.999v280c0 17.333 5.66699 31.666 17 42.999s25.666 17 42.999 17h80c17.333 0 31.666 -5.66699 42.999 -17
s17 -25.666 17 -42.999v-145c0 -10 -5 -15 -15 -15h-125v-105c0 -10 5 -15 15 -15h50c10 0 15 5 15 15v50c0 10 5 15 15 15h30c10 0 15 -5 15 -15v-65zM100 240h80v85c0 10 -5 15 -15 15h-50c-10 0 -15 -5 -15 -15v-85zM55 536c0 10 5 15 15 15h30c10 0 15 -5 15 -15v-30
c0 -10 -5 -15 -15 -15h-30c-10 0 -15 5 -15 15v30zM165 536c0 10 5 15 15 15h30c10 0 15 -5 15 -15v-30c0 -10 -5 -15 -15 -15h-30c-10 0 -15 5 -15 15v30z" />
    <glyph glyph-name="igrave" unicode="&#xec;" horiz-adv-x="141" 
d="M41 385c0 10 5 15 15 15h30c10 0 15 -5 15 -15v-370c0 -10 -5 -15 -15 -15h-30c-10 0 -15 5 -15 15v370zM68 481c-5.33301 0 -9.33301 1.33105 -12 3.99805s-5.33398 6.33398 -8.00098 11.001l-55 90c-2.66699 4.66699 -3 8.33398 -1 11.001s5.66699 4 11 4h40
c10 0 16.667 -5 20 -15l30 -90c2.66699 -10 -0.666016 -15 -9.99902 -15h-15z" />
    <glyph glyph-name="iacute" unicode="&#xed;" horiz-adv-x="141" 
d="M40 385c0 10 5 15 15 15h30c10 0 15 -5 15 -15v-370c0 -10 -5 -15 -15 -15h-30c-10 0 -15 5 -15 15v370zM59 481c-10 0 -13.333 5.00195 -10 15.002l30 90c2.66699 10 9.33398 15 20.001 15h40c5.33301 0 9 -1.33301 11 -4s1.66699 -6.33398 -1 -11.001l-55 -90
c-2.66699 -4.66699 -5.33398 -8.33398 -8.00098 -11.001s-6.66699 -4 -12 -4h-15v0z" />
    <glyph glyph-name="icircumflex" unicode="&#xee;" horiz-adv-x="144" 
d="M42 385c0 10 5 15 15 15h30c10 0 15 -5 15 -15v-370c0 -10 -5 -15 -15 -15h-30c-10 0 -15 5 -15 15v370zM85 581c9.33301 0 17.667 -5 25 -15l50 -70c8 -10 6.33301 -15 -5 -15h-25c-5.33301 0 -9.5 1.16699 -12.5 3.5s-7.16699 6.16602 -12.5 11.499l-32 38l-32 -38
c-5.33301 -5.33301 -9.5 -9.16602 -12.5 -11.499s-7.16699 -3.5 -12.5 -3.5h-25c-11.333 0 -13 5 -5 15l50 70c6.66699 10 15 15 25 15h24z" />
    <glyph glyph-name="idieresis" unicode="&#xef;" horiz-adv-x="150" 
d="M45 385c0 10 5 15 15 15h30c10 0 15 -5 15 -15v-370c0 -10 -5 -15 -15 -15h-30c-10 0 -15 5 -15 15v370zM-9 536c0 10 5 15 15 15h30c10 0 15 -5 15 -15v-30c0 -10 -5 -15 -15 -15h-30c-10 0 -15 5 -15 15v30zM101 536c0 10 5 15 15 15h30c10 0 15 -5 15 -15v-30
c0 -10 -5 -15 -15 -15h-30c-10 0 -15 5 -15 15v30z" />
    <glyph glyph-name="eth" unicode="&#xf0;" 
d="M85 525l-35.002 79.9971c-4 10 -0.666992 15 10 15h40c5.33301 0 9.33301 -1.16699 12 -3.5s5.33398 -6.16602 8.00098 -11.499l26 -55l54 30c5.33301 3.33301 9.16602 3.83301 11.499 1.5s3.5 -6.16602 3.5 -11.499v-35c0 -7.33301 -1.16699 -12.666 -3.5 -15.999
s-6.16602 -6.33301 -11.499 -9l-30 -15l55 -115c2 -6 4.33301 -12 7 -18c2 -5.33301 3.83301 -10.666 5.5 -15.999s2.5 -10.666 2.5 -15.999v-270c0 -17.333 -5.66699 -31.666 -17 -42.999s-25.666 -17 -42.999 -17h-80c-17.333 0 -31.666 5.66699 -42.999 17
s-17 25.666 -17 42.999v270c0 17.333 5.66699 31.666 17 42.999s25.666 17 42.999 17h50l-35 80l-60 -30c-5.33301 -2.66699 -9.16602 -3 -11.499 -1s-3.5 5.66699 -3.5 11v35c0 7.33301 1.16699 12.666 3.5 15.999s6.16602 6.33301 11.499 9zM179.998 314.997
c0 10 -5 15 -15 15h-50c-10 0 -15 -5 -15 -15v-240c0 -10 5 -15 15 -15h50c10 0 15 5 15 15v240z" />
    <glyph glyph-name="ntilde" unicode="&#xf1;" 
d="M180 325c0 10 -4.99902 14.999 -14.999 14.999h-65v-325c0 -10 -5 -15 -15 -15h-30c-10 0 -15 5 -15 15v370c0 10 5 15 15 15h125c17.333 0 31.666 -5.66699 42.999 -17s17 -25.666 17 -42.999v-325c0 -10 -5 -15 -15 -15h-30c-10 0 -15 5 -15 15v310zM230.001 530.999
c0 -15.333 -4.5 -27.5 -13.5 -36.5s-21.167 -13.5 -36.5 -13.5h-10c-10 0 -17.833 2.33301 -23.5 7s-11.167 10.667 -16.5 18l-5 10c-3.33301 5.33301 -6.16602 9.16602 -8.49902 11.499s-6.16602 3.5 -11.499 3.5c-10 0 -15 -5 -15 -15v-20c0 -10 -5 -15 -15 -15h-10
c-10 0 -15 5 -15 15v30c0 15.333 4.5 27.5 13.5 36.5s21.167 13.5 36.5 13.5h10c10 0 17.833 -2.33301 23.5 -7s11.167 -10.667 16.5 -18l5 -10c3.33301 -5.33301 6.16602 -9.16602 8.49902 -11.499s6.16602 -3.5 11.499 -3.5c10 0 15 5 15 15v20c0 10 5 15 15 15h10
c10 0 15 -5 15 -15v-30z" />
    <glyph glyph-name="ograve" unicode="&#xf2;" 
d="M180 325c0 10 -5 15 -15 15h-50c-10 0 -15 -5 -15 -15v-250c0 -10 5 -15 15 -15h50c10 0 15 5 15 15v250zM240 60c0 -17.333 -5.66699 -31.666 -17 -42.999s-25.666 -17 -42.999 -17h-80c-17.333 0 -31.666 5.66699 -42.999 17s-17 25.666 -17 42.999v280
c0 17.333 5.66699 31.666 17 42.999s25.666 17 42.999 17h80c17.333 0 31.666 -5.66699 42.999 -17s17 -25.666 17 -42.999v-280zM136 481c-5.33301 0 -9.33301 1.33105 -12 3.99805s-5.33398 6.33398 -8.00098 11.001l-55 90c-2.66699 4.66699 -3 8.33398 -1 11.001
s5.66699 4 11 4h40c10 0 16.667 -5 20 -15l30 -90c2.66699 -10 -0.666016 -15 -9.99902 -15h-15z" />
    <glyph glyph-name="oacute" unicode="&#xf3;" 
d="M180 325c0 10 -5 15 -15 15h-50c-10 0 -15 -5 -15 -15v-250c0 -10 5 -15 15 -15h50c10 0 15 5 15 15v250zM240 60c0 -17.333 -5.66699 -31.666 -17 -42.999s-25.666 -17 -42.999 -17h-80c-17.333 0 -31.666 5.66699 -42.999 17s-17 25.666 -17 42.999v280
c0 17.333 5.66699 31.666 17 42.999s25.666 17 42.999 17h80c17.333 0 31.666 -5.66699 42.999 -17s17 -25.666 17 -42.999v-280zM129 481c-10 0 -13.333 5.00195 -10 15.002l30 90c2.66699 10 9.33398 15 20.001 15h40c5.33301 0 9 -1.33301 11 -4
s1.66699 -6.33398 -1 -11.001l-55 -90c-2.66699 -4.66699 -5.33398 -8.33398 -8.00098 -11.001s-6.66699 -4 -12 -4h-15v0z" />
    <glyph glyph-name="ocircumflex" unicode="&#xf4;" 
d="M180 325c0 10 -5 15 -15 15h-50c-10 0 -15 -5 -15 -15v-250c0 -10 5 -15 15 -15h50c10 0 15 5 15 15v250zM240 60c0 -17.333 -5.66699 -31.666 -17 -42.999s-25.666 -17 -42.999 -17h-80c-17.333 0 -31.666 5.66699 -42.999 17s-17 25.666 -17 42.999v280
c0 17.333 5.66699 31.666 17 42.999s25.666 17 42.999 17h80c17.333 0 31.666 -5.66699 42.999 -17s17 -25.666 17 -42.999v-280zM152 581c9.33301 0 17.667 -5 25 -15l50 -70c8 -10 6.33301 -15 -5 -15h-25c-5.33301 0 -9.5 1.16699 -12.5 3.5
s-7.16699 6.16602 -12.5 11.499l-32 38l-32 -38c-5.33301 -5.33301 -9.5 -9.16602 -12.5 -11.499s-7.16699 -3.5 -12.5 -3.5h-25c-11.333 0 -13 5 -5 15l50 70c6.66699 10 15 15 25 15h24z" />
    <glyph glyph-name="otilde" unicode="&#xf5;" 
d="M180 325c0 10 -5 15 -15 15h-50c-10 0 -15 -5 -15 -15v-250c0 -10 5 -15 15 -15h50c10 0 15 5 15 15v250zM240 60c0 -17.333 -5.66699 -31.666 -17 -42.999s-25.666 -17 -42.999 -17h-80c-17.333 0 -31.666 5.66699 -42.999 17s-17 25.666 -17 42.999v280
c0 17.333 5.66699 31.666 17 42.999s25.666 17 42.999 17h80c17.333 0 31.666 -5.66699 42.999 -17s17 -25.666 17 -42.999v-280zM230 531c0 -15.333 -4.5 -27.5 -13.5 -36.5s-21.167 -13.5 -36.5 -13.5h-10c-10 0 -17.833 2.33301 -23.5 7s-11.167 10.667 -16.5 18l-5 10
c-3.33301 5.33301 -6.16602 9.16602 -8.49902 11.499s-6.16602 3.5 -11.499 3.5c-10 0 -15 -5 -15 -15v-20c0 -10 -5 -15 -15 -15h-10c-10 0 -15 5 -15 15v30c0 15.333 4.5 27.5 13.5 36.5s21.167 13.5 36.5 13.5h10c10 0 17.833 -2.33301 23.5 -7s11.167 -10.667 16.5 -18
l5 -10c3.33301 -5.33301 6.16602 -9.16602 8.49902 -11.499s6.16602 -3.5 11.499 -3.5c10 0 15 5 15 15v20c0 10 5 15 15 15h10c10 0 15 -5 15 -15v-30z" />
    <glyph glyph-name="odieresis" unicode="&#xf6;" 
d="M180 325c0 10 -5 15 -15 15h-50c-10 0 -15 -5 -15 -15v-250c0 -10 5 -15 15 -15h50c10 0 15 5 15 15v250zM240 60c0 -17.333 -5.66699 -31.666 -17 -42.999s-25.666 -17 -42.999 -17h-80c-17.333 0 -31.666 5.66699 -42.999 17s-17 25.666 -17 42.999v280
c0 17.333 5.66699 31.666 17 42.999s25.666 17 42.999 17h80c17.333 0 31.666 -5.66699 42.999 -17s17 -25.666 17 -42.999v-280zM55 536c0 10 5 15 15 15h30c10 0 15 -5 15 -15v-30c0 -10 -5 -15 -15 -15h-30c-10 0 -15 5 -15 15v30zM165 536c0 10 5 15 15 15h30
c10 0 15 -5 15 -15v-30c0 -10 -5 -15 -15 -15h-30c-10 0 -15 5 -15 15v30z" />
    <glyph glyph-name="divide" unicode="&#xf7;" horiz-adv-x="320" 
d="M35 240c-10 0 -15 5 -15 15v30c0 10 5 15 15 15h250c10 0 15 -5 15 -15v-30c0 -10 -5 -15 -15 -15h-250zM190 105c0 -10 -5 -15 -15 -15h-30c-10 0 -15 5 -15 15v30c0 10 5 15 15 15h30c10 0 15 -5 15 -15v-30zM190 405c0 -10 -5 -15 -15 -15h-30c-10 0 -15 5 -15 15v30
c0 10 5 15 15 15h30c10 0 15 -5 15 -15v-30z" />
    <glyph glyph-name="oslash" unicode="&#xf8;" horiz-adv-x="310" 
d="M55 205v135c0 17.333 5.66699 31.666 17 42.999s25.666 17 42.999 17h80c17.333 0 31.666 -5.66699 42.999 -17s17 -25.666 17 -42.999v-85l20 5c10 2.66699 15 -0.666016 15 -9.99902v-30c0 -10.667 -5 -17.334 -15 -20.001l-20 -5v-135
c0 -17.333 -5.66699 -31.666 -17 -42.999s-25.666 -17 -42.999 -17h-80c-17.333 0 -31.666 5.66699 -42.999 17s-17 25.666 -17 42.999v85l-20 -5c-10 -3.33301 -15 0 -15 10v30c0 10 5 16.667 15 20zM115 220l80 20v85c0 10 -5 15 -15 15h-50c-10 0 -15 -5 -15 -15v-105z
M195 180l-80 -20v-85c0 -10 5 -15 15 -15h50c10 0 15 5 15 15v105z" />
    <glyph glyph-name="ugrave" unicode="&#xf9;" 
d="M100 75c0 -10 4.99902 -14.999 14.999 -14.999h65v325c0 10 5 15 15 15h30c10 0 15 -5 15 -15v-370c0 -10 -5 -15 -15 -15h-125c-17.333 0 -31.666 5.66699 -42.999 17s-17 25.666 -17 42.999v325c0 10 5 15 15 15h30c10 0 15 -5 15 -15v-310zM135.999 481.001
c-5.33301 0 -9.33301 1.33105 -12 3.99805s-5.33398 6.33398 -8.00098 11.001l-55 90c-2.66699 4.66699 -3 8.33398 -1 11.001s5.66699 4 11 4h40c10 0 16.667 -5 20 -15l30 -90c2.66699 -10 -0.666016 -15 -9.99902 -15h-15z" />
    <glyph glyph-name="uacute" unicode="&#xfa;" 
d="M100 75c0 -10 4.99902 -14.999 14.999 -14.999h65v325c0 10 5 15 15 15h30c10 0 15 -5 15 -15v-370c0 -10 -5 -15 -15 -15h-125c-17.333 0 -31.666 5.66699 -42.999 17s-17 25.666 -17 42.999v325c0 10 5 15 15 15h30c10 0 15 -5 15 -15v-310zM133.999 481.001
c-10 0 -13.333 5.00195 -10 15.002l30 90c2.66699 10 9.33398 15 20.001 15h40c5.33301 0 9 -1.33301 11 -4s1.66699 -6.33398 -1 -11.001l-55 -90c-2.66699 -4.66699 -5.33398 -8.33398 -8.00098 -11.001s-6.66699 -4 -12 -4h-15v0z" />
    <glyph glyph-name="ucircumflex" unicode="&#xfb;" 
d="M100 75c0 -10 4.99902 -14.999 14.999 -14.999h65v325c0 10 5 15 15 15h30c10 0 15 -5 15 -15v-370c0 -10 -5 -15 -15 -15h-125c-17.333 0 -31.666 5.66699 -42.999 17s-17 25.666 -17 42.999v325c0 10 5 15 15 15h30c10 0 15 -5 15 -15v-310zM151.999 581.001
c9.33301 0 17.667 -5 25 -15l50 -70c8 -10 6.33301 -15 -5 -15h-25c-5.33301 0 -9.5 1.16699 -12.5 3.5s-7.16699 6.16602 -12.5 11.499l-32 38l-32 -38c-5.33301 -5.33301 -9.5 -9.16602 -12.5 -11.499s-7.16699 -3.5 -12.5 -3.5h-25c-11.333 0 -13 5 -5 15l50 70
c6.66699 10 15 15 25 15h24z" />
    <glyph glyph-name="udieresis" unicode="&#xfc;" 
d="M100 75c0 -10 4.99902 -14.999 14.999 -14.999h65v325c0 10 5 15 15 15h30c10 0 15 -5 15 -15v-370c0 -10 -5 -15 -15 -15h-125c-17.333 0 -31.666 5.66699 -42.999 17s-17 25.666 -17 42.999v325c0 10 5 15 15 15h30c10 0 15 -5 15 -15v-310zM54.999 536.001
c0 10 5 15 15 15h30c10 0 15 -5 15 -15v-30c0 -10 -5 -15 -15 -15h-30c-10 0 -15 5 -15 15v30zM164.999 536.001c0 10 5 15 15 15h30c10 0 15 -5 15 -15v-30c0 -10 -5 -15 -15 -15h-30c-10 0 -15 5 -15 15v30z" />
    <glyph glyph-name="yacute" unicode="&#xfd;" 
d="M40 -75c0 10 4.99707 15.001 14.9971 15.001h30c10 0 15 -5 15 -15v-50c0 -10 5 -15 15 -15h50c10 0 15 5 15 15v125h-80c-17.333 0 -31.666 5.66699 -42.999 17s-17 25.666 -17 42.999v325c0 10 5 15 15 15h30c10 0 15 -5 15 -15v-310c0 -10 5 -15 15 -15h65v325
c0 10 5 15 15 15h30c10 0 15 -5 15 -15v-525c0 -17.333 -5.66699 -31.666 -17 -42.999s-25.666 -17 -42.999 -17h-80c-17.333 0 -31.666 5.66699 -42.999 17s-17 25.666 -17 42.999v65v0zM128.997 481.001c-10 0 -13.333 5.00195 -10 15.002l30 90
c2.66699 10 9.33398 15 20.001 15h40c5.33301 0 9 -1.33301 11 -4s1.66699 -6.33398 -1 -11.001l-55 -90c-2.66699 -4.66699 -5.33398 -8.33398 -8.00098 -11.001s-6.66699 -4 -12 -4h-15v0z" />
    <glyph glyph-name="thorn" unicode="&#xfe;" 
d="M40 685c0 10 5 14.998 15 14.998h30c10 0 15 -5 15 -15v-285h80c17.333 0 31.666 -5.66699 42.999 -17s17 -25.666 17 -42.999v-280c0 -17.333 -5.66699 -31.666 -17 -42.999s-25.666 -17 -42.999 -17h-80v-185c0 -10 -5 -15 -15 -15h-30c-10 0 -15 5 -15 15v870z
M180 324.998c0 10 -5 15 -15 15h-65v-280h65c10 0 15 5 15 15v250z" />
    <glyph glyph-name="ydieresis" unicode="&#xff;" 
d="M40 -75c0 10 4.99707 15.001 14.9971 15.001h30c10 0 15 -5 15 -15v-50c0 -10 5 -15 15 -15h50c10 0 15 5 15 15v125h-80c-17.333 0 -31.666 5.66699 -42.999 17s-17 25.666 -17 42.999v325c0 10 5 15 15 15h30c10 0 15 -5 15 -15v-310c0 -10 5 -15 15 -15h65v325
c0 10 5 15 15 15h30c10 0 15 -5 15 -15v-525c0 -17.333 -5.66699 -31.666 -17 -42.999s-25.666 -17 -42.999 -17h-80c-17.333 0 -31.666 5.66699 -42.999 17s-17 25.666 -17 42.999v65v0zM54.9971 526.001c0 10 5 15 15 15h30c10 0 15 -5 15 -15v-30c0 -10 -5 -15 -15 -15
h-30c-10 0 -15 5 -15 15v30zM164.997 526.001c0 10 5 15 15 15h30c10 0 15 -5 15 -15v-30c0 -10 -5 -15 -15 -15h-30c-10 0 -15 5 -15 15v30z" />
    <glyph glyph-name="Amacron" unicode="&#x100;" horiz-adv-x="300" 
d="M180 700c8.66699 0 13.667 -5 15 -15l85 -670c0 -10 -5 -15 -15 -15h-30c-9.33301 0 -14.333 5 -15 15l-15 115h-110l-15 -115c-1.33301 -10 -6.33301 -15 -15 -15h-30c-10 0 -15 5 -15 15l85 670c0.666992 10 5.66699 15 15 15h60zM200 190l-50 405l-50 -405h100z
M70 780c-10 0 -15 5 -15 15v30c0 10 5 15 15 15h160c10 0 15 -5 15 -15v-30c0 -10 -5 -15 -15 -15h-160z" />
    <glyph glyph-name="amacron" unicode="&#x101;" horiz-adv-x="275" 
d="M175 170h-65c-10 0 -15 -5 -15 -15v-80c0 -10 5 -15 15 -15h65v110zM95 0c-17.333 0 -31.6641 5.66895 -42.9971 17.002s-17 25.666 -17 42.999v110c0 17.333 5.66699 31.666 17 42.999s25.666 17 42.999 17h80v95c0 10 -5 15 -15 15h-50c-10 0 -15 -5 -15 -15v-40
c0 -10 -5 -15 -15 -15h-30c-10 0 -15 5 -15 15v55c0 17.333 5.66699 31.666 17 42.999s25.666 17 42.999 17h80c17.333 0 31.666 -5.66699 42.999 -17s17 -25.666 17 -42.999v-325c0 -10 -5 -15 -15 -15h-125zM55.002 491.002c-10 0 -15 5 -15 15v30c0 10 5 15 15 15h160
c10 0 15 -5 15 -15v-30c0 -10 -5 -15 -15 -15h-160z" />
    <glyph glyph-name="Abreve" unicode="&#x102;" horiz-adv-x="300" 
d="M180 700c8.66699 0 13.667 -5 15 -15l85 -670c0 -10 -5 -15 -15 -15h-30c-9.33301 0 -14.333 5 -15 15l-15 115h-110l-15 -115c-1.33301 -10 -6.33301 -15 -15 -15h-30c-10 0 -15 5 -15 15l85 670c0.666992 10 5.66699 15 15 15h60zM200 190l-50 405l-50 -405h100z
M190 855c0 10 4.99805 15 14.998 15h20c10 0 15 -5 15 -15v-25c0 -17.333 -5.66699 -31.666 -17 -42.999s-25.666 -17 -42.999 -17h-60c-17.333 0 -31.666 5.66699 -42.999 17s-17 25.666 -17 42.999v25c0 10 5 15 15 15h20c10 0 15 -5 15 -15v-20c0 -10 5 -15 15 -15h50
c10 0 15 5 15 15v20z" />
    <glyph glyph-name="abreve" unicode="&#x103;" horiz-adv-x="275" 
d="M175 170h-65c-10 0 -15 -5 -15 -15v-80c0 -10 5 -15 15 -15h65v110zM95 0c-17.333 0 -31.6641 5.66895 -42.9971 17.002s-17 25.666 -17 42.999v110c0 17.333 5.66699 31.666 17 42.999s25.666 17 42.999 17h80v95c0 10 -5 15 -15 15h-50c-10 0 -15 -5 -15 -15v-40
c0 -10 -5 -15 -15 -15h-30c-10 0 -15 5 -15 15v55c0 17.333 5.66699 31.666 17 42.999s25.666 17 42.999 17h80c17.333 0 31.666 -5.66699 42.999 -17s17 -25.666 17 -42.999v-325c0 -10 -5 -15 -15 -15h-125zM175.002 566.002c0 10 4.99805 15 14.998 15h20
c10 0 15 -5 15 -15v-25c0 -17.333 -5.66699 -31.666 -17 -42.999s-25.666 -17 -42.999 -17h-60c-17.333 0 -31.666 5.66699 -42.999 17s-17 25.666 -17 42.999v25c0 10 5 15 15 15h20c10 0 15 -5 15 -15v-20c0 -10 5 -15 15 -15h50c10 0 15 5 15 15v20z" />
    <glyph glyph-name="Aogonek" unicode="&#x104;" horiz-adv-x="300" 
d="M220 -160c-17.333 0 -31.667 5.66797 -43 17.001s-17 25.666 -17 42.999c0 15.333 4.33301 28.833 13 40.5s18.334 22.167 29.001 31.5c12 10 26.333 19.333 43 28h-10c-9.33301 0 -14.333 5 -15 15l-15 115h-110l-15 -115c-1.33301 -10 -6.33301 -15 -15 -15h-30
c-10 0 -15 5 -15 15l85 670c0.666992 10 5.66699 15 15 15h60c8.66699 0 13.667 -5 15 -15l85 -670c0 -8.66699 -3.83301 -16.167 -11.5 -22.5l-26 -21.5c-9.66699 -8 -18.334 -17.333 -26.001 -28s-11.5 -25 -11.5 -43c0 -10 5 -15 15 -15h30c10 0 15 -5 15 -15v-15
c0 -10 -5 -15 -15 -15h-30zM199.999 190.001l-50 405l-50 -405h100z" />
    <glyph glyph-name="aogonek" unicode="&#x105;" horiz-adv-x="275" 
d="M175 -160c-17.333 0 -31.6641 5.67188 -42.9971 17.0049s-17 25.666 -17 42.999c0 15.333 4.33301 28.833 13 40.5s18.334 22.167 29.001 31.5c12 10 26.333 19.333 43 28h-105c-17.333 0 -31.666 5.66699 -42.999 17s-17 25.666 -17 42.999v110
c0 17.333 5.66699 31.666 17 42.999s25.666 17 42.999 17h80v95c0 10 -5 15 -15 15h-50c-10 0 -15 -5 -15 -15v-40c0 -10 -5 -15 -15 -15h-30c-10 0 -15 5 -15 15v55c0 17.333 5.66699 31.666 17 42.999s25.666 17 42.999 17h80c17.333 0 31.666 -5.66699 42.999 -17
s17 -25.666 17 -42.999v-325c0 -8.66699 -3.83301 -16.334 -11.5 -23.001s-16.334 -13.834 -26.001 -21.501s-18.334 -17 -26.001 -28s-11.5 -25.167 -11.5 -42.5c0 -10 5 -15 15 -15h30c10 0 15 -5 15 -15v-15c0 -10 -5 -15 -15 -15h-30zM175.002 170.005h-65
c-10 0 -15 -5 -15 -15v-80c0 -10 5 -15 15 -15h65v110z" />
    <glyph glyph-name="Cacute" unicode="&#x106;" horiz-adv-x="300" 
d="M270 60c0 -17.333 -5.66699 -31.666 -17 -42.999s-25.666 -17 -42.999 -17h-100c-17.333 0 -31.666 5.66699 -42.999 17s-17 25.666 -17 42.999v580c0 17.333 5.66699 31.666 17 42.999s25.666 17 42.999 17h100c17.333 0 31.666 -5.66699 42.999 -17
s17 -25.666 17 -42.999v-110c0 -10 -5 -15 -15 -15h-30c-10 0 -15 5 -15 15v95c0 10 -5 15 -15 15h-70c-10 0 -15 -5 -15 -15v-550c0 -10 5 -15 15 -15h70c10 0 15 5 15 15v100c0 10 5 15 15 15h30c10 0 15 -5 15 -15v-115zM149 770c-10 0 -13.333 5.00195 -10 15.002l30 90
c2.66699 10 9.33398 15 20.001 15h40c5.33301 0 9 -1.33301 11 -4s1.66699 -6.33398 -1 -11.001l-55 -90c-2.66699 -4.66699 -5.33398 -8.33398 -8.00098 -11.001s-6.66699 -4 -12 -4h-15v0z" />
    <glyph glyph-name="cacute" unicode="&#x107;" horiz-adv-x="275" 
d="M240 60c0 -17.333 -5.66699 -31.666 -17 -42.999s-25.666 -17 -42.999 -17h-80c-17.333 0 -31.666 5.66699 -42.999 17s-17 25.666 -17 42.999v280c0 17.333 5.66699 31.666 17 42.999s25.666 17 42.999 17h80c17.333 0 31.666 -5.66699 42.999 -17
s17 -25.666 17 -42.999v-60c0 -10 -5 -15 -15 -15h-30c-10 0 -15 5 -15 15v45c0 10 -5 15 -15 15h-50c-10 0 -15 -5 -15 -15v-250c0 -10 5 -15 15 -15h50c10 0 15 5 15 15v50c0 10 5 15 15 15h30c10 0 15 -5 15 -15v-65zM129 481c-10 0 -13.333 5.00195 -10 15.002l30 90
c2.66699 10 9.33398 15 20.001 15h40c5.33301 0 9 -1.33301 11 -4s1.66699 -6.33398 -1 -11.001l-55 -90c-2.66699 -4.66699 -5.33398 -8.33398 -8.00098 -11.001s-6.66699 -4 -12 -4h-15v0z" />
    <glyph glyph-name="Ccircumflex" unicode="&#x108;" horiz-adv-x="300" 
d="M270 60c0 -17.333 -5.66699 -31.666 -17 -42.999s-25.666 -17 -42.999 -17h-100c-17.333 0 -31.666 5.66699 -42.999 17s-17 25.666 -17 42.999v580c0 17.333 5.66699 31.666 17 42.999s25.666 17 42.999 17h100c17.333 0 31.666 -5.66699 42.999 -17
s17 -25.666 17 -42.999v-110c0 -10 -5 -15 -15 -15h-30c-10 0 -15 5 -15 15v95c0 10 -5 15 -15 15h-70c-10 0 -15 -5 -15 -15v-550c0 -10 5 -15 15 -15h70c10 0 15 5 15 15v100c0 10 5 15 15 15h30c10 0 15 -5 15 -15v-115zM172 870c9.33301 0 17.667 -5 25 -15l50 -70
c8 -10 6.33301 -15 -5 -15h-25c-5.33301 0 -9.5 1.16699 -12.5 3.5s-7.16699 6.16602 -12.5 11.499l-32 38l-32 -38c-5.33301 -5.33301 -9.5 -9.16602 -12.5 -11.499s-7.16699 -3.5 -12.5 -3.5h-25c-11.333 0 -13 5 -5 15l50 70c6.66699 10 15 15 25 15h24z" />
    <glyph glyph-name="ccircumflex" unicode="&#x109;" horiz-adv-x="275" 
d="M240 60c0 -17.333 -5.66699 -31.666 -17 -42.999s-25.666 -17 -42.999 -17h-80c-17.333 0 -31.666 5.66699 -42.999 17s-17 25.666 -17 42.999v280c0 17.333 5.66699 31.666 17 42.999s25.666 17 42.999 17h80c17.333 0 31.666 -5.66699 42.999 -17
s17 -25.666 17 -42.999v-60c0 -10 -5 -15 -15 -15h-30c-10 0 -15 5 -15 15v45c0 10 -5 15 -15 15h-50c-10 0 -15 -5 -15 -15v-250c0 -10 5 -15 15 -15h50c10 0 15 5 15 15v50c0 10 5 15 15 15h30c10 0 15 -5 15 -15v-65zM152 581c9.33301 0 17.667 -5 25 -15l50 -70
c8 -10 6.33301 -15 -5 -15h-25c-5.33301 0 -9.5 1.16699 -12.5 3.5s-7.16699 6.16602 -12.5 11.499l-32 38l-32 -38c-5.33301 -5.33301 -9.5 -9.16602 -12.5 -11.499s-7.16699 -3.5 -12.5 -3.5h-25c-11.333 0 -13 5 -5 15l50 70c6.66699 10 15 15 25 15h24z" />
    <glyph glyph-name="Ccaron" unicode="&#x10c;" horiz-adv-x="300" 
d="M270 60c0 -17.333 -5.66699 -31.666 -17 -42.999s-25.666 -17 -42.999 -17h-100c-17.333 0 -31.666 5.66699 -42.999 17s-17 25.666 -17 42.999v580c0 17.333 5.66699 31.666 17 42.999s25.666 17 42.999 17h100c17.333 0 31.666 -5.66699 42.999 -17
s17 -25.666 17 -42.999v-110c0 -10 -5 -15 -15 -15h-30c-10 0 -15 5 -15 15v95c0 10 -5 15 -15 15h-70c-10 0 -15 -5 -15 -15v-550c0 -10 5 -15 15 -15h70c10 0 15 5 15 15v100c0 10 5 15 15 15h30c10 0 15 -5 15 -15v-115zM148 770c-10 0 -18.334 5 -25.001 15l-50 70
c-8 10 -6.33301 15 5 15h25c5.33301 0 9.5 -1.16699 12.5 -3.5s7.16699 -6.16602 12.5 -11.499l32 -38l32 38c5.33301 5.33301 9.5 9.16602 12.5 11.499s7.16699 3.5 12.5 3.5h25c11.333 0 13 -5 5 -15l-50 -70c-7.33301 -10 -15.666 -15 -24.999 -15h-24z" />
    <glyph glyph-name="ccaron" unicode="&#x10d;" horiz-adv-x="275" 
d="M240 60c0 -17.333 -5.66699 -31.666 -17 -42.999s-25.666 -17 -42.999 -17h-80c-17.333 0 -31.666 5.66699 -42.999 17s-17 25.666 -17 42.999v280c0 17.333 5.66699 31.666 17 42.999s25.666 17 42.999 17h80c17.333 0 31.666 -5.66699 42.999 -17
s17 -25.666 17 -42.999v-60c0 -10 -5 -15 -15 -15h-30c-10 0 -15 5 -15 15v45c0 10 -5 15 -15 15h-50c-10 0 -15 -5 -15 -15v-250c0 -10 5 -15 15 -15h50c10 0 15 5 15 15v50c0 10 5 15 15 15h30c10 0 15 -5 15 -15v-65zM128 481c-10 0 -18.334 5 -25.001 15l-50 70
c-8 10 -6.33301 15 5 15h25c5.33301 0 9.5 -1.16699 12.5 -3.5s7.16699 -6.16602 12.5 -11.499l32 -38l32 38c5.33301 5.33301 9.5 9.16602 12.5 11.499s7.16699 3.5 12.5 3.5h25c11.333 0 13 -5 5 -15l-50 -70c-7.33301 -10 -15.666 -15 -24.999 -15h-24z" />
    <glyph glyph-name="Dcaron" unicode="&#x10e;" horiz-adv-x="320" 
d="M50 685c0 10 5 14.998 15 14.998h145c17.333 0 31.666 -5.66699 42.999 -17s17 -25.666 17 -42.999v-580c0 -17.333 -5.66699 -31.666 -17 -42.999s-25.666 -17 -42.999 -17h-145c-10 0 -15 5 -15 15v670zM195 59.998c10 0 15 5 15 15v550c0 10 -5 15 -15 15h-85v-580h85
zM148 769.998c-10 0 -18.334 5 -25.001 15l-50 70c-8 10 -6.33301 15 5 15h25c5.33301 0 9.5 -1.16699 12.5 -3.5s7.16699 -6.16602 12.5 -11.499l32 -38l32 38c5.33301 5.33301 9.5 9.16602 12.5 11.499s7.16699 3.5 12.5 3.5h25c11.333 0 13 -5 5 -15l-50 -70
c-7.33301 -10 -15.666 -15 -24.999 -15h-24z" />
    <glyph glyph-name="dcaron" unicode="&#x10f;" horiz-adv-x="310" 
d="M40 340c0 17.333 5.66699 31.668 17 43.001s25.666 17 42.999 17h80v285c0 10 5 15 15 15h30c10 0 15 -5 15 -15v-670c0 -10 -5 -15 -15 -15h-125c-17.333 0 -31.666 5.66699 -42.999 17s-17 25.666 -17 42.999v280zM100 75.002c0 -10 5 -15 15 -15h65v280h-65
c-10 0 -15 -5 -15 -15v-250zM325 700.002c10 0 15.002 -5 15.002 -15v-30c0 -2.66699 -0.333008 -5.16699 -1 -7.5s-1.33398 -4.5 -2.00098 -6.5c-0.666992 -2.66699 -1.33398 -4.66699 -2.00098 -6l-15 -35c-2.66699 -6.66699 -6 -10 -10 -10h-10
c-6 0 -7.66699 3.33301 -5 10l15 40h-15c-10 0 -15 5 -15 15v30c0 10 5 15 15 15h30v0z" />
    <glyph glyph-name="Dcroat" unicode="&#x110;" horiz-adv-x="330" 
d="M60 330l-25 -0.00195312c-10 0 -15 5 -15 15v30c0 10 5 15 15 15h25v295c0 10 5 15 15 15h145c17.333 0 31.666 -5.66699 42.999 -17s17 -25.666 17 -42.999v-580c0 -17.333 -5.66699 -31.666 -17 -42.999s-25.666 -17 -42.999 -17h-145c-10 0 -15 5 -15 15v315z
M120 329.998v-270h85c10 0 15 5 15 15v550c0 10 -5 15 -15 15h-85v-250h25c10 0 15 -5 15 -15v-30c0 -10 -5 -15 -15 -15h-25z" />
    <glyph glyph-name="dcroat" unicode="&#x111;" horiz-adv-x="290" 
d="M240 520v-504.998c0 -10 -5 -15 -15 -15h-125c-17.333 0 -31.666 5.66699 -42.999 17s-17 25.666 -17 42.999v280c0 17.333 5.66699 31.666 17 42.999s25.666 17 42.999 17h80v120h-85c-10 0 -15 5 -15 15v30c0 10 5 15 15 15h85v105c0 10 5 15 15 15h30
c10 0 15 -5 15 -15v-105h35c10 0 15 -5 15 -15v-30c0 -10 -5 -15 -15 -15h-35zM100 75.002c0 -10 5 -15 15 -15h65v280h-65c-10 0 -15 -5 -15 -15v-250z" />
    <glyph glyph-name="Emacron" unicode="&#x112;" horiz-adv-x="260" 
d="M50 685c0 10 5 15 15 15h170c10 0 15 -5 15 -15v-30c0 -10 -5 -15 -15 -15h-125v-210h85c10 0 15 -5 15 -15v-30c0 -10 -5 -15 -15 -15h-85v-310h125c10 0 15 -5 15 -15v-30c0 -10 -5 -15 -15 -15h-170c-10 0 -15 5 -15 15v670zM70 780c-10 0 -15 5 -15 15v30
c0 10 5 15 15 15h160c10 0 15 -5 15 -15v-30c0 -10 -5 -15 -15 -15h-160z" />
    <glyph glyph-name="emacron" unicode="&#x113;" 
d="M240 60c0 -17.333 -5.66699 -31.666 -17 -42.999s-25.666 -17 -42.999 -17h-80c-17.333 0 -31.666 5.66699 -42.999 17s-17 25.666 -17 42.999v280c0 17.333 5.66699 31.666 17 42.999s25.666 17 42.999 17h80c17.333 0 31.666 -5.66699 42.999 -17
s17 -25.666 17 -42.999v-145c0 -10 -5 -15 -15 -15h-125v-105c0 -10 5 -15 15 -15h50c10 0 15 5 15 15v50c0 10 5 15 15 15h30c10 0 15 -5 15 -15v-65zM100 240h80v85c0 10 -5 15 -15 15h-50c-10 0 -15 -5 -15 -15v-85zM60 491c-10 0 -15 5 -15 15v30c0 10 5 15 15 15h160
c10 0 15 -5 15 -15v-30c0 -10 -5 -15 -15 -15h-160z" />
    <glyph glyph-name="Edotaccent" unicode="&#x116;" horiz-adv-x="260" 
d="M50 685c0 10 5 15 15 15h170c10 0 15 -5 15 -15v-30c0 -10 -5 -15 -15 -15h-125v-210h85c10 0 15 -5 15 -15v-30c0 -10 -5 -15 -15 -15h-85v-310h125c10 0 15 -5 15 -15v-30c0 -10 -5 -15 -15 -15h-170c-10 0 -15 5 -15 15v670zM120 825c0 10 5 15 15 15h30
c10 0 15 -5 15 -15v-30c0 -10 -5 -15 -15 -15h-30c-10 0 -15 5 -15 15v30z" />
    <glyph glyph-name="edotaccent" unicode="&#x117;" 
d="M240 60c0 -17.333 -5.66699 -31.666 -17 -42.999s-25.666 -17 -42.999 -17h-80c-17.333 0 -31.666 5.66699 -42.999 17s-17 25.666 -17 42.999v280c0 17.333 5.66699 31.666 17 42.999s25.666 17 42.999 17h80c17.333 0 31.666 -5.66699 42.999 -17
s17 -25.666 17 -42.999v-145c0 -10 -5 -15 -15 -15h-125v-105c0 -10 5 -15 15 -15h50c10 0 15 5 15 15v50c0 10 5 15 15 15h30c10 0 15 -5 15 -15v-65zM100 240h80v85c0 10 -5 15 -15 15h-50c-10 0 -15 -5 -15 -15v-85zM110 536c0 10 5 15 15 15h30c10 0 15 -5 15 -15v-30
c0 -10 -5 -15 -15 -15h-30c-10 0 -15 5 -15 15v30z" />
    <glyph glyph-name="Eogonek" unicode="&#x118;" horiz-adv-x="260" 
d="M189 -160c-17.333 0 -31.668 5.66992 -43.001 17.0029s-17 25.666 -17 42.999c0 15.333 4.33301 28.833 13 40.5s18.334 22.167 29.001 31.5c12 10 26.333 19.333 43 28h-149c-10 0 -15 5 -15 15v670c0 10 5 15 15 15h170c10 0 15 -5 15 -15v-30c0 -10 -5 -15 -15 -15
h-125v-210h85c10 0 15 -5 15 -15v-30c0 -10 -5 -15 -15 -15h-85v-310h125c10 0 15 -5 15 -15v-30c0 -8.66699 -4 -16.667 -12 -24l-26 -24c-9.33301 -8.66699 -18 -18.334 -26 -29.001s-12 -23.334 -12 -38.001c0 -10 5 -15 15 -15h30c10 0 15 -5 15 -15v-15
c0 -10 -5 -15 -15 -15h-30z" />
    <glyph glyph-name="eogonek" unicode="&#x119;" 
d="M135 -160c-17.333 0 -31.6689 5.66699 -43.002 17s-17 25.666 -17 42.999c0 15.333 4.33301 28.833 13 40.5s18.334 22.167 29.001 31.5c12 10 26.333 19.333 43 28h-60c-17.333 0 -31.666 5.66699 -42.999 17s-17 25.666 -17 42.999v280
c0 17.333 5.66699 31.666 17 42.999s25.666 17 42.999 17h80c17.333 0 31.666 -5.66699 42.999 -17s17 -25.666 17 -42.999v-145c0 -10 -5 -15 -15 -15h-125v-105c0 -10 5 -15 15 -15h50c10 0 15 5 15 15v50c0 10 5 15 15 15h30c10 0 15 -5 15 -15v-65
c0 -17.333 -5.66699 -31.666 -17 -42.999s-25.666 -17 -42.999 -17c-11.333 -9.33301 -21.333 -19.666 -30 -30.999c-7.33301 -9.33301 -14.166 -20 -20.499 -32s-9.5 -24.333 -9.5 -37c0 -10 5 -15 15 -15h30c10 0 15 -5 15 -15v-15c0 -10 -5 -15 -15 -15h-30zM99.9971 240
h80v85c0 10 -5 15 -15 15h-50c-10 0 -15 -5 -15 -15v-85z" />
    <glyph glyph-name="Ecaron" unicode="&#x11a;" horiz-adv-x="260" 
d="M50 685c0 10 5 15 15 15h170c10 0 15 -5 15 -15v-30c0 -10 -5 -15 -15 -15h-125v-210h85c10 0 15 -5 15 -15v-30c0 -10 -5 -15 -15 -15h-85v-310h125c10 0 15 -5 15 -15v-30c0 -10 -5 -15 -15 -15h-170c-10 0 -15 5 -15 15v670zM138 770c-10 0 -18.334 5 -25.001 15
l-50 70c-8 10 -6.33301 15 5 15h25c5.33301 0 9.5 -1.16699 12.5 -3.5s7.16699 -6.16602 12.5 -11.499l32 -38l32 38c5.33301 5.33301 9.5 9.16602 12.5 11.499s7.16699 3.5 12.5 3.5h25c11.333 0 13 -5 5 -15l-50 -70c-7.33301 -10 -15.666 -15 -24.999 -15h-24z" />
    <glyph glyph-name="ecaron" unicode="&#x11b;" 
d="M240 60c0 -17.333 -5.66699 -31.666 -17 -42.999s-25.666 -17 -42.999 -17h-80c-17.333 0 -31.666 5.66699 -42.999 17s-17 25.666 -17 42.999v280c0 17.333 5.66699 31.666 17 42.999s25.666 17 42.999 17h80c17.333 0 31.666 -5.66699 42.999 -17
s17 -25.666 17 -42.999v-145c0 -10 -5 -15 -15 -15h-125v-105c0 -10 5 -15 15 -15h50c10 0 15 5 15 15v50c0 10 5 15 15 15h30c10 0 15 -5 15 -15v-65zM100 240h80v85c0 10 -5 15 -15 15h-50c-10 0 -15 -5 -15 -15v-85zM128 481c-10 0 -18.334 5 -25.001 15l-50 70
c-8 10 -6.33301 15 5 15h25c5.33301 0 9.5 -1.16699 12.5 -3.5s7.16699 -6.16602 12.5 -11.499l32 -38l32 38c5.33301 5.33301 9.5 9.16602 12.5 11.499s7.16699 3.5 12.5 3.5h25c11.333 0 13 -5 5 -15l-50 -70c-7.33301 -10 -15.666 -15 -24.999 -15h-24z" />
    <glyph glyph-name="Gbreve" unicode="&#x11e;" horiz-adv-x="320" 
d="M270 15c0 -10 -4.99902 -14.999 -14.999 -14.999h-145c-17.333 0 -31.666 5.66699 -42.999 17s-17 25.666 -17 42.999v580c0 17.333 5.66699 31.666 17 42.999s25.666 17 42.999 17h100c17.333 0 31.666 -5.66699 42.999 -17s17 -25.666 17 -42.999v-110
c0 -10 -5 -15 -15 -15h-30c-10 0 -15 5 -15 15v95c0 10 -5 15 -15 15h-70c-10 0 -15 -5 -15 -15v-550c0 -10 5 -15 15 -15h85v250h-25c-10 0 -15 5 -15 15v30c0 10 5 15 15 15h70c10 0 15 -5 15 -15v-340zM200.001 855.001c0 10 4.99805 15 14.998 15h20c10 0 15 -5 15 -15
v-25c0 -17.333 -5.66699 -31.666 -17 -42.999s-25.666 -17 -42.999 -17h-60c-17.333 0 -31.666 5.66699 -42.999 17s-17 25.666 -17 42.999v25c0 10 5 15 15 15h20c10 0 15 -5 15 -15v-20c0 -10 5 -15 15 -15h50c10 0 15 5 15 15v20z" />
    <glyph glyph-name="gbreve" unicode="&#x11f;" 
d="M40 -75c0 10 4.99805 15.002 14.998 15.002h30c10 0 15 -5 15 -15v-50c0 -10 5 -15 15 -15h50c10 0 15 5 15 15v125h-80c-17.333 0 -31.666 5.66699 -42.999 17s-17 25.666 -17 42.999v280c0 17.333 5.66699 31.666 17 42.999s25.666 17 42.999 17h125c10 0 15 -5 15 -15
v-525c0 -17.333 -5.66699 -31.666 -17 -42.999s-25.666 -17 -42.999 -17h-80c-17.333 0 -31.666 5.66699 -42.999 17s-17 25.666 -17 42.999v65zM99.998 75.002c0 -10 5 -15 15 -15h65v280h-65c-10 0 -15 -5 -15 -15v-250zM179.998 566.002c0 10 4.99805 15 14.998 15h20
c10 0 15 -5 15 -15v-25c0 -17.333 -5.66699 -31.666 -17 -42.999s-25.666 -17 -42.999 -17h-60c-17.333 0 -31.666 5.66699 -42.999 17s-17 25.666 -17 42.999v25c0 10 5 15 15 15h20c10 0 15 -5 15 -15v-20c0 -10 5 -15 15 -15h50c10 0 15 5 15 15v20z" />
    <glyph glyph-name="Gcommaaccent" unicode="&#x122;" horiz-adv-x="320" 
d="M270 15c0 -10 -4.99902 -14.999 -14.999 -14.999h-145c-17.333 0 -31.666 5.66699 -42.999 17s-17 25.666 -17 42.999v580c0 17.333 5.66699 31.666 17 42.999s25.666 17 42.999 17h100c17.333 0 31.666 -5.66699 42.999 -17s17 -25.666 17 -42.999v-110
c0 -10 -5 -15 -15 -15h-30c-10 0 -15 5 -15 15v95c0 10 -5 15 -15 15h-70c-10 0 -15 -5 -15 -15v-550c0 -10 5 -15 15 -15h85v250h-25c-10 0 -15 5 -15 15v30c0 10 5 15 15 15h70c10 0 15 -5 15 -15v-340zM185.001 -69.999c10 0 15.002 -5 15.002 -15v-30
c0 -2.66699 -0.333008 -5.16699 -1 -7.5s-1.33398 -4.5 -2.00098 -6.5c-0.666992 -2.66699 -1.33398 -4.66699 -2.00098 -6l-15 -35c-2.66699 -6.66699 -6 -10 -10 -10h-10c-6 0 -7.66699 3.33301 -5 10l15 40h-15c-10 0 -15 5 -15 15v30c0 10 5 15 15 15h30v0z" />
    <glyph glyph-name="gcommaaccent" unicode="&#x123;" 
d="M125 490c-10 0 -15 5 -15 15v30c0 4 0.666992 8.66699 2 14c0.666992 2.66699 1.66699 4.66699 3 6l15 35c2.66699 6.66699 6 10 10 10h10c6 0 7.66699 -3.33301 5 -10l-15 -40h15c10 0 15 -5 15 -15v-30c0 -10 -5 -15 -15 -15h-30zM40 -75
c0 10 4.99805 15.002 14.998 15.002h30c10 0 15 -5 15 -15v-50c0 -10 5 -15 15 -15h50c10 0 15 5 15 15v125h-80c-17.333 0 -31.666 5.66699 -42.999 17s-17 25.666 -17 42.999v280c0 17.333 5.66699 31.666 17 42.999s25.666 17 42.999 17h125c10 0 15 -5 15 -15v-525
c0 -17.333 -5.66699 -31.666 -17 -42.999s-25.666 -17 -42.999 -17h-80c-17.333 0 -31.666 5.66699 -42.999 17s-17 25.666 -17 42.999v65zM99.998 75.002c0 -10 5 -15 15 -15h65v280h-65c-10 0 -15 -5 -15 -15v-250z" />
    <glyph glyph-name="Imacron" unicode="&#x12a;" horiz-adv-x="190" 
d="M65 685c0 10 5 15 15 15h30c10 0 15 -5 15 -15v-670c0 -10 -5 -15 -15 -15h-30c-10 0 -15 5 -15 15v670zM16 780c-10 0 -15 5 -15 15v30c0 10 5 15 15 15h160c10 0 15 -5 15 -15v-30c0 -10 -5 -15 -15 -15h-160z" />
    <glyph glyph-name="imacron" unicode="&#x12b;" horiz-adv-x="150" 
d="M45 385c0 10 5 15 15 15h30c10 0 15 -5 15 -15v-370c0 -10 -5 -15 -15 -15h-30c-10 0 -15 5 -15 15v370zM-4 491c-10 0 -15 5 -15 15v30c0 10 5 15 15 15h160c10 0 15 -5 15 -15v-30c0 -10 -5 -15 -15 -15h-160z" />
    <glyph glyph-name="Iogonek" unicode="&#x12e;" horiz-adv-x="160" 
d="M50 -160c-17.333 0 -31.6689 5.66699 -43.002 17s-17 25.666 -17 42.999c0 15.333 4.33301 28.833 13 40.5s18.334 22.167 29.001 31.5c12 10 26.333 19.333 43 28h-10c-10 0 -15 5 -15 15v670c0 10 5 15 15 15h30c10 0 15 -5 15 -15v-670c0 -10 -5 -15 -15 -15
c-11.333 -9.33301 -21.333 -19.666 -30 -30.999c-7.33301 -9.33301 -14.166 -20 -20.499 -32s-9.5 -24.333 -9.5 -37c0 -10 5 -15 15 -15h30c10 0 15 -5 15 -15v-15c0 -10 -5 -15 -15 -15h-30z" />
    <glyph glyph-name="iogonek" unicode="&#x12f;" horiz-adv-x="141" 
d="M40 -160c-17.333 0 -31.668 5.66992 -43.001 17.0029s-17 25.666 -17 42.999c0 15.333 4.33301 28.833 13 40.5s18.334 22.167 29.001 31.5c12 10 26.333 19.333 43 28h-9c-10 0 -15 5 -15 15v370c0 10 5 15 15 15h30c10 0 15 -5 15 -15v-370
c0 -8.66699 -4 -16.667 -12 -24l-26 -24c-9.33301 -8.66699 -18 -18.334 -26 -29.001s-12 -23.334 -12 -38.001c0 -10 5 -15 15 -15h30c10 0 15 -5 15 -15v-15c0 -10 -5 -15 -15 -15h-30zM40.998 535.003c0 10 5 15 15 15h30c10 0 15 -5 15 -15v-30c0 -10 -5 -15 -15 -15
h-30c-10 0 -15 5 -15 15v30z" />
    <glyph glyph-name="Idotaccent" unicode="&#x130;" horiz-adv-x="160" 
d="M50 685c0 10 5 15 15 15h30c10 0 15 -5 15 -15v-670c0 -10 -5 -15 -15 -15h-30c-10 0 -15 5 -15 15v670zM50 825c0 10 5 15 15 15h30c10 0 15 -5 15 -15v-30c0 -10 -5 -15 -15 -15h-30c-10 0 -15 5 -15 15v30z" />
    <glyph glyph-name="dotlessi" unicode="&#x131;" horiz-adv-x="140" 
d="M40 385c0 10 5 15 15 15h30c10 0 15 -5 15 -15v-370c0 -10 -5 -15 -15 -15h-30c-10 0 -15 5 -15 15v370z" />
    <glyph glyph-name="Kcommaaccent" unicode="&#x136;" horiz-adv-x="282" 
d="M50 685c0 10 5 15 15 15h30c10 0 15 -5 15 -15v-255l90 255c3.33301 10 10 15 20 15h30c10.667 0 14 -5 10 -15l-90 -255l110 -415c2.66699 -10 -0.666016 -15 -9.99902 -15h-30c-10.667 0 -17.334 5 -20.001 15l-85 330l-25 -70v-260c0 -10 -5 -15 -15 -15h-30
c-10 0 -15 5 -15 15v670zM175 -70c10 0 15.002 -5 15.002 -15v-30c0 -2.66699 -0.333008 -5.16699 -1 -7.5s-1.33398 -4.5 -2.00098 -6.5c-0.666992 -2.66699 -1.33398 -4.66699 -2.00098 -6l-15 -35c-2.66699 -6.66699 -6 -10 -10 -10h-10c-6 0 -7.66699 3.33301 -5 10
l15 40h-15c-10 0 -15 5 -15 15v30c0 10 5 15 15 15h30v0z" />
    <glyph glyph-name="kcommaaccent" unicode="&#x137;" horiz-adv-x="252" 
d="M255 15c4 -10 0.669922 -14.999 -9.99707 -14.999h-35c-9.33301 0 -16 5 -20 15l-70 165l-20 -45v-120c0 -10 -5 -15 -15 -15h-30c-10 0 -15 5 -15 15v670c0 10 5 15 15 15h30c10 0 15 -5 15 -15v-440l65 140c3.33301 5.33301 6.16602 9.16602 8.49902 11.499
s6.16602 3.5 11.499 3.5h35c11.333 0 14.666 -5 9.99902 -15l-70 -150zM161.003 -69.999c10 0 15.002 -5 15.002 -15v-30c0 -2.66699 -0.333008 -5.16699 -1 -7.5s-1.33398 -4.5 -2.00098 -6.5c-0.666992 -2.66699 -1.33398 -4.66699 -2.00098 -6l-15 -35
c-2.66699 -6.66699 -6 -10 -10 -10h-10c-6 0 -7.66699 3.33301 -5 10l15 40h-15c-10 0 -15 5 -15 15v30c0 10 5 15 15 15h30v0z" />
    <glyph glyph-name="Lacute" unicode="&#x139;" horiz-adv-x="250" 
d="M50 685c0 10 5 15 15 15h30c10 0 15 -5 15 -15v-625h125c10 0 15 -5 15 -15v-30c0 -10 -5 -15 -15 -15h-170c-10 0 -15 5 -15 15v670zM79 770c-10 0 -13.333 5.00195 -10 15.002l30 90c2.66699 10 9.33398 15 20.001 15h40c5.33301 0 9 -1.33301 11 -4
s1.66699 -6.33398 -1 -11.001l-55 -90c-2.66699 -4.66699 -5.33398 -8.33398 -8.00098 -11.001s-6.66699 -4 -12 -4h-15v0z" />
    <glyph glyph-name="lacute" unicode="&#x13a;" horiz-adv-x="141" 
d="M40 685c0 10 5 15 15 15h30c10 0 15 -5 15 -15v-670c0 -10 -5 -15 -15 -15h-30c-10 0 -15 5 -15 15v670zM69 770c-10 0 -13.333 5.00195 -10 15.002l30 90c2.66699 10 9.33398 15 20.001 15h40c5.33301 0 9 -1.33301 11 -4s1.66699 -6.33398 -1 -11.001l-55 -90
c-2.66699 -4.66699 -5.33398 -8.33398 -8.00098 -11.001s-6.66699 -4 -12 -4h-15v0z" />
    <glyph glyph-name="Lcommaaccent" unicode="&#x13b;" horiz-adv-x="250" 
d="M50 685c0 10 5 15 15 15h30c10 0 15 -5 15 -15v-625h125c10 0 15 -5 15 -15v-30c0 -10 -5 -15 -15 -15h-170c-10 0 -15 5 -15 15v670zM165 -70c10 0 15.002 -5 15.002 -15v-30c0 -2.66699 -0.333008 -5.16699 -1 -7.5s-1.33398 -4.5 -2.00098 -6.5
c-0.666992 -2.66699 -1.33398 -4.66699 -2.00098 -6l-15 -35c-2.66699 -6.66699 -6 -10 -10 -10h-10c-6 0 -7.66699 3.33301 -5 10l15 40h-15c-10 0 -15 5 -15 15v30c0 10 5 15 15 15h30v0z" />
    <glyph glyph-name="lcommaaccent" unicode="&#x13c;" horiz-adv-x="140" 
d="M40 685c0 10 5 15 15 15h30c10 0 15 -5 15 -15v-670c0 -10 -5 -15 -15 -15h-30c-10 0 -15 5 -15 15v670zM85 -60c10 0 15.002 -5 15.002 -15v-30c0 -2.66699 -0.333008 -5.16699 -1 -7.5s-1.33398 -4.5 -2.00098 -6.5c-0.666992 -2.66699 -1.33398 -4.66699 -2.00098 -6
l-15 -35c-2.66699 -6.66699 -6 -10 -10 -10h-10c-6 0 -7.66699 3.33301 -5 10l15 40h-15c-10 0 -15 5 -15 15v30c0 10 5 15 15 15h30v0z" />
    <glyph glyph-name="Lcaron" unicode="&#x13d;" horiz-adv-x="250" 
d="M50 685c0 10 5 15 15 15h30c10 0 15 -5 15 -15v-625h125c10 0 15 -5 15 -15v-30c0 -10 -5 -15 -15 -15h-170c-10 0 -15 5 -15 15v670zM205 700c10 0 15.002 -5 15.002 -15v-30c0 -2.66699 -0.333008 -5.16699 -1 -7.5s-1.33398 -4.5 -2.00098 -6.5
c-0.666992 -2.66699 -1.33398 -4.66699 -2.00098 -6l-15 -35c-2.66699 -6.66699 -6 -10 -10 -10h-10c-6 0 -7.66699 3.33301 -5 10l15 40h-15c-10 0 -15 5 -15 15v30c0 10 5 15 15 15h30v0z" />
    <glyph glyph-name="lcaron" unicode="&#x13e;" horiz-adv-x="170" 
d="M40 685c0 10 5 15 15 15h30c10 0 15 -5 15 -15v-670c0 -10 -5 -15 -15 -15h-30c-10 0 -15 5 -15 15v670zM185 700c10 0 15.002 -5 15.002 -15v-30c0 -2.66699 -0.333008 -5.16699 -1 -7.5s-1.33398 -4.5 -2.00098 -6.5c-0.666992 -2.66699 -1.33398 -4.66699 -2.00098 -6
l-15 -35c-2.66699 -6.66699 -6 -10 -10 -10h-10c-6 0 -7.66699 3.33301 -5 10l15 40h-15c-10 0 -15 5 -15 15v30c0 10 5 15 15 15h30v0z" />
    <glyph glyph-name="Lslash" unicode="&#x141;" horiz-adv-x="270" 
d="M70 296l-55 -26.002c-5.33301 -2.66699 -9.16602 -3 -11.499 -1s-3.5 5.66699 -3.5 11v40c0 5.33301 1.16699 9.33301 3.5 12s6.16602 5.33398 11.499 8.00098l55 26v319c0 10 5 15 15 15h30c10 0 15 -5 15 -15v-291l55 26c10 4.66699 15 1.33398 15 -9.99902v-40
c0 -9.33301 -5 -16 -15 -20l-55 -26v-264h125c10 0 15 -5 15 -15v-30c0 -10 -5 -15 -15 -15h-170c-10 0 -15 5 -15 15v281z" />
    <glyph glyph-name="lslash" unicode="&#x142;" horiz-adv-x="200" 
d="M70 296l-55 -26.002c-5.33301 -2.66699 -9.16602 -3 -11.499 -1s-3.5 5.66699 -3.5 11v40c0 5.33301 1.16699 9.33301 3.5 12s6.16602 5.33398 11.499 8.00098l55 26v319c0 10 5 15 15 15h30c10 0 15 -5 15 -15v-291l55 26c10 4.66699 15 1.33398 15 -9.99902v-40
c0 -9.33301 -5 -16 -15 -20l-55 -26v-309c0 -10 -5 -15 -15 -15h-30c-10 0 -15 5 -15 15v281z" />
    <glyph glyph-name="Nacute" unicode="&#x143;" horiz-adv-x="320" 
d="M110 560l-0.000976562 -545.001c0 -10 -5 -15 -15 -15h-30c-10 0 -15 5 -15 15v670c0 10 5 15 15 15h30c5.33301 0 9.33301 -1.16699 12 -3.5s5.33398 -6.16602 8.00098 -11.499l95 -220v220c0 10 5 15 15 15h30c10 0 15 -5 15 -15v-670c0 -10 -5 -15 -15 -15h-30
c-10 0 -15 5 -15 15v315zM148.999 769.999c-10 0 -13.333 5.00195 -10 15.002l30 90c2.66699 10 9.33398 15 20.001 15h40c5.33301 0 9 -1.33301 11 -4s1.66699 -6.33398 -1 -11.001l-55 -90c-2.66699 -4.66699 -5.33398 -8.33398 -8.00098 -11.001s-6.66699 -4 -12 -4h-15
v0z" />
    <glyph glyph-name="nacute" unicode="&#x144;" 
d="M180 325c0 10 -4.99902 14.999 -14.999 14.999h-65v-325c0 -10 -5 -15 -15 -15h-30c-10 0 -15 5 -15 15v370c0 10 5 15 15 15h125c17.333 0 31.666 -5.66699 42.999 -17s17 -25.666 17 -42.999v-325c0 -10 -5 -15 -15 -15h-30c-10 0 -15 5 -15 15v310zM129.001 480.999
c-10 0 -13.333 5.00195 -10 15.002l30 90c2.66699 10 9.33398 15 20.001 15h40c5.33301 0 9 -1.33301 11 -4s1.66699 -6.33398 -1 -11.001l-55 -90c-2.66699 -4.66699 -5.33398 -8.33398 -8.00098 -11.001s-6.66699 -4 -12 -4h-15v0z" />
    <glyph glyph-name="Ncommaaccent" unicode="&#x145;" horiz-adv-x="320" 
d="M110 560l-0.000976562 -545.001c0 -10 -5 -15 -15 -15h-30c-10 0 -15 5 -15 15v670c0 10 5 15 15 15h30c5.33301 0 9.33301 -1.16699 12 -3.5s5.33398 -6.16602 8.00098 -11.499l95 -220v220c0 10 5 15 15 15h30c10 0 15 -5 15 -15v-670c0 -10 -5 -15 -15 -15h-30
c-10 0 -15 5 -15 15v315zM174.999 -70.001c10 0 15.002 -5 15.002 -15v-30c0 -2.66699 -0.333008 -5.16699 -1 -7.5s-1.33398 -4.5 -2.00098 -6.5c-0.666992 -2.66699 -1.33398 -4.66699 -2.00098 -6l-15 -35c-2.66699 -6.66699 -6 -10 -10 -10h-10
c-6 0 -7.66699 3.33301 -5 10l15 40h-15c-10 0 -15 5 -15 15v30c0 10 5 15 15 15h30v0z" />
    <glyph glyph-name="ncommaaccent" unicode="&#x146;" 
d="M180 325c0 10 -4.99902 14.999 -14.999 14.999h-65v-325c0 -10 -5 -15 -15 -15h-30c-10 0 -15 5 -15 15v370c0 10 5 15 15 15h125c17.333 0 31.666 -5.66699 42.999 -17s17 -25.666 17 -42.999v-325c0 -10 -5 -15 -15 -15h-30c-10 0 -15 5 -15 15v310zM155.001 -70.001
c10 0 15.002 -5 15.002 -15v-30c0 -2.66699 -0.333008 -5.16699 -1 -7.5s-1.33398 -4.5 -2.00098 -6.5c-0.666992 -2.66699 -1.33398 -4.66699 -2.00098 -6l-15 -35c-2.66699 -6.66699 -6 -10 -10 -10h-10c-6 0 -7.66699 3.33301 -5 10l15 40h-15c-10 0 -15 5 -15 15v30
c0 10 5 15 15 15h30v0z" />
    <glyph glyph-name="Ncaron" unicode="&#x147;" horiz-adv-x="320" 
d="M110 560l-0.000976562 -545.001c0 -10 -5 -15 -15 -15h-30c-10 0 -15 5 -15 15v670c0 10 5 15 15 15h30c5.33301 0 9.33301 -1.16699 12 -3.5s5.33398 -6.16602 8.00098 -11.499l95 -220v220c0 10 5 15 15 15h30c10 0 15 -5 15 -15v-670c0 -10 -5 -15 -15 -15h-30
c-10 0 -15 5 -15 15v315zM147.999 769.999c-10 0 -18.334 5 -25.001 15l-50 70c-8 10 -6.33301 15 5 15h25c5.33301 0 9.5 -1.16699 12.5 -3.5s7.16699 -6.16602 12.5 -11.499l32 -38l32 38c5.33301 5.33301 9.5 9.16602 12.5 11.499s7.16699 3.5 12.5 3.5h25
c11.333 0 13 -5 5 -15l-50 -70c-7.33301 -10 -15.666 -15 -24.999 -15h-24z" />
    <glyph glyph-name="ncaron" unicode="&#x148;" 
d="M180 325c0 10 -4.99902 14.999 -14.999 14.999h-65v-325c0 -10 -5 -15 -15 -15h-30c-10 0 -15 5 -15 15v370c0 10 5 15 15 15h125c17.333 0 31.666 -5.66699 42.999 -17s17 -25.666 17 -42.999v-325c0 -10 -5 -15 -15 -15h-30c-10 0 -15 5 -15 15v310zM128.001 480.999
c-10 0 -18.334 5 -25.001 15l-50 70c-8 10 -6.33301 15 5 15h25c5.33301 0 9.5 -1.16699 12.5 -3.5s7.16699 -6.16602 12.5 -11.499l32 -38l32 38c5.33301 5.33301 9.5 9.16602 12.5 11.499s7.16699 3.5 12.5 3.5h25c11.333 0 13 -5 5 -15l-50 -70
c-7.33301 -10 -15.666 -15 -24.999 -15h-24z" />
    <glyph glyph-name="Omacron" unicode="&#x14c;" horiz-adv-x="320" 
d="M50 640c0 17.333 5.66699 31.666 17 42.999s25.666 17 42.999 17h100c17.333 0 31.666 -5.66699 42.999 -17s17 -25.666 17 -42.999v-580c0 -17.333 -5.66699 -31.666 -17 -42.999s-25.666 -17 -42.999 -17h-100c-17.333 0 -31.666 5.66699 -42.999 17
s-17 25.666 -17 42.999v580zM195 60c10 0 15 5 15 15v550c0 10 -5 15 -15 15h-70c-10 0 -15 -5 -15 -15v-550c0 -10 5 -15 15 -15h70zM80 780c-10 0 -15 5 -15 15v30c0 10 5 15 15 15h160c10 0 15 -5 15 -15v-30c0 -10 -5 -15 -15 -15h-160z" />
    <glyph glyph-name="omacron" unicode="&#x14d;" 
d="M180 325c0 10 -5 15 -15 15h-50c-10 0 -15 -5 -15 -15v-250c0 -10 5 -15 15 -15h50c10 0 15 5 15 15v250zM240 60c0 -17.333 -5.66699 -31.666 -17 -42.999s-25.666 -17 -42.999 -17h-80c-17.333 0 -31.666 5.66699 -42.999 17s-17 25.666 -17 42.999v280
c0 17.333 5.66699 31.666 17 42.999s25.666 17 42.999 17h80c17.333 0 31.666 -5.66699 42.999 -17s17 -25.666 17 -42.999v-280zM60 491c-10 0 -15 5 -15 15v30c0 10 5 15 15 15h160c10 0 15 -5 15 -15v-30c0 -10 -5 -15 -15 -15h-160z" />
    <glyph glyph-name="Ohungarumlaut" unicode="&#x150;" horiz-adv-x="321" 
d="M50 640c0 17.333 5.66699 31.666 17 42.999s25.666 17 42.999 17h100c17.333 0 31.666 -5.66699 42.999 -17s17 -25.666 17 -42.999v-580c0 -17.333 -5.66699 -31.666 -17 -42.999s-25.666 -17 -42.999 -17h-100c-17.333 0 -31.666 5.66699 -42.999 17
s-17 25.666 -17 42.999v580zM195 60c10 0 15 5 15 15v550c0 10 -5 15 -15 15h-70c-10 0 -15 -5 -15 -15v-550c0 -10 5 -15 15 -15h70zM109 770c-10 0 -13.333 5.00195 -10 15.002l30 90c2.66699 10 9.33398 15 20.001 15h30c5.33301 0 9 -1.33301 11 -4
s1.66699 -6.33398 -1 -11.001l-55 -90c-2.66699 -4.66699 -5.33398 -8.33398 -8.00098 -11.001s-6.66699 -4 -12 -4h-5zM199 770.002c-10 0 -13.333 5.00195 -10 15.002l30 90c2.66699 10 9.33398 15 20.001 15h30c5.33301 0 9 -1.33301 11 -4s1.66699 -6.33398 -1 -11.001
l-55 -90c-2.66699 -4.66699 -5.33398 -8.33398 -8.00098 -11.001s-6.66699 -4 -12 -4h-5z" />
    <glyph glyph-name="ohungarumlaut" unicode="&#x151;" horiz-adv-x="281" 
d="M180 325c0 10 -5 15 -15 15h-50c-10 0 -15 -5 -15 -15v-250c0 -10 5 -15 15 -15h50c10 0 15 5 15 15v250zM240 60c0 -17.333 -5.66699 -31.666 -17 -42.999s-25.666 -17 -42.999 -17h-80c-17.333 0 -31.666 5.66699 -42.999 17s-17 25.666 -17 42.999v280
c0 17.333 5.66699 31.666 17 42.999s25.666 17 42.999 17h80c17.333 0 31.666 -5.66699 42.999 -17s17 -25.666 17 -42.999v-280zM89 481c-10 0 -13.333 5.00195 -10 15.002l30 90c2.66699 10 9.33398 15 20.001 15h30c5.33301 0 9 -1.33301 11 -4
s1.66699 -6.33398 -1 -11.001l-55 -90c-2.66699 -4.66699 -5.33398 -8.33398 -8.00098 -11.001s-6.66699 -4 -12 -4h-5zM179 481.002c-10 0 -13.333 5.00195 -10 15.002l30 90c2.66699 10 9.33398 15 20.001 15h30c5.33301 0 9 -1.33301 11 -4s1.66699 -6.33398 -1 -11.001
l-55 -90c-2.66699 -4.66699 -5.33398 -8.33398 -8.00098 -11.001s-6.66699 -4 -12 -4h-5z" />
    <glyph glyph-name="OE" unicode="&#x152;" horiz-adv-x="420" 
d="M110 0c-17.333 0 -31.666 5.66895 -42.999 17.002s-17 25.666 -17 42.999v580c0 17.333 5.66699 31.666 17 42.999s25.666 17 42.999 17h285c10 0 15 -5 15 -15v-30c0 -10 -5 -15 -15 -15h-125v-210h85c10 0 15 -5 15 -15v-30c0 -10 -5 -15 -15 -15h-85v-310h125
c10 0 15 -5 15 -15v-30c0 -10 -5 -15 -15 -15h-285zM210 60.002v580h-85c-10 0 -15 -5 -15 -15v-550c0 -10 5 -15 15 -15h85z" />
    <glyph glyph-name="oe" unicode="&#x153;" horiz-adv-x="420" 
d="M180 325c0 10 -5 15 -15 15h-50c-10 0 -15 -5 -15 -15v-250c0 -10 5 -15 15 -15h50c10 0 15 5 15 15v250zM240 240h80v85c0 10 -5 15 -15 15h-50c-10 0 -15 -5 -15 -15v-85zM100 0c-17.333 0 -31.666 5.66699 -42.999 17s-17 25.666 -17 42.999v280
c0 17.333 5.66699 31.666 17 42.999s25.666 17 42.999 17h60c7.33301 0 14 -1 20 -3s11.333 -4.33301 16 -7c5.33301 -2.66699 10 -6 14 -10c4 4 8.66699 7.33301 14 10c4.66699 2.66699 10 5 16 7s12.667 3 20 3h60c17.333 0 31.666 -5.66699 42.999 -17
s17 -25.666 17 -42.999v-145c0 -10 -5 -15 -15 -15h-125v-105c0 -10 5 -15 15 -15h50c10 0 15 5 15 15v50c0 10 5 15 15 15h30c10 0 15 -5 15 -15v-65c0 -17.333 -5.66699 -31.666 -17 -42.999s-25.666 -17 -42.999 -17h-60c-7.33301 0 -14 1 -20 3s-11.333 4.33301 -16 7
c-5.33301 2.66699 -10 6 -14 10c-4 -4 -8.66699 -7.33301 -14 -10c-4.66699 -2.66699 -10 -5 -16 -7s-12.667 -3 -20 -3h-60z" />
    <glyph glyph-name="Racute" unicode="&#x154;" horiz-adv-x="327" 
d="M50 685c0 10 5 15 15 15h145c17.333 0 31.666 -5.66699 42.999 -17s17 -25.666 17 -42.999v-360c0 -7.33301 -1.33301 -14 -4 -20s-5.66699 -10.667 -9 -14c-3.33301 -4.66699 -7.33301 -8.33398 -12 -11.001l60 -220c2.66699 -10 -0.666016 -15 -9.99902 -15h-30
c-11.333 0 -18 5 -20 15l-55 205h-80v-205c0 -10 -5 -15 -15 -15h-30c-10 0 -15 5 -15 15v670zM110 640v-360h85c10 0 15 5 15 15v330c0 10 -5 15 -15 15h-85zM147 770c-10 0 -13.333 5.00195 -10 15.002l30 90c2.66699 10 9.33398 15 20.001 15h40
c5.33301 0 9 -1.33301 11 -4s1.66699 -6.33398 -1 -11.001l-55 -90c-2.66699 -4.66699 -5.33398 -8.33398 -8.00098 -11.001s-6.66699 -4 -12 -4h-15v0z" />
    <glyph glyph-name="racute" unicode="&#x155;" horiz-adv-x="210" 
d="M195 400c10 0 15 -4.99902 15 -14.999v-30c0 -10 -5 -15 -15 -15h-25c-20 0 -36.667 -6.66699 -50 -20s-20 -30 -20 -50v-255c0 -10 -5 -15 -15 -15h-30c-10 0 -15 5 -15 15v370c0 10 5 15 15 15h30c10 0 15 -5 15 -15v-45c2 11.333 6 21.333 12 30
c5.33301 7.33301 12.5 14.166 21.5 20.499s21.167 9.5 36.5 9.5h25v0zM114 481.001c-10 0 -13.333 5.00195 -10 15.002l30 90c2.66699 10 9.33398 15 20.001 15h40c5.33301 0 9 -1.33301 11 -4s1.66699 -6.33398 -1 -11.001l-55 -90
c-2.66699 -4.66699 -5.33398 -8.33398 -8.00098 -11.001s-6.66699 -4 -12 -4h-15v0z" />
    <glyph glyph-name="Rcommaaccent" unicode="&#x156;" horiz-adv-x="327" 
d="M50 685c0 10 5 15 15 15h145c17.333 0 31.666 -5.66699 42.999 -17s17 -25.666 17 -42.999v-360c0 -7.33301 -1.33301 -14 -4 -20s-5.66699 -10.667 -9 -14c-3.33301 -4.66699 -7.33301 -8.33398 -12 -11.001l60 -220c2.66699 -10 -0.666016 -15 -9.99902 -15h-30
c-11.333 0 -18 5 -20 15l-55 205h-80v-205c0 -10 -5 -15 -15 -15h-30c-10 0 -15 5 -15 15v670zM110 640v-360h85c10 0 15 5 15 15v330c0 10 -5 15 -15 15h-85zM183 -70c10 0 15.002 -5 15.002 -15v-30c0 -2.66699 -0.333008 -5.16699 -1 -7.5s-1.33398 -4.5 -2.00098 -6.5
c-0.666992 -2.66699 -1.33398 -4.66699 -2.00098 -6l-15 -35c-2.66699 -6.66699 -6 -10 -10 -10h-10c-6 0 -7.66699 3.33301 -5 10l15 40h-15c-10 0 -15 5 -15 15v30c0 10 5 15 15 15h30v0z" />
    <glyph glyph-name="rcommaaccent" unicode="&#x157;" horiz-adv-x="210" 
d="M195 400c10 0 15 -4.99902 15 -14.999v-30c0 -10 -5 -15 -15 -15h-25c-20 0 -36.667 -6.66699 -50 -20s-20 -30 -20 -50v-255c0 -10 -5 -15 -15 -15h-30c-10 0 -15 5 -15 15v370c0 10 5 15 15 15h30c10 0 15 -5 15 -15v-45c2 11.333 6 21.333 12 30
c5.33301 7.33301 12.5 14.166 21.5 20.499s21.167 9.5 36.5 9.5h25v0zM85 -69.999c10 0 15.002 -5 15.002 -15v-30c0 -2.66699 -0.333008 -5.16699 -1 -7.5s-1.33398 -4.5 -2.00098 -6.5c-0.666992 -2.66699 -1.33398 -4.66699 -2.00098 -6l-15 -35
c-2.66699 -6.66699 -6 -10 -10 -10h-10c-6 0 -7.66699 3.33301 -5 10l15 40h-15c-10 0 -15 5 -15 15v30c0 10 5 15 15 15h30v0z" />
    <glyph glyph-name="Rcaron" unicode="&#x158;" horiz-adv-x="327" 
d="M50 685c0 10 5 15 15 15h145c17.333 0 31.666 -5.66699 42.999 -17s17 -25.666 17 -42.999v-360c0 -7.33301 -1.33301 -14 -4 -20s-5.66699 -10.667 -9 -14c-3.33301 -4.66699 -7.33301 -8.33398 -12 -11.001l60 -220c2.66699 -10 -0.666016 -15 -9.99902 -15h-30
c-11.333 0 -18 5 -20 15l-55 205h-80v-205c0 -10 -5 -15 -15 -15h-30c-10 0 -15 5 -15 15v670zM110 640v-360h85c10 0 15 5 15 15v330c0 10 -5 15 -15 15h-85zM146 770c-10 0 -18.334 5 -25.001 15l-50 70c-8 10 -6.33301 15 5 15h25c5.33301 0 9.5 -1.16699 12.5 -3.5
s7.16699 -6.16602 12.5 -11.499l32 -38l32 38c5.33301 5.33301 9.5 9.16602 12.5 11.499s7.16699 3.5 12.5 3.5h25c11.333 0 13 -5 5 -15l-50 -70c-7.33301 -10 -15.666 -15 -24.999 -15h-24z" />
    <glyph glyph-name="rcaron" unicode="&#x159;" horiz-adv-x="214" 
d="M193 400c10 0 15 -4.99902 15 -14.999v-30c0 -10 -5 -15 -15 -15h-25c-20 0 -36.667 -6.66699 -50 -20s-20 -30 -20 -50v-255c0 -10 -5 -15 -15 -15h-30c-10 0 -15 5 -15 15v370c0 10 5 15 15 15h30c10 0 15 -5 15 -15v-45c2 11.333 6 21.333 12 30
c5.33301 7.33301 12.5 14.166 21.5 20.499s21.167 9.5 36.5 9.5h25v0zM110 481.001c-10 0 -18.334 5 -25.001 15l-50 70c-8 10 -6.33301 15 5 15h25c5.33301 0 9.5 -1.16699 12.5 -3.5s7.16699 -6.16602 12.5 -11.499l32 -38l32 38c5.33301 5.33301 9.5 9.16602 12.5 11.499
s7.16699 3.5 12.5 3.5h25c11.333 0 13 -5 5 -15l-50 -70c-7.33301 -10 -15.666 -15 -24.999 -15h-24z" />
    <glyph glyph-name="Sacute" unicode="&#x15a;" horiz-adv-x="300" 
d="M260 60c0 -17.333 -5.66699 -31.666 -17 -42.999s-25.666 -17 -42.999 -17h-100c-17.333 0 -31.666 5.66699 -42.999 17s-17 25.666 -17 42.999v115c0 10 5 15 15 15h30c10 0 15 -5 15 -15v-100c0 -10 5 -15 15 -15h70c10 0 15 5 15 15v185c0 15.333 -2 26.333 -6 33
s-8.66699 12.334 -14 17.001l-100 90c-10 9.33301 -19.167 20.333 -27.5 33s-12.5 31.667 -12.5 57v150c0 17.333 5.66699 31.666 17 42.999s25.666 17 42.999 17h100c17.333 0 31.666 -5.66699 42.999 -17s17 -25.666 17 -42.999v-110c0 -10 -5 -15 -15 -15h-30
c-10 0 -15 5 -15 15v95c0 10 -5 15 -15 15h-70c-10 0 -15 -5 -15 -15v-125c0 -15.333 2 -26.333 6 -33s8.66699 -12.334 14 -17.001l100 -90c10 -9.33301 19.167 -20.333 27.5 -33s12.5 -31.667 12.5 -57v-210zM139 770c-10 0 -13.333 5.00195 -10 15.002l30 90
c2.66699 10 9.33398 15 20.001 15h40c5.33301 0 9 -1.33301 11 -4s1.66699 -6.33398 -1 -11.001l-55 -90c-2.66699 -4.66699 -5.33398 -8.33398 -8.00098 -11.001s-6.66699 -4 -12 -4h-15v0z" />
    <glyph glyph-name="sacute" unicode="&#x15b;" horiz-adv-x="270" 
d="M235 60c0 -17.333 -5.66699 -31.666 -17 -42.999s-25.666 -17 -42.999 -17h-80c-17.333 0 -31.666 5.66699 -42.999 17s-17 25.666 -17 42.999v65c0 10 5 15 15 15h30c10 0 15 -5 15 -15v-50c0 -10 5 -15 15 -15h50c10 0 15 5 15 15v45c0 15.333 -2 26 -6 32
s-8.66699 10.333 -14 13l-80 45c-10 5.33301 -19.167 13.666 -27.5 24.999s-12.5 29.666 -12.5 54.999v50c0 17.333 5.66699 31.666 17 42.999s25.666 17 42.999 17h80c17.333 0 31.666 -5.66699 42.999 -17s17 -25.666 17 -42.999v-60c0 -10 -5 -15 -15 -15h-30
c-10 0 -15 5 -15 15v45c0 10 -5 15 -15 15h-50c-10 0 -15 -5 -15 -15v-30c0 -15.333 2 -26 6 -32s8.66699 -10.333 14 -13l80 -45c10 -5.33301 19.167 -13.666 27.5 -24.999s12.5 -29.666 12.5 -54.999v-65zM124 481c-10 0 -13.333 5.00195 -10 15.002l30 90
c2.66699 10 9.33398 15 20.001 15h40c5.33301 0 9 -1.33301 11 -4s1.66699 -6.33398 -1 -11.001l-55 -90c-2.66699 -4.66699 -5.33398 -8.33398 -8.00098 -11.001s-6.66699 -4 -12 -4h-15v0z" />
    <glyph glyph-name="Scedilla" unicode="&#x15e;" horiz-adv-x="300" 
d="M117 -170c-10 0 -15 4.99805 -15 14.998v15c0 10 5 15 15 15h40c10 0 15 5 15 15v10c0 10 -5 15 -15 15h-35c-10.667 0 -14 5 -10 15l22 70h-34c-17.333 0 -31.666 5.66699 -42.999 17s-17 25.666 -17 42.999v115c0 10 5 15 15 15h30c10 0 15 -5 15 -15v-100
c0 -10 5 -15 15 -15h70c10 0 15 5 15 15v185c0 15.333 -2 26.333 -6 33s-8.66699 12.334 -14 17.001l-100 90c-10 9.33301 -19.167 20.333 -27.5 33s-12.5 31.667 -12.5 57v150c0 17.333 5.66699 31.666 17 42.999s25.666 17 42.999 17h100
c17.333 0 31.666 -5.66699 42.999 -17s17 -25.666 17 -42.999v-110c0 -10 -5 -15 -15 -15h-30c-10 0 -15 5 -15 15v95c0 10 -5 15 -15 15h-70c-10 0 -15 -5 -15 -15v-125c0 -15.333 2 -26.333 6 -33s8.66699 -12.334 14 -17.001l100 -90
c10 -9.33301 19.167 -20.333 27.5 -33s12.5 -31.667 12.5 -57v-210c0 -17.333 -5.66699 -31.666 -17 -42.999s-25.666 -17 -42.999 -17h-31l-12 -40c17.333 0 31.666 -5.66699 42.999 -17s17 -25.666 17 -42.999v-10c0 -17.333 -5.66699 -31.666 -17 -42.999
s-25.666 -17 -42.999 -17h-40z" />
    <glyph glyph-name="scedilla" unicode="&#x15f;" horiz-adv-x="270" 
d="M102 -170c-10 0 -15 4.99805 -15 14.998v15c0 10 5 15 15 15h40c10 0 15 5 15 15v10c0 10 -5 15 -15 15h-35c-10.667 0 -14 5 -10 15l22 70h-24c-17.333 0 -31.666 5.66699 -42.999 17s-17 25.666 -17 42.999v65c0 10 5 15 15 15h30c10 0 15 -5 15 -15v-50
c0 -10 5 -15 15 -15h50c10 0 15 5 15 15v45c0 15.333 -2 26 -6 32s-8.66699 10.333 -14 13l-80 45c-10 5.33301 -19.167 13.666 -27.5 24.999s-12.5 29.666 -12.5 54.999v50c0 17.333 5.66699 31.666 17 42.999s25.666 17 42.999 17h80c17.333 0 31.666 -5.66699 42.999 -17
s17 -25.666 17 -42.999v-60c0 -10 -5 -15 -15 -15h-30c-10 0 -15 5 -15 15v45c0 10 -5 15 -15 15h-50c-10 0 -15 -5 -15 -15v-30c0 -15.333 2 -26 6 -32s8.66699 -10.333 14 -13l80 -45c10 -5.33301 19.167 -13.666 27.5 -24.999s12.5 -29.666 12.5 -54.999v-65
c0 -17.333 -5.66699 -31.666 -17 -42.999s-25.666 -17 -42.999 -17h-21l-12 -40c17.333 0 31.666 -5.66699 42.999 -17s17 -25.666 17 -42.999v-10c0 -17.333 -5.66699 -31.666 -17 -42.999s-25.666 -17 -42.999 -17h-40z" />
    <glyph glyph-name="Scaron" unicode="&#x160;" horiz-adv-x="300" 
d="M260 60c0 -17.333 -5.66699 -31.666 -17 -42.999s-25.666 -17 -42.999 -17h-100c-17.333 0 -31.666 5.66699 -42.999 17s-17 25.666 -17 42.999v115c0 10 5 15 15 15h30c10 0 15 -5 15 -15v-100c0 -10 5 -15 15 -15h70c10 0 15 5 15 15v185c0 15.333 -2 26.333 -6 33
s-8.66699 12.334 -14 17.001l-100 90c-10 9.33301 -19.167 20.333 -27.5 33s-12.5 31.667 -12.5 57v150c0 17.333 5.66699 31.666 17 42.999s25.666 17 42.999 17h100c17.333 0 31.666 -5.66699 42.999 -17s17 -25.666 17 -42.999v-110c0 -10 -5 -15 -15 -15h-30
c-10 0 -15 5 -15 15v95c0 10 -5 15 -15 15h-70c-10 0 -15 -5 -15 -15v-125c0 -15.333 2 -26.333 6 -33s8.66699 -12.334 14 -17.001l100 -90c10 -9.33301 19.167 -20.333 27.5 -33s12.5 -31.667 12.5 -57v-210zM138 770c-10 0 -18.334 5 -25.001 15l-50 70
c-8 10 -6.33301 15 5 15h25c5.33301 0 9.5 -1.16699 12.5 -3.5s7.16699 -6.16602 12.5 -11.499l32 -38l32 38c5.33301 5.33301 9.5 9.16602 12.5 11.499s7.16699 3.5 12.5 3.5h25c11.333 0 13 -5 5 -15l-50 -70c-7.33301 -10 -15.666 -15 -24.999 -15h-24z" />
    <glyph glyph-name="scaron" unicode="&#x161;" horiz-adv-x="270" 
d="M235 60c0 -17.333 -5.66699 -31.666 -17 -42.999s-25.666 -17 -42.999 -17h-80c-17.333 0 -31.666 5.66699 -42.999 17s-17 25.666 -17 42.999v65c0 10 5 15 15 15h30c10 0 15 -5 15 -15v-50c0 -10 5 -15 15 -15h50c10 0 15 5 15 15v45c0 15.333 -2 26 -6 32
s-8.66699 10.333 -14 13l-80 45c-10 5.33301 -19.167 13.666 -27.5 24.999s-12.5 29.666 -12.5 54.999v50c0 17.333 5.66699 31.666 17 42.999s25.666 17 42.999 17h80c17.333 0 31.666 -5.66699 42.999 -17s17 -25.666 17 -42.999v-60c0 -10 -5 -15 -15 -15h-30
c-10 0 -15 5 -15 15v45c0 10 -5 15 -15 15h-50c-10 0 -15 -5 -15 -15v-30c0 -15.333 2 -26 6 -32s8.66699 -10.333 14 -13l80 -45c10 -5.33301 19.167 -13.666 27.5 -24.999s12.5 -29.666 12.5 -54.999v-65zM123 481c-10 0 -18.334 5 -25.001 15l-50 70
c-8 10 -6.33301 15 5 15h25c5.33301 0 9.5 -1.16699 12.5 -3.5s7.16699 -6.16602 12.5 -11.499l32 -38l32 38c5.33301 5.33301 9.5 9.16602 12.5 11.499s7.16699 3.5 12.5 3.5h25c11.333 0 13 -5 5 -15l-50 -70c-7.33301 -10 -15.666 -15 -24.999 -15h-24z" />
    <glyph glyph-name="Tcommaaccent" unicode="&#x162;" horiz-adv-x="240" 
d="M150 15c0 -10 -5 -15 -15 -15h-30c-10 0 -15 5 -15 15v625h-75c-10 0 -15 5 -15 15v30c0 10 5 15 15 15h210c10 0 15 -5 15 -15v-30c0 -10 -5 -15 -15 -15h-75v-625zM135 -70c10 0 15.002 -5 15.002 -15v-30c0 -2.66699 -0.333008 -5.16699 -1 -7.5
s-1.33398 -4.5 -2.00098 -6.5c-0.666992 -2.66699 -1.33398 -4.66699 -2.00098 -6l-15 -35c-2.66699 -6.66699 -6 -10 -10 -10h-10c-6 0 -7.66699 3.33301 -5 10l15 40h-15c-10 0 -15 5 -15 15v30c0 10 5 15 15 15h30v0z" />
    <glyph glyph-name="tcommaaccent" unicode="&#x163;" horiz-adv-x="220" 
d="M50 400l-0.000976562 175.001c0 10 5 15 15 15h30c10 0 15 -5 15 -15v-175h55c10 0 15 -5 15 -15v-30c0 -10 -5 -15 -15 -15h-55v-265c0 -10 5 -15 15 -15h60c10 0 15 -5 15 -15v-30c0 -10 -5 -15 -15 -15h-75c-17.333 0 -31.666 5.66699 -42.999 17
s-17 25.666 -17 42.999v280h-25c-10 0 -15 5 -15 15v30c0 10 5 15 15 15h25zM144.999 -69.999c10 0 15.002 -5 15.002 -15v-30c0 -2.66699 -0.333008 -5.16699 -1 -7.5s-1.33398 -4.5 -2.00098 -6.5c-0.666992 -2.66699 -1.33398 -4.66699 -2.00098 -6l-15 -35
c-2.66699 -6.66699 -6 -10 -10 -10h-10c-6 0 -7.66699 3.33301 -5 10l15 40h-15c-10 0 -15 5 -15 15v30c0 10 5 15 15 15h30v0z" />
    <glyph glyph-name="Tcaron" unicode="&#x164;" horiz-adv-x="240" 
d="M150 15c0 -10 -5 -15 -15 -15h-30c-10 0 -15 5 -15 15v625h-75c-10 0 -15 5 -15 15v30c0 10 5 15 15 15h210c10 0 15 -5 15 -15v-30c0 -10 -5 -15 -15 -15h-75v-625zM109 770c-10 0 -18.334 5 -25.001 15l-50 70c-8 10 -6.33301 15 5 15h25
c5.33301 0 9.5 -1.16699 12.5 -3.5s7.16699 -6.16602 12.5 -11.499l32 -38l32 38c5.33301 5.33301 9.5 9.16602 12.5 11.499s7.16699 3.5 12.5 3.5h25c11.333 0 13 -5 5 -15l-50 -70c-7.33301 -10 -15.666 -15 -24.999 -15h-24z" />
    <glyph glyph-name="tcaron" unicode="&#x165;" horiz-adv-x="220" 
d="M50 400l-0.000976562 175.001c0 10 5 15 15 15h30c10 0 15 -5 15 -15v-175h55c10 0 15 -5 15 -15v-30c0 -10 -5 -15 -15 -15h-55v-265c0 -10 5 -15 15 -15h60c10 0 15 -5 15 -15v-30c0 -10 -5 -15 -15 -15h-75c-17.333 0 -31.666 5.66699 -42.999 17
s-17 25.666 -17 42.999v280h-25c-10 0 -15 5 -15 15v30c0 10 5 15 15 15h25zM224.999 591.001c10 0 15.002 -5 15.002 -15v-30c0 -2.66699 -0.333008 -5.16699 -1 -7.5s-1.33398 -4.5 -2.00098 -6.5c-0.666992 -2.66699 -1.33398 -4.66699 -2.00098 -6l-15 -35
c-2.66699 -6.66699 -6 -10 -10 -10h-10c-6 0 -7.66699 3.33301 -5 10l15 40h-15c-10 0 -15 5 -15 15v30c0 10 5 15 15 15h30v0z" />
    <glyph glyph-name="Umacron" unicode="&#x16a;" horiz-adv-x="320" 
d="M110 75c0 -10 4.99805 -15 14.998 -15h70c10 0 15 5 15 15v610c0 10 5 15 15 15h30c10 0 15 -5 15 -15v-625c0 -17.333 -5.66699 -31.666 -17 -42.999s-25.666 -17 -42.999 -17h-100c-17.333 0 -31.666 5.66699 -42.999 17s-17 25.666 -17 42.999v625c0 10 5 15 15 15h30
c10 0 15 -5 15 -15v-610zM79.998 780c-10 0 -15 5 -15 15v30c0 10 5 15 15 15h160c10 0 15 -5 15 -15v-30c0 -10 -5 -15 -15 -15h-160z" />
    <glyph glyph-name="umacron" unicode="&#x16b;" 
d="M100 75c0 -10 4.99902 -14.999 14.999 -14.999h65v325c0 10 5 15 15 15h30c10 0 15 -5 15 -15v-370c0 -10 -5 -15 -15 -15h-125c-17.333 0 -31.666 5.66699 -42.999 17s-17 25.666 -17 42.999v325c0 10 5 15 15 15h30c10 0 15 -5 15 -15v-310zM59.999 491.001
c-10 0 -15 5 -15 15v30c0 10 5 15 15 15h160c10 0 15 -5 15 -15v-30c0 -10 -5 -15 -15 -15h-160z" />
    <glyph glyph-name="Uring" unicode="&#x16e;" horiz-adv-x="320" 
d="M110 75c0 -10 4.99805 -15 14.998 -15h70c10 0 15 5 15 15v610c0 10 5 15 15 15h30c10 0 15 -5 15 -15v-625c0 -17.333 -5.66699 -31.666 -17 -42.999s-25.666 -17 -42.999 -17h-100c-17.333 0 -31.666 5.66699 -42.999 17s-17 25.666 -17 42.999v625c0 10 5 15 15 15h30
c10 0 15 -5 15 -15v-610zM179.998 840c0 10 -5 15 -15 15h-10c-10 0 -15 -5 -15 -15v-10c0 -10 5 -15 15 -15h10c10 0 15 5 15 15v10zM224.998 830c0 -17.333 -5.66699 -31.666 -17 -42.999s-25.666 -17 -42.999 -17h-10c-17.333 0 -31.666 5.66699 -42.999 17
s-17 25.666 -17 42.999v10c0 17.333 5.66699 31.666 17 42.999s25.666 17 42.999 17h10c17.333 0 31.666 -5.66699 42.999 -17s17 -25.666 17 -42.999v-10z" />
    <glyph glyph-name="uring" unicode="&#x16f;" 
d="M100 75c0 -10 4.99902 -14.999 14.999 -14.999h65v325c0 10 5 15 15 15h30c10 0 15 -5 15 -15v-370c0 -10 -5 -15 -15 -15h-125c-17.333 0 -31.666 5.66699 -42.999 17s-17 25.666 -17 42.999v325c0 10 5 15 15 15h30c10 0 15 -5 15 -15v-310zM159.999 551.001
c0 10 -5 15 -15 15h-10c-10 0 -15 -5 -15 -15v-10c0 -10 5 -15 15 -15h10c10 0 15 5 15 15v10zM204.999 541.001c0 -17.333 -5.66699 -31.666 -17 -42.999s-25.666 -17 -42.999 -17h-10c-17.333 0 -31.666 5.66699 -42.999 17s-17 25.666 -17 42.999v10
c0 17.333 5.66699 31.666 17 42.999s25.666 17 42.999 17h10c17.333 0 31.666 -5.66699 42.999 -17s17 -25.666 17 -42.999v-10z" />
    <glyph glyph-name="Uhungarumlaut" unicode="&#x170;" horiz-adv-x="321" 
d="M110 75c0 -10 4.99805 -15 14.998 -15h70c10 0 15 5 15 15v610c0 10 5 15 15 15h30c10 0 15 -5 15 -15v-625c0 -17.333 -5.66699 -31.666 -17 -42.999s-25.666 -17 -42.999 -17h-100c-17.333 0 -31.666 5.66699 -42.999 17s-17 25.666 -17 42.999v625c0 10 5 15 15 15h30
c10 0 15 -5 15 -15v-610zM108.998 770c-10 0 -13.333 5.00195 -10 15.002l30 90c2.66699 10 9.33398 15 20.001 15h30c5.33301 0 9 -1.33301 11 -4s1.66699 -6.33398 -1 -11.001l-55 -90c-2.66699 -4.66699 -5.33398 -8.33398 -8.00098 -11.001s-6.66699 -4 -12 -4h-5z
M198.998 770.002c-10 0 -13.333 5.00195 -10 15.002l30 90c2.66699 10 9.33398 15 20.001 15h30c5.33301 0 9 -1.33301 11 -4s1.66699 -6.33398 -1 -11.001l-55 -90c-2.66699 -4.66699 -5.33398 -8.33398 -8.00098 -11.001s-6.66699 -4 -12 -4h-5z" />
    <glyph glyph-name="uhungarumlaut" unicode="&#x171;" horiz-adv-x="281" 
d="M100 75c0 -10 4.99902 -14.999 14.999 -14.999h65v325c0 10 5 15 15 15h30c10 0 15 -5 15 -15v-370c0 -10 -5 -15 -15 -15h-125c-17.333 0 -31.666 5.66699 -42.999 17s-17 25.666 -17 42.999v325c0 10 5 15 15 15h30c10 0 15 -5 15 -15v-310zM88.999 491.001
c-10 0 -13.333 5.00195 -10 15.002l30 90c2.66699 10 9.33398 15 20.001 15h30c5.33301 0 9 -1.33301 11 -4s1.66699 -6.33398 -1 -11.001l-55 -90c-2.66699 -4.66699 -5.33398 -8.33398 -8.00098 -11.001s-6.66699 -4 -12 -4h-5zM178.999 491.003
c-10 0 -13.333 5.00195 -10 15.002l30 90c2.66699 10 9.33398 15 20.001 15h30c5.33301 0 9 -1.33301 11 -4s1.66699 -6.33398 -1 -11.001l-55 -90c-2.66699 -4.66699 -5.33398 -8.33398 -8.00098 -11.001s-6.66699 -4 -12 -4h-5z" />
    <glyph glyph-name="Uogonek" unicode="&#x172;" horiz-adv-x="320" 
d="M165 -160c-17.333 0 -31.6709 5.66699 -43.0039 17s-17 25.666 -17 42.999c0 15.333 4.33301 28.833 13 40.5s18.334 22.167 29.001 31.5c12 10 26.333 19.333 43 28h-80c-17.333 0 -31.666 5.66699 -42.999 17s-17 25.666 -17 42.999v625c0 10 5 15 15 15h30
c10 0 15 -5 15 -15v-610c0 -10 5 -15 15 -15h70c10 0 15 5 15 15v610c0 10 5 15 15 15h30c10 0 15 -5 15 -15v-625c0 -17.333 -5.66699 -31.666 -17 -42.999s-25.666 -17 -42.999 -17c-11.333 -9.33301 -21.333 -19.666 -30 -30.999
c-7.33301 -9.33301 -14.166 -20 -20.499 -32s-9.5 -24.333 -9.5 -37c0 -10 5 -15 15 -15h30c10 0 15 -5 15 -15v-15c0 -10 -5 -15 -15 -15h-30z" />
    <glyph glyph-name="uogonek" unicode="&#x173;" 
d="M180 -160c-17.333 0 -31.667 5.66895 -43 17.002s-17 25.666 -17 42.999c0 15.333 4.33301 28.833 13 40.5s18.334 22.167 29.001 31.5c12 10 26.333 19.333 43 28h-105c-17.333 0 -31.666 5.66699 -42.999 17s-17 25.666 -17 42.999v325c0 10 5 15 15 15h30
c10 0 15 -5 15 -15v-310c0 -10 5 -15 15 -15h65v325c0 10 5 15 15 15h30c10 0 15 -5 15 -15v-370c0 -11.333 -3.83301 -20.333 -11.5 -27s-16.334 -13.5 -26.001 -20.5s-18.334 -15.5 -26.001 -25.5s-11.5 -24 -11.5 -42c0 -10 5 -15 15 -15h30c10 0 15 -5 15 -15v-15
c0 -10 -5 -15 -15 -15h-30z" />
    <glyph glyph-name="Ydieresis" unicode="&#x178;" horiz-adv-x="262" 
d="M116 0c-10 0 -15 5 -15 15v275l-90 395c-2 10 1.33301 15 10 15h30c11.333 0 18 -5 20 -15l60 -275l60 275c2 10 8.66699 15 20 15h30c8.66699 0 12 -5 10 -15l-90 -395v-275c0 -10 -5 -15 -15 -15h-30zM46 825c0 10 5 15 15 15h30c10 0 15 -5 15 -15v-30
c0 -10 -5 -15 -15 -15h-30c-10 0 -15 5 -15 15v30zM156 825c0 10 5 15 15 15h30c10 0 15 -5 15 -15v-30c0 -10 -5 -15 -15 -15h-30c-10 0 -15 5 -15 15v30z" />
    <glyph glyph-name="Zacute" unicode="&#x179;" horiz-adv-x="242" 
d="M216 60c10 0 15 -5 15 -15v-30c0 -10 -5 -15 -15 -15h-190c-5.33301 0 -9.5 1.16699 -12.5 3.5s-3.83301 6.16602 -2.5 11.499l150 625h-125c-10 0 -15 5 -15 15v30c0 10 5 15 15 15h180c5.33301 0 9.5 -1.16699 12.5 -3.5s3.83301 -6.16602 2.5 -11.499l-150 -625h135v0
zM120 770c-10 0 -13.333 5.00195 -10 15.002l30 90c2.66699 10 9.33398 15 20.001 15h40c5.33301 0 9 -1.33301 11 -4s1.66699 -6.33398 -1 -11.001l-55 -90c-2.66699 -4.66699 -5.33398 -8.33398 -8.00098 -11.001s-6.66699 -4 -12 -4h-15v0z" />
    <glyph glyph-name="zacute" unicode="&#x17a;" horiz-adv-x="222" 
d="M91 60h105c10 0 15 -5 15 -15v-30c0 -10 -5 -15 -15 -15h-170c-7.33301 -0 -12 1.83301 -14 5.5s-2.33301 6.83398 -1 9.50098l120 325h-105c-10 0 -15 5 -15 15v30c0 10 5 15 15 15h170c7.33301 0 12 -1.83301 14 -5.5s2.33301 -6.83398 1 -9.50098zM100 481
c-10 0 -13.333 5.00195 -10 15.002l30 90c2.66699 10 9.33398 15 20.001 15h40c5.33301 0 9 -1.33301 11 -4s1.66699 -6.33398 -1 -11.001l-55 -90c-2.66699 -4.66699 -5.33398 -8.33398 -8.00098 -11.001s-6.66699 -4 -12 -4h-15v0z" />
    <glyph glyph-name="Zdotaccent" unicode="&#x17b;" horiz-adv-x="242" 
d="M216 60c10 0 15 -5 15 -15v-30c0 -10 -5 -15 -15 -15h-190c-5.33301 0 -9.5 1.16699 -12.5 3.5s-3.83301 6.16602 -2.5 11.499l150 625h-125c-10 0 -15 5 -15 15v30c0 10 5 15 15 15h180c5.33301 0 9.5 -1.16699 12.5 -3.5s3.83301 -6.16602 2.5 -11.499l-150 -625h135v0
zM90 825c0 10 5 15 15 15h30c10 0 15 -5 15 -15v-30c0 -10 -5 -15 -15 -15h-30c-10 0 -15 5 -15 15v30z" />
    <glyph glyph-name="zdotaccent" unicode="&#x17c;" horiz-adv-x="222" 
d="M91 60h105c10 0 15 -5 15 -15v-30c0 -10 -5 -15 -15 -15h-170c-7.33301 -0 -12 1.83301 -14 5.5s-2.33301 6.83398 -1 9.50098l120 325h-105c-10 0 -15 5 -15 15v30c0 10 5 15 15 15h170c7.33301 0 12 -1.83301 14 -5.5s2.33301 -6.83398 1 -9.50098zM80 536
c0 10 5 15 15 15h30c10 0 15 -5 15 -15v-30c0 -10 -5 -15 -15 -15h-30c-10 0 -15 5 -15 15v30z" />
    <glyph glyph-name="Zcaron" unicode="&#x17d;" horiz-adv-x="242" 
d="M216 60c10 0 15 -5 15 -15v-30c0 -10 -5 -15 -15 -15h-190c-5.33301 0 -9.5 1.16699 -12.5 3.5s-3.83301 6.16602 -2.5 11.499l150 625h-125c-10 0 -15 5 -15 15v30c0 10 5 15 15 15h180c5.33301 0 9.5 -1.16699 12.5 -3.5s3.83301 -6.16602 2.5 -11.499l-150 -625h135v0
zM113 770c-10 0 -18.334 5 -25.001 15l-50 70c-8 10 -6.33301 15 5 15h25c5.33301 0 9.5 -1.16699 12.5 -3.5s7.16699 -6.16602 12.5 -11.499l32 -38l32 38c5.33301 5.33301 9.5 9.16602 12.5 11.499s7.16699 3.5 12.5 3.5h25c11.333 0 13 -5 5 -15l-50 -70
c-7.33301 -10 -15.666 -15 -24.999 -15h-24z" />
    <glyph glyph-name="zcaron" unicode="&#x17e;" horiz-adv-x="222" 
d="M91 60h105c10 0 15 -5 15 -15v-30c0 -10 -5 -15 -15 -15h-170c-7.33301 -0 -12 1.83301 -14 5.5s-2.33301 6.83398 -1 9.50098l120 325h-105c-10 0 -15 5 -15 15v30c0 10 5 15 15 15h170c7.33301 0 12 -1.83301 14 -5.5s2.33301 -6.83398 1 -9.50098zM100 481
c-10 0 -18.334 5 -25.001 15l-50 70c-8 10 -6.33301 15 5 15h25c5.33301 0 9.5 -1.16699 12.5 -3.5s7.16699 -6.16602 12.5 -11.499l32 -38l32 38c5.33301 5.33301 9.5 9.16602 12.5 11.499s7.16699 3.5 12.5 3.5h25c11.333 0 13 -5 5 -15l-50 -70
c-7.33301 -10 -15.666 -15 -24.999 -15h-24z" />
    <glyph glyph-name="florin" unicode="&#x192;" horiz-adv-x="180" 
d="M-40 -155c0 10 5 15 15 15h60c10 0 15 5 15 15v465h-25c-10 0 -15 5 -15 15v30c0 10 5 15 15 15h25v240c0 17.333 5.66699 31.666 17 42.999s25.666 17 42.999 17h75c10 0 15 -5 15 -15v-30c0 -10 -5 -15 -15 -15h-60c-10 0 -15 -5 -15 -15v-225h55c10 0 15 -5 15 -15
v-30c0 -10 -5 -15 -15 -15h-55v-480c0 -17.333 -5.66699 -31.666 -17 -42.999s-25.666 -17 -42.999 -17h-75c-10 0 -15 5 -15 15v30z" />
    <glyph glyph-name="Scommaaccent" unicode="&#x218;" horiz-adv-x="300" 
d="M260 60c0 -17.333 -5.66699 -31.666 -17 -42.999s-25.666 -17 -42.999 -17h-100c-17.333 0 -31.666 5.66699 -42.999 17s-17 25.666 -17 42.999v115c0 10 5 15 15 15h30c10 0 15 -5 15 -15v-100c0 -10 5 -15 15 -15h70c10 0 15 5 15 15v185c0 15.333 -2 26.333 -6 33
s-8.66699 12.334 -14 17.001l-100 90c-10 9.33301 -19.167 20.333 -27.5 33s-12.5 31.667 -12.5 57v150c0 17.333 5.66699 31.666 17 42.999s25.666 17 42.999 17h100c17.333 0 31.666 -5.66699 42.999 -17s17 -25.666 17 -42.999v-110c0 -10 -5 -15 -15 -15h-30
c-10 0 -15 5 -15 15v95c0 10 -5 15 -15 15h-70c-10 0 -15 -5 -15 -15v-125c0 -15.333 2 -26.333 6 -33s8.66699 -12.334 14 -17.001l100 -90c10 -9.33301 19.167 -20.333 27.5 -33s12.5 -31.667 12.5 -57v-210zM165 -70c10 0 15.002 -5 15.002 -15v-30
c0 -2.66699 -0.333008 -5.16699 -1 -7.5s-1.33398 -4.5 -2.00098 -6.5c-0.666992 -2.66699 -1.33398 -4.66699 -2.00098 -6l-15 -35c-2.66699 -6.66699 -6 -10 -10 -10h-10c-6 0 -7.66699 3.33301 -5 10l15 40h-15c-10 0 -15 5 -15 15v30c0 10 5 15 15 15h30v0z" />
    <glyph glyph-name="scommaaccent" unicode="&#x219;" horiz-adv-x="270" 
d="M235 60c0 -17.333 -5.66699 -31.666 -17 -42.999s-25.666 -17 -42.999 -17h-80c-17.333 0 -31.666 5.66699 -42.999 17s-17 25.666 -17 42.999v65c0 10 5 15 15 15h30c10 0 15 -5 15 -15v-50c0 -10 5 -15 15 -15h50c10 0 15 5 15 15v45c0 15.333 -2 26 -6 32
s-8.66699 10.333 -14 13l-80 45c-10 5.33301 -19.167 13.666 -27.5 24.999s-12.5 29.666 -12.5 54.999v50c0 17.333 5.66699 31.666 17 42.999s25.666 17 42.999 17h80c17.333 0 31.666 -5.66699 42.999 -17s17 -25.666 17 -42.999v-60c0 -10 -5 -15 -15 -15h-30
c-10 0 -15 5 -15 15v45c0 10 -5 15 -15 15h-50c-10 0 -15 -5 -15 -15v-30c0 -15.333 2 -26 6 -32s8.66699 -10.333 14 -13l80 -45c10 -5.33301 19.167 -13.666 27.5 -24.999s12.5 -29.666 12.5 -54.999v-65zM150 -70c10 0 15.002 -5 15.002 -15v-30
c0 -2.66699 -0.333008 -5.16699 -1 -7.5s-1.33398 -4.5 -2.00098 -6.5c-0.666992 -2.66699 -1.33398 -4.66699 -2.00098 -6l-15 -35c-2.66699 -6.66699 -6 -10 -10 -10h-10c-6 0 -7.66699 3.33301 -5 10l15 40h-15c-10 0 -15 5 -15 15v30c0 10 5 15 15 15h30v0z" />
    <glyph glyph-name="afii57929" unicode="&#x2bc;" horiz-adv-x="120" 
d="M75 700c10 0 15.002 -5 15.002 -15v-30c0 -2.66699 -0.333008 -5.16699 -1 -7.5s-1.33398 -4.5 -2.00098 -6.5c-0.666992 -2.66699 -1.33398 -4.66699 -2.00098 -6l-15 -35c-2.66699 -6.66699 -6 -10 -10 -10h-10c-6 0 -7.66699 3.33301 -5 10l15 40h-15
c-10 0 -15 5 -15 15v30c0 10 5 15 15 15h30v0z" />
    <glyph glyph-name="circumflex" unicode="&#x2c6;" horiz-adv-x="244" 
d="M134 700c9.33301 0 17.667 -5 25 -15l50 -70c8 -10 6.33301 -15 -5 -15h-25c-5.33301 0 -9.5 1.16699 -12.5 3.5s-7.16699 6.16602 -12.5 11.499l-32 38l-32 -38c-5.33301 -5.33301 -9.5 -9.16602 -12.5 -11.499s-7.16699 -3.5 -12.5 -3.5h-25c-11.333 0 -13 5 -5 15
l50 70c6.66699 10 15 15 25 15h24z" />
    <glyph glyph-name="caron" unicode="&#x2c7;" horiz-adv-x="244" 
d="M110 600c-10 0 -18.334 5 -25.001 15l-50 70c-8 10 -6.33301 15 5 15h25c5.33301 0 9.5 -1.16699 12.5 -3.5s7.16699 -6.16602 12.5 -11.499l32 -38l32 38c5.33301 5.33301 9.5 9.16602 12.5 11.499s7.16699 3.5 12.5 3.5h25c11.333 0 13 -5 5 -15l-50 -70
c-7.33301 -10 -15.666 -15 -24.999 -15h-24z" />
    <glyph glyph-name="breve" unicode="&#x2d8;" horiz-adv-x="240" 
d="M160 685c0 10 4.99805 15 14.998 15h20c10 0 15 -5 15 -15v-25c0 -17.333 -5.66699 -31.666 -17 -42.999s-25.666 -17 -42.999 -17h-60c-17.333 0 -31.666 5.66699 -42.999 17s-17 25.666 -17 42.999v25c0 10 5 15 15 15h20c10 0 15 -5 15 -15v-20c0 -10 5 -15 15 -15h50
c10 0 15 5 15 15v20z" />
    <glyph glyph-name="dotaccent" unicode="&#x2d9;" horiz-adv-x="120" 
d="M30 685c0 10 5 15 15 15h30c10 0 15 -5 15 -15v-30c0 -10 -5 -15 -15 -15h-30c-10 0 -15 5 -15 15v30z" />
    <glyph glyph-name="ring" unicode="&#x2da;" horiz-adv-x="190" 
d="M115 640c0 10 -5 15 -15 15h-10c-10 0 -15 -5 -15 -15v-10c0 -10 5 -15 15 -15h10c10 0 15 5 15 15v10zM160 630c0 -17.333 -5.66699 -31.666 -17 -42.999s-25.666 -17 -42.999 -17h-10c-17.333 0 -31.666 5.66699 -42.999 17s-17 25.666 -17 42.999v10
c0 17.333 5.66699 31.666 17 42.999s25.666 17 42.999 17h10c17.333 0 31.666 -5.66699 42.999 -17s17 -25.666 17 -42.999v-10z" />
    <glyph glyph-name="ogonek" unicode="&#x2db;" horiz-adv-x="165" 
d="M90 -160c-17.333 0 -31.6689 5.66699 -43.002 17s-17 25.666 -17 42.999c0 15.333 4.33301 28.833 13 40.5s18.334 22.167 29.001 31.5c12 10 26.333 19.333 43 28h20c-11.333 -9.33301 -21.333 -19.666 -30 -30.999c-7.33301 -9.33301 -14.166 -20 -20.499 -32
s-9.5 -24.333 -9.5 -37c0 -10 5 -15 15 -15h30c10 0 15 -5 15 -15v-15c0 -10 -5 -15 -15 -15h-30z" />
    <glyph glyph-name="tilde" unicode="&#x2dc;" horiz-adv-x="240" 
d="M210 655c0 -15.333 -4.5 -27.5 -13.5 -36.5s-21.167 -13.5 -36.5 -13.5h-10c-10 0 -17.833 2.33301 -23.5 7s-11.167 10.667 -16.5 18l-5 10c-3.33301 5.33301 -6.16602 9.16602 -8.49902 11.499s-6.16602 3.5 -11.499 3.5c-10 0 -15 -5 -15 -15v-20
c0 -10 -5 -15 -15 -15h-10c-10 0 -15 5 -15 15v30c0 15.333 4.5 27.5 13.5 36.5s21.167 13.5 36.5 13.5h10c10 0 17.833 -2.33301 23.5 -7s11.167 -10.667 16.5 -18l5 -10c3.33301 -5.33301 6.16602 -9.16602 8.49902 -11.499s6.16602 -3.5 11.499 -3.5c10 0 15 5 15 15v20
c0 10 5 15 15 15h10c10 0 15 -5 15 -15v-30z" />
    <glyph glyph-name="hungarumlaut" unicode="&#x2dd;" horiz-adv-x="244" 
d="M42 580c-10 0 -13.333 5.00195 -10 15.002l30 90c2.66699 10 9.33398 15 20.001 15h30c5.33301 0 9 -1.33301 11 -4s1.66699 -6.33398 -1 -11.001l-55 -90c-2.66699 -4.66699 -5.33398 -8.33398 -8.00098 -11.001s-6.66699 -4 -12 -4h-5zM132 580.002
c-10 0 -13.333 5.00195 -10 15.002l30 90c2.66699 10 9.33398 15 20.001 15h30c5.33301 0 9 -1.33301 11 -4s1.66699 -6.33398 -1 -11.001l-55 -90c-2.66699 -4.66699 -5.33398 -8.33398 -8.00098 -11.001s-6.66699 -4 -12 -4h-5z" />
    <glyph glyph-name="afii10023" unicode="&#x401;" horiz-adv-x="260" 
d="M50 685c0 10 5 15 15 15h170c10 0 15 -5 15 -15v-30c0 -10 -5 -15 -15 -15h-125v-210h85c10 0 15 -5 15 -15v-30c0 -10 -5 -15 -15 -15h-85v-310h125c10 0 15 -5 15 -15v-30c0 -10 -5 -15 -15 -15h-170c-10 0 -15 5 -15 15v670zM65 825c0 10 5 15 15 15h30
c10 0 15 -5 15 -15v-30c0 -10 -5 -15 -15 -15h-30c-10 0 -15 5 -15 15v30zM175 825c0 10 5 15 15 15h30c10 0 15 -5 15 -15v-30c0 -10 -5 -15 -15 -15h-30c-10 0 -15 5 -15 15v30z" />
    <glyph glyph-name="afii10051" unicode="&#x402;" horiz-adv-x="330" 
d="M190 15c0 10 5 14.998 15 14.998h10c10 0 15 5 15 15v320c0 10 -5 15 -15 15h-75v-365c0 -10 -5 -15 -15 -15h-30c-10 0 -15 5 -15 15v625h-65c-10 0 -15 5 -15 15v30c0 10 5 15 15 15h190c10 0 15 -5 15 -15v-30c0 -10 -5 -15 -15 -15h-65v-200h90
c17.333 0 31.666 -5.66699 42.999 -17s17 -25.666 17 -42.999v-350c0 -17.333 -5.66699 -31.666 -17 -42.999s-25.666 -17 -42.999 -17h-25c-10 0 -15 5 -15 15v30z" />
    <glyph glyph-name="afii10052" unicode="&#x403;" horiz-adv-x="250" 
d="M50 685c0 10 5 15 15 15h170c10 0 15 -5 15 -15v-30c0 -10 -5 -15 -15 -15h-125v-625c0 -10 -5 -15 -15 -15h-30c-10 0 -15 5 -15 15v670zM139 770c-10 0 -13.333 5.00195 -10 15.002l30 90c2.66699 10 9.33398 15 20.001 15h40c5.33301 0 9 -1.33301 11 -4
s1.66699 -6.33398 -1 -11.001l-55 -90c-2.66699 -4.66699 -5.33398 -8.33398 -8.00098 -11.001s-6.66699 -4 -12 -4h-15v0z" />
    <glyph glyph-name="afii10053" unicode="&#x404;" horiz-adv-x="300" 
d="M270 60c0 -17.333 -5.66699 -31.666 -17 -42.999s-25.666 -17 -42.999 -17h-100c-17.333 0 -31.666 5.66699 -42.999 17s-17 25.666 -17 42.999v580c0 17.333 5.66699 31.666 17 42.999s25.666 17 42.999 17h100c17.333 0 31.666 -5.66699 42.999 -17
s17 -25.666 17 -42.999v-110c0 -10 -5 -15 -15 -15h-30c-10 0 -15 5 -15 15v95c0 10 -5 15 -15 15h-70c-10 0 -15 -5 -15 -15v-235h105c10 0 15 -5 15 -15v-30c0 -10 -5 -15 -15 -15h-105v-255c0 -10 5 -15 15 -15h70c10 0 15 5 15 15v100c0 10 5 15 15 15h30
c10 0 15 -5 15 -15v-115z" />
    <glyph glyph-name="afii10054" unicode="&#x405;" horiz-adv-x="300" 
d="M260 60c0 -17.333 -5.66699 -31.666 -17 -42.999s-25.666 -17 -42.999 -17h-100c-17.333 0 -31.666 5.66699 -42.999 17s-17 25.666 -17 42.999v115c0 10 5 15 15 15h30c10 0 15 -5 15 -15v-100c0 -10 5 -15 15 -15h70c10 0 15 5 15 15v185c0 15.333 -2 26.333 -6 33
s-8.66699 12.334 -14 17.001l-100 90c-10 9.33301 -19.167 20.333 -27.5 33s-12.5 31.667 -12.5 57v150c0 17.333 5.66699 31.666 17 42.999s25.666 17 42.999 17h100c17.333 0 31.666 -5.66699 42.999 -17s17 -25.666 17 -42.999v-110c0 -10 -5 -15 -15 -15h-30
c-10 0 -15 5 -15 15v95c0 10 -5 15 -15 15h-70c-10 0 -15 -5 -15 -15v-125c0 -15.333 2 -26.333 6 -33s8.66699 -12.334 14 -17.001l100 -90c10 -9.33301 19.167 -20.333 27.5 -33s12.5 -31.667 12.5 -57v-210z" />
    <glyph glyph-name="afii10055" unicode="&#x406;" horiz-adv-x="160" 
d="M50 685c0 10 5 15 15 15h30c10 0 15 -5 15 -15v-670c0 -10 -5 -15 -15 -15h-30c-10 0 -15 5 -15 15v670z" />
    <glyph glyph-name="afii10056" unicode="&#x407;" horiz-adv-x="170" 
d="M55 685c0 10 5 15 15 15h30c10 0 15 -5 15 -15v-670c0 -10 -5 -15 -15 -15h-30c-10 0 -15 5 -15 15v670zM1 825c0 10 5 15 15 15h30c10 0 15 -5 15 -15v-30c0 -10 -5 -15 -15 -15h-30c-10 0 -15 5 -15 15v30zM111 825c0 10 5 15 15 15h30c10 0 15 -5 15 -15v-30
c0 -10 -5 -15 -15 -15h-30c-10 0 -15 5 -15 15v30z" />
    <glyph glyph-name="afii10057" unicode="&#x408;" 
d="M170 685c0 10 4.99805 15 14.998 15h30c10 0 15 -5 15 -15v-625c0 -17.333 -5.66699 -31.666 -17 -42.999s-25.666 -17 -42.999 -17h-80c-17.333 0 -31.666 5.66699 -42.999 17s-17 25.666 -17 42.999v115c0 10 5 15 15 15h30c10 0 15 -5 15 -15v-100c0 -10 5 -15 15 -15
h50c10 0 15 5 15 15v610z" />
    <glyph glyph-name="afii10058" unicode="&#x409;" horiz-adv-x="470" 
d="M210 640l-60 -0.00292969l-40 -585c-1.33301 -17.333 -7.33301 -31.666 -18 -42.999s-24.667 -17 -42 -17h-35c-10 0 -15 5 -15 15v30c0 10 5 15 15 15h20c8.66699 0 13.667 5 15 15l45 615c0.666992 10 5.66699 15 15 15h145c10 0 15 -5 15 -15v-255h100
c17.333 0 31.666 -5.66699 42.999 -17s17 -25.666 17 -42.999v-310c0 -17.333 -5.66699 -31.666 -17 -42.999s-25.666 -17 -42.999 -17h-145c-10 0 -15 5 -15 15v625zM355 59.9971c10 0 15 5 15 15v280c0 10 -5 15 -15 15h-85v-310h85z" />
    <glyph glyph-name="afii10059" unicode="&#x40a;" horiz-adv-x="470" 
d="M210 370l-100 -0.00195312v-355c0 -10 -5 -15 -15 -15h-30c-10 0 -15 5 -15 15v670c0 10 5 15 15 15h30c10 0 15 -5 15 -15v-255h100v255c0 10 5 15 15 15h30c10 0 15 -5 15 -15v-255h100c17.333 0 31.666 -5.66699 42.999 -17s17 -25.666 17 -42.999v-310
c0 -17.333 -5.66699 -31.666 -17 -42.999s-25.666 -17 -42.999 -17h-145c-10 0 -15 5 -15 15v355zM355 59.998c10 0 15 5 15 15v280c0 10 -5 15 -15 15h-85v-310h85z" />
    <glyph glyph-name="afii10060" unicode="&#x40b;" horiz-adv-x="330" 
d="M140 440l90.001 -0.000976562c17.333 0 31.666 -5.66699 42.999 -17s17 -25.666 17 -42.999v-365c0 -10 -5 -15 -15 -15h-30c-10 0 -15 5 -15 15v350c0 10 -5 15 -15 15h-75v-365c0 -10 -5 -15 -15 -15h-30c-10 0 -15 5 -15 15v625h-65c-10 0 -15 5 -15 15v30
c0 10 5 15 15 15h190c10 0 15 -5 15 -15v-30c0 -10 -5 -15 -15 -15h-65v-200z" />
    <glyph glyph-name="afii10061" unicode="&#x40c;" horiz-adv-x="282" 
d="M50 685c0 10 5 15 15 15h30c10 0 15 -5 15 -15v-255l90 255c3.33301 10 10 15 20 15h30c10.667 0 14 -5 10 -15l-90 -255l110 -415c2.66699 -10 -0.666016 -15 -9.99902 -15h-30c-10.667 0 -17.334 5 -20.001 15l-85 330l-25 -70v-260c0 -10 -5 -15 -15 -15h-30
c-10 0 -15 5 -15 15v670zM145 770c-10 0 -13.333 5.00195 -10 15.002l30 90c2.66699 10 9.33398 15 20.001 15h40c5.33301 0 9 -1.33301 11 -4s1.66699 -6.33398 -1 -11.001l-55 -90c-2.66699 -4.66699 -5.33398 -8.33398 -8.00098 -11.001s-6.66699 -4 -12 -4h-15v0z" />
    <glyph glyph-name="afii10062" unicode="&#x40e;" horiz-adv-x="272" 
d="M251 700c8.66699 0 12 -5 10 -15l-145 -670c-2 -10 -8.66699 -15 -20 -15h-30c-8.66699 0 -12 5 -10 15l50 230l-95 440c-2 10 1.33301 15 10 15h30c10 0 16.667 -5 20 -15l65 -305l65 305c2 10 8.66699 15 20 15h30v0zM176 855c0 10 4.99805 15 14.998 15h20
c10 0 15 -5 15 -15v-25c0 -17.333 -5.66699 -31.666 -17 -42.999s-25.666 -17 -42.999 -17h-60c-17.333 0 -31.666 5.66699 -42.999 17s-17 25.666 -17 42.999v25c0 10 5 15 15 15h20c10 0 15 -5 15 -15v-20c0 -10 5 -15 15 -15h50c10 0 15 5 15 15v20z" />
    <glyph glyph-name="afii10145" unicode="&#x40f;" horiz-adv-x="320" 
d="M65 0c-10 0 -15 5 -15 15v670c0 10 5 15 15 15h30c10 0 15 -5 15 -15v-625h100v625c0 10 5 15 15 15h30c10 0 15 -5 15 -15v-670c0 -10 -5 -15 -15 -15h-65v-75c0 -10 -5 -15 -15 -15h-30c-10 0 -15 5 -15 15v75h-65z" />
    <glyph glyph-name="afii10017" unicode="&#x410;" horiz-adv-x="300" 
d="M180 700c8.66699 0 13.667 -5 15 -15l85 -670c0 -10 -5 -15 -15 -15h-30c-9.33301 0 -14.333 5 -15 15l-15 115h-110l-15 -115c-1.33301 -10 -6.33301 -15 -15 -15h-30c-10 0 -15 5 -15 15l85 670c0.666992 10 5.66699 15 15 15h60zM200 190l-50 405l-50 -405h100z" />
    <glyph glyph-name="afii10018" unicode="&#x411;" horiz-adv-x="310" 
d="M50 685c0 10 5 14.998 15 14.998h170c10 0 15 -5 15 -15v-30c0 -10 -5 -15 -15 -15h-125v-210h100c17.333 0 31.666 -5.66699 42.999 -17s17 -25.666 17 -42.999v-310c0 -17.333 -5.66699 -31.666 -17 -42.999s-25.666 -17 -42.999 -17h-145c-10 0 -15 5 -15 15v670z
M195 59.998c10 0 15 5 15 15v280c0 10 -5 15 -15 15h-85v-310h85z" />
    <glyph glyph-name="afii10019" unicode="&#x412;" horiz-adv-x="315" 
d="M50 685c0 10 4.99902 14.9971 14.999 14.9971h135c17.333 0 31.666 -5.66699 42.999 -17s17 -25.666 17 -42.999v-190c0 -10 -1.66699 -18 -5 -24s-6.66602 -10.667 -9.99902 -14c-4.66699 -3.33301 -9.66699 -5.66602 -15 -6.99902c7.33301 -2 14 -5 20 -9
c5.33301 -4 10 -9.5 14 -16.5s6 -16.833 6 -29.5v-290c0 -17.333 -5.66699 -31.666 -17 -42.999s-25.666 -17 -42.999 -17h-145c-10 0 -15 5 -15 15v670zM194.999 59.9971c10 0 15 5 15 15v280c0 10 -5 15 -15 15h-85v-310h85zM109.999 639.997v-210h75c10 0 15 5 15 15v180
c0 10 -5 15 -15 15h-75z" />
    <glyph glyph-name="afii10020" unicode="&#x413;" horiz-adv-x="250" 
d="M50 685c0 10 5 15 15 15h170c10 0 15 -5 15 -15v-30c0 -10 -5 -15 -15 -15h-125v-625c0 -10 -5 -15 -15 -15h-30c-10 0 -15 5 -15 15v670z" />
    <glyph glyph-name="afii10021" unicode="&#x414;" horiz-adv-x="320" 
d="M85 685c0.666992 10 5.66699 15 15 15h145c10 0 15 -5 15 -15v-625h25c10 0 15 -5 15 -15v-120c0 -10 -5 -15 -15 -15h-30c-10 0 -15 5 -15 15v75h-180v-75c0 -10 -5 -15 -15 -15h-30c-10 0 -15 5 -15 15v120c0 10 5 15 15 15h25zM200 60v580h-60l-40 -580h100z" />
    <glyph glyph-name="afii10022" unicode="&#x415;" horiz-adv-x="260" 
d="M50 685c0 10 5 15 15 15h170c10 0 15 -5 15 -15v-30c0 -10 -5 -15 -15 -15h-125v-210h85c10 0 15 -5 15 -15v-30c0 -10 -5 -15 -15 -15h-85v-310h125c10 0 15 -5 15 -15v-30c0 -10 -5 -15 -15 -15h-170c-10 0 -15 5 -15 15v670z" />
    <glyph glyph-name="afii10024" unicode="&#x416;" horiz-adv-x="404" 
d="M112 430l-90 255c-4 10 -0.666992 15 10 15h30c10 0 16.667 -5 20 -15l90 -255v255c0 10 5 15 15 15h30c10 0 15 -5 15 -15v-255l90 255c3.33301 10 10 15 20 15h30c10.667 0 14 -5 10 -15l-90 -255l110 -415c2.66699 -10 -0.666016 -15 -9.99902 -15h-30
c-10.667 0 -17.334 5 -20.001 15l-85 330l-25 -70v-260c0 -10 -5 -15 -15 -15h-30c-10 0 -15 5 -15 15v260l-25 70l-85 -330c-3.33301 -10 -10 -15 -20 -15h-30c-10 0 -13.333 5 -10 15z" />
    <glyph glyph-name="afii10025" unicode="&#x417;" horiz-adv-x="295" 
d="M115 340c-10 0 -15 5 -15 15v30c0 10 5 15 15 15h60c10 0 15 5 15 15v210c0 10 -5 15 -15 15h-70c-10 0 -15 -5 -15 -15v-95c0 -10 -5 -15 -15 -15h-30c-10 0 -15 5 -15 15v110c0 17.333 5.66699 31.666 17 42.999s25.666 17 42.999 17h100
c17.333 0 31.666 -5.66699 42.999 -17s17 -25.666 17 -42.999v-220c0 -10 -1.83301 -18.333 -5.5 -25s-7.83398 -11.667 -12.501 -15c-5.33301 -4.66699 -11 -8 -17 -10c6 -2.66699 11.667 -6 17 -10c4.66699 -4 8.83398 -9.16699 12.501 -15.5s5.5 -14.5 5.5 -24.5v-260
c0 -17.333 -5.66699 -31.666 -17 -42.999s-25.666 -17 -42.999 -17h-100c-17.333 0 -31.666 5.66699 -42.999 17s-17 25.666 -17 42.999v115c0 10 5 15 15 15h30c10 0 15 -5 15 -15v-100c0 -10 5 -15 15 -15h70c10 0 15 5 15 15v250c0 10 -5 15 -15 15h-60z" />
    <glyph glyph-name="afii10026" unicode="&#x418;" horiz-adv-x="320" 
d="M255 700c10 0 15 -5 15 -15v-670c0 -10 -5 -15 -15 -15h-30c-10 0 -15 5 -15 15v330l-100 -330c-3.33301 -10 -10 -15 -20 -15h-25c-10 0 -15 5 -15 15v670c0 10 5 15 15 15h30c10 0 15 -5 15 -15v-485l100 330v155c0 10 5 15 15 15h30v0z" />
    <glyph glyph-name="afii10027" unicode="&#x419;" horiz-adv-x="320" 
d="M255 700c10 0 15 -5 15 -15v-670c0 -10 -5 -15 -15 -15h-30c-10 0 -15 5 -15 15v330l-100 -330c-3.33301 -10 -10 -15 -20 -15h-25c-10 0 -15 5 -15 15v670c0 10 5 15 15 15h30c10 0 15 -5 15 -15v-485l100 330v155c0 10 5 15 15 15h30zM95 780c-10 0 -15 5 -15 15v30
c0 10 5 15 15 15h130c10 0 15 -5 15 -15v-30c0 -10 -5 -15 -15 -15h-130z" />
    <glyph glyph-name="afii10028" unicode="&#x41a;" horiz-adv-x="282" 
d="M50 685c0 10 5 15 15 15h30c10 0 15 -5 15 -15v-255l90 255c3.33301 10 10 15 20 15h30c10.667 0 14 -5 10 -15l-90 -255l110 -415c2.66699 -10 -0.666016 -15 -9.99902 -15h-30c-10.667 0 -17.334 5 -20.001 15l-85 330l-25 -70v-260c0 -10 -5 -15 -15 -15h-30
c-10 0 -15 5 -15 15v670z" />
    <glyph glyph-name="afii10029" unicode="&#x41b;" horiz-adv-x="320" 
d="M110 55c-1.33301 -17.333 -7.33301 -31.667 -18 -43s-24.667 -17 -42 -17h-35c-10 0 -15 5 -15 15v30c0 10 5 15 15 15h20c8.66699 0 13.667 5 15 15l45 615c0.666992 10 5.66699 15 15 15h145c10 0 15 -5 15 -15v-670c0 -10 -5 -15 -15 -15h-30c-10 0 -15 5 -15 15v625
h-60z" />
    <glyph glyph-name="afii10030" unicode="&#x41c;" horiz-adv-x="450" 
d="M205 140c-5.33301 0 -8.83301 1.16699 -10.5 3.5s-3.16699 6.16602 -4.5 11.499l-80 385v-525c0 -10 -5 -15 -15 -15h-30c-10 0 -15 5 -15 15v670c0 10 5 15 15 15h55c5.33301 0 8.83301 -1.16699 10.5 -3.5s3.16699 -6.16602 4.5 -11.499l90 -435l90 435
c1.33301 5.33301 2.83301 9.16602 4.5 11.499s5.16699 3.5 10.5 3.5h55c10 0 15 -5 15 -15v-670c0 -10 -5 -15 -15 -15h-30c-10 0 -15 5 -15 15v525l-80 -385c-1.33301 -5.33301 -2.83301 -9.16602 -4.5 -11.499s-5.16699 -3.5 -10.5 -3.5h-40z" />
    <glyph glyph-name="afii10031" unicode="&#x41d;" horiz-adv-x="320" 
d="M50 685c0 10 5 15 15 15h30c10 0 15 -5 15 -15v-255h100v255c0 10 5 15 15 15h30c10 0 15 -5 15 -15v-670c0 -10 -5 -15 -15 -15h-30c-10 0 -15 5 -15 15v355h-100v-355c0 -10 -5 -15 -15 -15h-30c-10 0 -15 5 -15 15v670z" />
    <glyph glyph-name="afii10032" unicode="&#x41e;" horiz-adv-x="320" 
d="M50 640c0 17.333 5.66699 31.666 17 42.999s25.666 17 42.999 17h100c17.333 0 31.666 -5.66699 42.999 -17s17 -25.666 17 -42.999v-580c0 -17.333 -5.66699 -31.666 -17 -42.999s-25.666 -17 -42.999 -17h-100c-17.333 0 -31.666 5.66699 -42.999 17
s-17 25.666 -17 42.999v580zM195 60c10 0 15 5 15 15v550c0 10 -5 15 -15 15h-70c-10 0 -15 -5 -15 -15v-550c0 -10 5 -15 15 -15h70z" />
    <glyph glyph-name="afii10033" unicode="&#x41f;" horiz-adv-x="320" 
d="M50 685c0 10 5 15 15 15h190c10 0 15 -5 15 -15v-670c0 -10 -5 -15 -15 -15h-30c-10 0 -15 5 -15 15v625h-100v-625c0 -10 -5 -15 -15 -15h-30c-10 0 -15 5 -15 15v670z" />
    <glyph glyph-name="afii10034" unicode="&#x420;" horiz-adv-x="310" 
d="M50 685c0 10 5 14.998 15 14.998h145c17.333 0 31.666 -5.66699 42.999 -17s17 -25.666 17 -42.999v-360c0 -17.333 -5.66699 -31.666 -17 -42.999s-25.666 -17 -42.999 -17h-100v-205c0 -10 -5 -15 -15 -15h-30c-10 0 -15 5 -15 15v670zM110 639.998v-360h85
c10 0 15 5 15 15v330c0 10 -5 15 -15 15h-85z" />
    <glyph glyph-name="afii10035" unicode="&#x421;" horiz-adv-x="300" 
d="M270 60c0 -17.333 -5.66699 -31.666 -17 -42.999s-25.666 -17 -42.999 -17h-100c-17.333 0 -31.666 5.66699 -42.999 17s-17 25.666 -17 42.999v580c0 17.333 5.66699 31.666 17 42.999s25.666 17 42.999 17h100c17.333 0 31.666 -5.66699 42.999 -17
s17 -25.666 17 -42.999v-110c0 -10 -5 -15 -15 -15h-30c-10 0 -15 5 -15 15v95c0 10 -5 15 -15 15h-70c-10 0 -15 -5 -15 -15v-550c0 -10 5 -15 15 -15h70c10 0 15 5 15 15v100c0 10 5 15 15 15h30c10 0 15 -5 15 -15v-115z" />
    <glyph glyph-name="afii10036" unicode="&#x422;" horiz-adv-x="240" 
d="M150 15c0 -10 -5 -15 -15 -15h-30c-10 0 -15 5 -15 15v625h-75c-10 0 -15 5 -15 15v30c0 10 5 15 15 15h210c10 0 15 -5 15 -15v-30c0 -10 -5 -15 -15 -15h-75v-625z" />
    <glyph glyph-name="afii10037" unicode="&#x423;" horiz-adv-x="272" 
d="M251 700c8.66699 0 12 -5 10 -15l-145 -670c-2 -10 -8.66699 -15 -20 -15h-30c-8.66699 0 -12 5 -10 15l50 230l-95 440c-2 10 1.33301 15 10 15h30c10 0 16.667 -5 20 -15l65 -305l65 305c2 10 8.66699 15 20 15h30v0z" />
    <glyph glyph-name="afii10038" unicode="&#x424;" horiz-adv-x="440" 
d="M40 550c0 17.333 5.66699 31.666 17 42.999s25.666 17 42.999 17h90v85c0 10 5 15 15 15h30c10 0 15 -5 15 -15v-85h90c17.333 0 31.666 -5.66699 42.999 -17s17 -25.666 17 -42.999v-400c0 -17.333 -5.66699 -31.666 -17 -42.999s-25.666 -17 -42.999 -17h-90v-85
c0 -10 -5 -15 -15 -15h-30c-10 0 -15 5 -15 15v85h-90c-17.333 0 -31.666 5.66699 -42.999 17s-17 25.666 -17 42.999v400zM325 150c10 0 15 5 15 15v370c0 10 -5 15 -15 15h-75v-400h75zM100 165c0 -10 5 -15 15 -15h75v400h-75c-10 0 -15 -5 -15 -15v-370z" />
    <glyph glyph-name="afii10039" unicode="&#x425;" horiz-adv-x="272" 
d="M76 15c-2 -10 -8.66699 -15 -20 -15h-30c-8.66699 0 -12 5 -10 15l85 350l-75 320c-2 10 1.33301 15 10 15h30c11.333 0 18 -5 20 -15l50 -225l50 225c2 10 8.66699 15 20 15h30c8.66699 0 12 -5 10 -15l-75 -320l85 -350c2 -10 -1.33301 -15 -10 -15h-30
c-11.333 0 -18 5 -20 15l-60 260z" />
    <glyph glyph-name="afii10040" unicode="&#x426;" horiz-adv-x="310" 
d="M65 0c-10 0 -15 5 -15 15v670c0 10 5 15 15 15h30c10 0 15 -5 15 -15v-625h80v625c0 10 5 15 15 15h30c10 0 15 -5 15 -15v-625h25c10 0 15 -5 15 -15v-120c0 -10 -5 -15 -15 -15h-30c-10 0 -15 5 -15 15v75h-165v0z" />
    <glyph glyph-name="afii10041" unicode="&#x427;" horiz-adv-x="300" 
d="M190 320l-0.000976562 365.001c0 10 5 15 15 15h30c10 0 15 -5 15 -15v-670c0 -10 -5 -15 -15 -15h-30c-10 0 -15 5 -15 15v245h-90c-17.333 0 -31.666 5.66699 -42.999 17s-17 25.666 -17 42.999v365c0 10 5 15 15 15h30c10 0 15 -5 15 -15v-350c0 -10 5 -15 15 -15h75z
" />
    <glyph glyph-name="afii10042" unicode="&#x428;" horiz-adv-x="460" 
d="M50 685c0 10 5 15 15 15h30c10 0 15 -5 15 -15v-625h90v625c0 10 5 15 15 15h30c10 0 15 -5 15 -15v-625h90v625c0 10 5 15 15 15h30c10 0 15 -5 15 -15v-670c0 -10 -5 -15 -15 -15h-330c-10 0 -15 5 -15 15v670z" />
    <glyph glyph-name="afii10043" unicode="&#x429;" horiz-adv-x="470" 
d="M65 0c-10 0 -15 5 -15 15v670c0 10 5 15 15 15h30c10 0 15 -5 15 -15v-625h90v625c0 10 5 15 15 15h30c10 0 15 -5 15 -15v-625h90v625c0 10 5 15 15 15h30c10 0 15 -5 15 -15v-625h25c10 0 15 -5 15 -15v-120c0 -10 -5 -15 -15 -15h-30c-10 0 -15 5 -15 15v75h-325z" />
    <glyph glyph-name="afii10044" unicode="&#x42a;" horiz-adv-x="340" 
d="M80 640l-65 -0.00195312c-10 0 -15 5 -15 15v30c0 10 5 15 15 15h110c10 0 15 -5 15 -15v-255h100c17.333 0 31.666 -5.66699 42.999 -17s17 -25.666 17 -42.999v-310c0 -17.333 -5.66699 -31.666 -17 -42.999s-25.666 -17 -42.999 -17h-145c-10 0 -15 5 -15 15v625z
M225 59.998c10 0 15 5 15 15v280c0 10 -5 15 -15 15h-85v-310h85z" />
    <glyph glyph-name="afii10045" unicode="&#x42b;" horiz-adv-x="440" 
d="M50 685c0 10 5 14.998 15 14.998h30c10 0 15 -5 15 -15v-255h100c17.333 0 31.666 -5.66699 42.999 -17s17 -25.666 17 -42.999v-310c0 -17.333 -5.66699 -31.666 -17 -42.999s-25.666 -17 -42.999 -17h-145c-10 0 -15 5 -15 15v670zM195 59.998c10 0 15 5 15 15v280
c0 10 -5 15 -15 15h-85v-310h85zM330 684.998c0 10 5 15 15 15h30c10 0 15 -5 15 -15v-670c0 -10 -5 -15 -15 -15h-30c-10 0 -15 5 -15 15v670z" />
    <glyph glyph-name="afii10046" unicode="&#x42c;" horiz-adv-x="310" 
d="M50 685c0 10 5 14.998 15 14.998h30c10 0 15 -5 15 -15v-255h100c17.333 0 31.666 -5.66699 42.999 -17s17 -25.666 17 -42.999v-310c0 -17.333 -5.66699 -31.666 -17 -42.999s-25.666 -17 -42.999 -17h-145c-10 0 -15 5 -15 15v670zM195 59.998c10 0 15 5 15 15v280
c0 10 -5 15 -15 15h-85v-310h85z" />
    <glyph glyph-name="afii10047" unicode="&#x42d;" horiz-adv-x="300" 
d="M30 175c0 10 5 15 15 15h30c10 0 15 -5 15 -15v-100c0 -10 5 -15 15 -15h70c10 0 15 5 15 15v255h-105c-10 0 -15 5 -15 15v30c0 10 5 15 15 15h105v235c0 10 -5 15 -15 15h-70c-10 0 -15 -5 -15 -15v-95c0 -10 -5 -15 -15 -15h-30c-10 0 -15 5 -15 15v110
c0 17.333 5.66699 31.666 17 42.999s25.666 17 42.999 17h100c17.333 0 31.666 -5.66699 42.999 -17s17 -25.666 17 -42.999v-580c0 -17.333 -5.66699 -31.666 -17 -42.999s-25.666 -17 -42.999 -17h-100c-17.333 0 -31.666 5.66699 -42.999 17s-17 25.666 -17 42.999v115z
" />
    <glyph glyph-name="afii10048" unicode="&#x42e;" horiz-adv-x="450" 
d="M190 320h-80v-305c0 -10 -5 -15 -15 -15h-30c-10 0 -15 5 -15 15v670c0 10 5 15 15 15h30c10 0 15 -5 15 -15v-305h80v260c0 17.333 5.66699 31.666 17 42.999s25.666 17 42.999 17h90c17.333 0 31.666 -5.66699 42.999 -17s17 -25.666 17 -42.999v-580
c0 -17.333 -5.66699 -31.666 -17 -42.999s-25.666 -17 -42.999 -17h-90c-17.333 0 -31.666 5.66699 -42.999 17s-17 25.666 -17 42.999v260zM325 60c10 0 15 5 15 15v550c0 10 -5 15 -15 15h-60c-10 0 -15 -5 -15 -15v-550c0 -10 5 -15 15 -15h60z" />
    <glyph glyph-name="afii10049" unicode="&#x42f;" horiz-adv-x="317" 
d="M267 15c0 -10 -5 -15.001 -15 -15.001h-30c-10 0 -15 5 -15 15v265h-55l-70 -265c-3.33301 -10 -10 -15 -20 -15h-30c-10 0 -13.333 5 -10 15l75 275c-9.33301 2 -17.666 5.66699 -24.999 11c-6.66699 4.66699 -12.5 10.834 -17.5 18.501s-7.5 17.834 -7.5 30.501v290
c0 17.333 5.66699 31.666 17 42.999s25.666 17 42.999 17h145c10 0 15 -5 15 -15v-670zM122 639.999c-10 0 -15 -5 -15 -15v-270c0 -10 5 -15 15 -15h85v300h-85z" />
    <glyph glyph-name="afii10065" unicode="&#x430;" horiz-adv-x="275" 
d="M175 170h-65c-10 0 -15 -5 -15 -15v-80c0 -10 5 -15 15 -15h65v110zM95 0c-17.333 0 -31.6641 5.66895 -42.9971 17.002s-17 25.666 -17 42.999v110c0 17.333 5.66699 31.666 17 42.999s25.666 17 42.999 17h80v95c0 10 -5 15 -15 15h-50c-10 0 -15 -5 -15 -15v-40
c0 -10 -5 -15 -15 -15h-30c-10 0 -15 5 -15 15v55c0 17.333 5.66699 31.666 17 42.999s25.666 17 42.999 17h80c17.333 0 31.666 -5.66699 42.999 -17s17 -25.666 17 -42.999v-325c0 -10 -5 -15 -15 -15h-125z" />
    <glyph glyph-name="afii10066" unicode="&#x431;" 
d="M115 540c-10 0 -15.001 -5.00098 -15.001 -15.001v-125h80c17.333 0 31.666 -5.66699 42.999 -17s17 -25.666 17 -42.999v-280c0 -17.333 -5.66699 -31.666 -17 -42.999s-25.666 -17 -42.999 -17h-80c-17.333 0 -31.666 5.66699 -42.999 17s-17 25.666 -17 42.999v480
c0 17.333 5.66699 31.666 17 42.999s25.666 17 42.999 17h65c10 0 15 5 15 15v40c0 10 5 15 15 15h30c10 0 15 -5 15 -15v-55c0 -17.333 -5.66699 -31.666 -17 -42.999s-25.666 -17 -42.999 -17h-65zM179.999 324.999c0 10 -5 15 -15 15h-50c-10 0 -15 -5 -15 -15v-250
c0 -10 5 -15 15 -15h50c10 0 15 5 15 15v250z" />
    <glyph glyph-name="afii10067" unicode="&#x432;" horiz-adv-x="265" 
d="M220 260c0 -10 -1.66797 -18.0029 -5.00098 -24.0029s-6.66602 -10.667 -9.99902 -14c-4.66699 -3.33301 -9.66699 -5.66602 -15 -6.99902c7.33301 -2 14 -5 20 -9c5.33301 -4 10 -9.5 14 -16.5s6 -16.833 6 -29.5v-100c0 -17.333 -5.66699 -31.666 -17 -42.999
s-25.666 -17 -42.999 -17h-115c-10 0 -15 5 -15 15v16v4v350v3v2c0.666992 0.666992 1 1.66699 1 3c2 4.66699 6.66699 7 14 7h30h3h72c17.333 0 31.666 -5.66699 42.999 -17s17 -25.666 17 -42.999v-80zM169.999 164.997c0 10 -5 15 -15 15h-55v-120h55c10 0 15 5 15 15v90
zM159.999 324.997c0 10 -5 15 -15 15h-45v-100h45c10 0 15 5 15 15v70z" />
    <glyph glyph-name="afii10068" unicode="&#x433;" horiz-adv-x="220" 
d="M100 340v-325c0 -10 -5 -15 -15 -15h-30c-10 0 -15 5 -15 15v370c0 10 5 15 15 15h150c10 0 15 -5 15 -15v-30c0 -10 -5 -15 -15 -15h-105z" />
    <glyph glyph-name="afii10069" unicode="&#x434;" horiz-adv-x="290" 
d="M60 0v-65c0 -10 -5 -15 -15 -15h-30c-10 0 -15 5 -15 15v110c0 10 5 15 15 15h20l25 325c1.33301 10 6.33301 15 15 15h145c10 0 15 -5 15 -15v-325h25c10 0 15 -5 15 -15v-110c0 -10 -5 -15 -15 -15h-30c-10 0 -15 5 -15 15v65h-155zM95 60h80v280h-60z" />
    <glyph glyph-name="afii10070" unicode="&#x435;" 
d="M240 60c0 -17.333 -5.66699 -31.666 -17 -42.999s-25.666 -17 -42.999 -17h-80c-17.333 0 -31.666 5.66699 -42.999 17s-17 25.666 -17 42.999v280c0 17.333 5.66699 31.666 17 42.999s25.666 17 42.999 17h80c17.333 0 31.666 -5.66699 42.999 -17
s17 -25.666 17 -42.999v-145c0 -10 -5 -15 -15 -15h-125v-105c0 -10 5 -15 15 -15h50c10 0 15 5 15 15v50c0 10 5 15 15 15h30c10 0 15 -5 15 -15v-65zM100 240h80v85c0 10 -5 15 -15 15h-50c-10 0 -15 -5 -15 -15v-85z" />
    <glyph glyph-name="afii10072" unicode="&#x436;" horiz-adv-x="374" 
d="M97 235l-69.9951 150.001c-2.66699 5.33301 -3 9.16602 -1 11.499s5.66699 3.5 11 3.5h35c5.33301 0 9.16602 -1.16699 11.499 -3.5s5.16602 -6.16602 8.49902 -11.499l65 -140v140c0 10 5 15 15 15h30c10 0 15 -5 15 -15v-140l65 140
c3.33301 5.33301 6.16602 9.16602 8.49902 11.499s6.16602 3.5 11.499 3.5h35c11.333 0 14.666 -5 9.99902 -15l-70 -150l95 -220c4 -10 0.666992 -15 -10 -15h-35c-9.33301 0 -16 5 -20 15l-70 165l-20 -45v-120c0 -10 -5 -15 -15 -15h-30c-10 0 -15 5 -15 15v120l-20 45
l-70 -165c-4 -10 -10.667 -15 -20 -15h-35c-10.667 0 -14 5 -10 15z" />
    <glyph glyph-name="afii10073" unicode="&#x437;" horiz-adv-x="265" 
d="M30 125c0 10 5 15 15 15h30c10 0 15 -5 15 -15v-50c0 -10 5 -15 15 -15h50c10 0 15 5 15 15v90c0 10 -5 15 -15 15h-40c-10 0 -15 5 -15 15v30c0 10 5 15 15 15h40c10 0 15 5 15 15v70c0 10 -5 15 -15 15h-50c-10 0 -15 -5 -15 -15v-45c0 -10 -5 -15 -15 -15h-30
c-10 0 -15 5 -15 15v60c0 17.333 5.66699 31.666 17 42.999s25.666 17 42.999 17h80c17.333 0 31.666 -5.66699 42.999 -17s17 -25.666 17 -42.999v-80c0 -10 -1.83301 -18.333 -5.5 -25s-7.83398 -11.667 -12.501 -15c-5.33301 -4.66699 -11 -8 -17 -10
c6 -2.66699 11.667 -6 17 -10c4.66699 -4 8.83398 -9.16699 12.501 -15.5s5.5 -14.5 5.5 -24.5v-100c0 -17.333 -5.66699 -31.666 -17 -42.999s-25.666 -17 -42.999 -17h-80c-17.333 0 -31.666 5.66699 -42.999 17s-17 25.666 -17 42.999v65z" />
    <glyph glyph-name="afii10074" unicode="&#x438;" 
d="M100 15c-4 -10 -10.667 -15 -20 -15h-25c-10 0 -15 5 -15 15v370c0 10 5 15 15 15h30c10 0 15 -5 15 -15v-225l80 225c4 10 10.667 15 20 15h25c10 0 15 -5 15 -15v-370c0 -10 -5 -15 -15 -15h-30c-10 0 -15 5 -15 15v225z" />
    <glyph glyph-name="afii10075" unicode="&#x439;" 
d="M100 15c-4 -10 -10.667 -15 -20 -15h-25c-10 0 -15 5 -15 15v370c0 10 5 15 15 15h30c10 0 15 -5 15 -15v-225l80 225c4 10 10.667 15 20 15h25c10 0 15 -5 15 -15v-370c0 -10 -5 -15 -15 -15h-30c-10 0 -15 5 -15 15v225zM75 490c-10 0 -15 5 -15 15v30c0 10 5 15 15 15
h130c10 0 15 -5 15 -15v-30c0 -10 -5 -15 -15 -15h-130z" />
    <glyph glyph-name="afii10076" unicode="&#x43a;" horiz-adv-x="257" 
d="M255 15c4 -10 0.669922 -14.999 -9.99707 -14.999h-35c-9.33301 0 -16 5 -20 15l-70 165l-20 -45v-120c0 -10 -5 -15 -15 -15h-30c-10 0 -15 5 -15 15v370c0 10 5 15 15 15h30c10 0 15 -5 15 -15v-140l65 140c3.33301 5.33301 6.16602 9.16602 8.49902 11.499
s6.16602 3.5 11.499 3.5h35c11.333 0 14.666 -5 9.99902 -15l-70 -150z" />
    <glyph glyph-name="afii10077" unicode="&#x43b;" 
d="M100 55c-1.33301 -17.333 -7.33301 -31.667 -18 -43s-24.667 -17 -42 -17h-25c-10 0 -15 5 -15 15v30c0 10 5 15 15 15h10c8.66699 0 13.667 5 15 15l25 315c1.33301 10 6.33301 15 15 15h145c10 0 15 -5 15 -15v-370c0 -10 -5 -15 -15 -15h-30c-10 0 -15 5 -15 15v325
h-60z" />
    <glyph glyph-name="afii10078" unicode="&#x43c;" horiz-adv-x="360" 
d="M170 85c-10.667 0 -17.334 5 -20.001 15l-50 165v-250c0 -10 -5 -15 -15 -15h-30c-10 0 -15 5 -15 15v370c0 10 5 15 15 15h40c10 0 16.667 -5 20 -15l65 -210l65 210c2.66699 10 9.33398 15 20.001 15h40c10 0 15 -5 15 -15v-370c0 -10 -5 -15 -15 -15h-30
c-10 0 -15 5 -15 15v250l-50 -165c-3.33301 -10 -10 -15 -20 -15h-20z" />
    <glyph glyph-name="afii10079" unicode="&#x43d;" 
d="M180 180h-80v-165c0 -10 -5 -15 -15 -15h-30c-10 0 -15 5 -15 15v370c0 10 5 15 15 15h30c10 0 15 -5 15 -15v-145h80v145c0 10 5 15 15 15h30c10 0 15 -5 15 -15v-370c0 -10 -5 -15 -15 -15h-30c-10 0 -15 5 -15 15v165z" />
    <glyph glyph-name="afii10080" unicode="&#x43e;" 
d="M180 325c0 10 -5 15 -15 15h-50c-10 0 -15 -5 -15 -15v-250c0 -10 5 -15 15 -15h50c10 0 15 5 15 15v250zM240 60c0 -17.333 -5.66699 -31.666 -17 -42.999s-25.666 -17 -42.999 -17h-80c-17.333 0 -31.666 5.66699 -42.999 17s-17 25.666 -17 42.999v280
c0 17.333 5.66699 31.666 17 42.999s25.666 17 42.999 17h80c17.333 0 31.666 -5.66699 42.999 -17s17 -25.666 17 -42.999v-280z" />
    <glyph glyph-name="afii10081" unicode="&#x43f;" 
d="M180 340h-80v-325c0 -10 -5 -15 -15 -15h-30c-10 0 -15 5 -15 15v370c0 10 5 15 15 15h170c10 0 15 -5 15 -15v-370c0 -10 -5 -15 -15 -15h-30c-10 0 -15 5 -15 15v325z" />
    <glyph glyph-name="afii10082" unicode="&#x440;" 
d="M180 325c0 10 -5 15 -15 15h-65v-280h65c10 0 15 5 15 15v250zM240 60c0 -17.333 -5.66699 -31.668 -17 -43.001s-25.666 -17 -42.999 -17h-80v-185c0 -10 -5 -15 -15 -15h-30c-10 0 -15 5 -15 15v570c0 10 5 15 15 15h125c17.333 0 31.666 -5.66699 42.999 -17
s17 -25.666 17 -42.999v-280z" />
    <glyph glyph-name="afii10083" unicode="&#x441;" horiz-adv-x="275" 
d="M240 60c0 -17.333 -5.66699 -31.666 -17 -42.999s-25.666 -17 -42.999 -17h-80c-17.333 0 -31.666 5.66699 -42.999 17s-17 25.666 -17 42.999v280c0 17.333 5.66699 31.666 17 42.999s25.666 17 42.999 17h80c17.333 0 31.666 -5.66699 42.999 -17
s17 -25.666 17 -42.999v-60c0 -10 -5 -15 -15 -15h-30c-10 0 -15 5 -15 15v45c0 10 -5 15 -15 15h-50c-10 0 -15 -5 -15 -15v-250c0 -10 5 -15 15 -15h50c10 0 15 5 15 15v50c0 10 5 15 15 15h30c10 0 15 -5 15 -15v-65z" />
    <glyph glyph-name="afii10084" unicode="&#x442;" horiz-adv-x="220" 
d="M140 340v-325c0 -10 -5 -15 -15 -15h-30c-10 0 -15 5 -15 15v325h-65c-10 0 -15 5 -15 15v30c0 10 5 15 15 15h190c10 0 15 -5 15 -15v-30c0 -10 -5 -15 -15 -15h-65z" />
    <glyph glyph-name="afii10085" unicode="&#x443;" horiz-adv-x="232" 
d="M206 400c7.33301 0 12 -1.16699 14 -3.5s2.33301 -6.16602 1 -11.499l-115 -570c-1.33301 -5.33301 -3.5 -9.16602 -6.5 -11.499s-5.83301 -3.5 -8.5 -3.5h-30c-7.33301 0 -12 1.16699 -14 3.5s-2.33301 6.16602 -1 11.499l40 190l-75 380
c-0.666992 5.33301 -0.166992 9.16602 1.5 11.499s6.16699 3.5 13.5 3.5h30c2.66699 0 5.5 -1.16699 8.5 -3.5s5.16699 -6.16602 6.5 -11.499l45 -250l45 250c1.33301 5.33301 3.5 9.16602 6.5 11.499s5.83301 3.5 8.5 3.5h30z" />
    <glyph glyph-name="afii10086" unicode="&#x444;" horiz-adv-x="400" 
d="M40 340c0 17.333 5.66699 31.666 17 42.999s25.666 17 42.999 17h70v285c0 10 5 15 15 15h30c10 0 15 -5 15 -15v-285h70c17.333 0 31.666 -5.66699 42.999 -17s17 -25.666 17 -42.999v-280c0 -17.333 -5.66699 -31.666 -17 -42.999s-25.666 -17 -42.999 -17h-70v-185
c0 -10 -5 -15 -15 -15h-30c-10 0 -15 5 -15 15v185h-70c-17.333 0 -31.666 5.66699 -42.999 17s-17 25.666 -17 42.999v280zM300 325c0 10 -5 15 -15 15h-55v-280h55c10 0 15 5 15 15v250zM100 75c0 -10 5 -15 15 -15h55v280h-55c-10 0 -15 -5 -15 -15v-250z" />
    <glyph glyph-name="afii10087" unicode="&#x445;" horiz-adv-x="254" 
d="M127 275l39.999 110c2.66699 10 9.33398 15 20.001 15h30c10.667 0 14 -5 10 -15l-65 -165l75 -205c2.66699 -10 -0.666016 -15 -9.99902 -15h-30c-10.667 0 -17.334 5 -20.001 15l-50 145l-50 -145c-3.33301 -10 -10 -15 -20 -15h-30c-10 0 -13.333 5 -10 15l75 205
l-65 165c-4 10 -0.666992 15 10 15h30c10 0 16.667 -5 20 -15z" />
    <glyph glyph-name="afii10088" unicode="&#x446;" horiz-adv-x="285" 
d="M55 0c-10 0 -15 5 -15 15v370c0 10 5 15 15 15h30c10 0 15 -5 15 -15v-325h70v325c0 10 5 15 15 15h30c10 0 15 -5 15 -15v-325h25c10 0 15 -5 15 -15v-110c0 -10 -5 -15 -15 -15h-30c-10 0 -15 5 -15 15v65h-155z" />
    <glyph glyph-name="afii10089" unicode="&#x447;" horiz-adv-x="260" 
d="M90 215c0 -10 4.99902 -14.999 14.999 -14.999h55v185c0 10 5 15 15 15h30c10 0 15 -5 15 -15v-370c0 -10 -5 -15 -15 -15h-30c-10 0 -15 5 -15 15v125h-70c-17.333 0 -31.666 5.66699 -42.999 17s-17 25.666 -17 42.999v185c0 10 5 15 15 15h30c10 0 15 -5 15 -15v-170
v0z" />
    <glyph glyph-name="afii10090" unicode="&#x448;" horiz-adv-x="400" 
d="M100 60h70v325c0 10 5 15 15 15h30c10 0 15 -5 15 -15v-325h70v325c0 10 5 15 15 15h30c10 0 15 -5 15 -15v-370c0 -10 -5 -15 -15 -15h-290c-10 0 -15 5 -15 15v370c0 10 5 15 15 15h30c10 0 15 -5 15 -15v-325z" />
    <glyph glyph-name="afii10091" unicode="&#x449;" horiz-adv-x="415" 
d="M360 60h25c10 0 15 -5 15 -15v-110c0 -10 -5 -15 -15 -15h-30c-10 0 -15 5 -15 15v65h-285c-10 0 -15 5 -15 15v370c0 10 5 15 15 15h30c10 0 15 -5 15 -15v-325h70v325c0 10 5 15 15 15h30c10 0 15 -5 15 -15v-325h70v325c0 10 5 15 15 15h30c10 0 15 -5 15 -15v-325z
" />
    <glyph glyph-name="afii10092" unicode="&#x44a;" horiz-adv-x="290" 
d="M260 60c0 -17.333 -5.66699 -31.668 -17 -43.001s-25.666 -17 -42.999 -17h-115c-10 0 -15 5 -15 15v325h-55c-10 0 -15 5 -15 15v30c0 10 5 15 15 15h100c10 0 15 -5 15 -15v-125h70c17.333 0 31.666 -5.66699 42.999 -17s17 -25.666 17 -42.999v-140zM200 184.998
c0 10 -5 15 -15 15h-55v-140h55c10 0 15 5 15 15v110z" />
    <glyph glyph-name="afii10093" unicode="&#x44b;" horiz-adv-x="380" 
d="M170 185c0 10 -5 15 -15 15h-55v-140h55c10 0 15 5 15 15v110zM230 60c0 -17.333 -5.66699 -31.668 -17 -43.001s-25.666 -17 -42.999 -17h-115c-10 0 -15 5 -15 15v370c0 10 5 15 15 15h30c10 0 15 -5 15 -15v-125h70c17.333 0 31.666 -5.66699 42.999 -17
s17 -25.666 17 -42.999v-140zM340 14.998c0 -10 -5 -15 -15 -15h-30c-10 0 -15 5 -15 15v370c0 10 5 15 15 15h30c10 0 15 -5 15 -15v-370z" />
    <glyph glyph-name="afii10094" unicode="&#x44c;" horiz-adv-x="260" 
d="M170 185c0 10 -5 15 -15 15h-55v-140h55c10 0 15 5 15 15v110zM230 60c0 -17.333 -5.66699 -31.668 -17 -43.001s-25.666 -17 -42.999 -17h-115c-10 0 -15 5 -15 15v370c0 10 5 15 15 15h30c10 0 15 -5 15 -15v-125h70c17.333 0 31.666 -5.66699 42.999 -17
s17 -25.666 17 -42.999v-140z" />
    <glyph glyph-name="afii10095" unicode="&#x44d;" horiz-adv-x="275" 
d="M35 125c0 10 5 15 15 15h30c10 0 15 -5 15 -15v-50c0 -10 5 -15 15 -15h50c10 0 15 5 15 15v100h-65c-10 0 -15 5 -15 15v30c0 10 5 15 15 15h65v90c0 10 -5 15 -15 15h-50c-10 0 -15 -5 -15 -15v-45c0 -10 -5 -15 -15 -15h-30c-10 0 -15 5 -15 15v60
c0 17.333 5.66699 31.666 17 42.999s25.666 17 42.999 17h80c17.333 0 31.666 -5.66699 42.999 -17s17 -25.666 17 -42.999v-280c0 -17.333 -5.66699 -31.666 -17 -42.999s-25.666 -17 -42.999 -17h-80c-17.333 0 -31.666 5.66699 -42.999 17s-17 25.666 -17 42.999v65z" />
    <glyph glyph-name="afii10096" unicode="&#x44e;" horiz-adv-x="390" 
d="M350 60c0 -17.333 -5.66699 -31.666 -17 -42.999s-25.666 -17 -42.999 -17h-70c-17.333 0 -31.666 5.66699 -42.999 17s-17 25.666 -17 42.999v110h-60v-155c0 -10 -5 -15 -15 -15h-30c-10 0 -15 5 -15 15v370c0 10 5 15 15 15h30c10 0 15 -5 15 -15v-155h60v110
c0 17.333 5.66699 31.666 17 42.999s25.666 17 42.999 17h70c17.333 0 31.666 -5.66699 42.999 -17s17 -25.666 17 -42.999v-280zM290 325c0 10 -5 15 -15 15h-40c-10 0 -15 -5 -15 -15v-250c0 -10 5 -15 15 -15h40c10 0 15 5 15 15v250z" />
    <glyph glyph-name="afii10097" unicode="&#x44f;" horiz-adv-x="263" 
d="M33 340c0 17.333 5.66895 31.665 17.002 42.998s25.666 17 42.999 17h115c10 0 15 -5 15 -15v-370c0 -10 -5 -15 -15 -15h-30c-10 0 -15 5 -15 15v145h-30l-61 -145c-4 -10 -10.667 -15 -20 -15h-30c-10.667 0 -14 5 -10 15l66 155
c-8.66699 2 -16.334 5.66699 -23.001 11c-5.33301 4.66699 -10.333 10.834 -15 18.501s-7 17.834 -7 30.501v110zM93.002 234.999c0 -10 5 -15 15 -15h55v120h-55c-10 0 -15 -5 -15 -15v-90z" />
    <glyph glyph-name="afii10071" unicode="&#x451;" 
d="M240 60c0 -17.333 -5.66699 -31.666 -17 -42.999s-25.666 -17 -42.999 -17h-80c-17.333 0 -31.666 5.66699 -42.999 17s-17 25.666 -17 42.999v280c0 17.333 5.66699 31.666 17 42.999s25.666 17 42.999 17h80c17.333 0 31.666 -5.66699 42.999 -17
s17 -25.666 17 -42.999v-145c0 -10 -5 -15 -15 -15h-125v-105c0 -10 5 -15 15 -15h50c10 0 15 5 15 15v50c0 10 5 15 15 15h30c10 0 15 -5 15 -15v-65zM100 240h80v85c0 10 -5 15 -15 15h-50c-10 0 -15 -5 -15 -15v-85zM55 535c0 10 5 15 15 15h30c10 0 15 -5 15 -15v-30
c0 -10 -5 -15 -15 -15h-30c-10 0 -15 5 -15 15v30zM165 535c0 10 5 15 15 15h30c10 0 15 -5 15 -15v-30c0 -10 -5 -15 -15 -15h-30c-10 0 -15 5 -15 15v30z" />
    <glyph glyph-name="afii10099" unicode="&#x452;" 
d="M240 30c0 -17.333 -5.66699 -31.668 -17 -43.001s-25.666 -17 -42.999 -17h-25c-10 0 -15 5 -15 15v30c0 10 5 15 15 15h10c10 0 15 5 15 15v280c0 10 -5 15 -15 15h-65v-325c0 -10 -5 -15 -15 -15h-30c-10 0 -15 5 -15 15v485h-25c-10 0 -15 5 -15 15v30
c0 10 5 15 15 15h25v125c0 10 5 15 15 15h30c10 0 15 -5 15 -15v-125h55c10 0 15 -5 15 -15v-30c0 -10 -5 -15 -15 -15h-55v-100h80c17.333 0 31.666 -5.66699 42.999 -17s17 -25.666 17 -42.999v-310z" />
    <glyph glyph-name="afii10100" unicode="&#x453;" horiz-adv-x="220" 
d="M100 340v-325c0 -10 -5 -15 -15 -15h-30c-10 0 -15 5 -15 15v370c0 10 5 15 15 15h150c10 0 15 -5 15 -15v-30c0 -10 -5 -15 -15 -15h-105zM119 481c-10 0 -13.333 5.00195 -10 15.002l30 90c2.66699 10 9.33398 15 20.001 15h40c5.33301 0 9 -1.33301 11 -4
s1.66699 -6.33398 -1 -11.001l-55 -90c-2.66699 -4.66699 -5.33398 -8.33398 -8.00098 -11.001s-6.66699 -4 -12 -4h-15v0z" />
    <glyph glyph-name="afii10101" unicode="&#x454;" horiz-adv-x="270" 
d="M240 60c0 -17.333 -5.66699 -31.666 -17 -42.999s-25.666 -17 -42.999 -17h-80c-17.333 0 -31.666 5.66699 -42.999 17s-17 25.666 -17 42.999v280c0 17.333 5.66699 31.666 17 42.999s25.666 17 42.999 17h80c17.333 0 31.666 -5.66699 42.999 -17
s17 -25.666 17 -42.999v-60c0 -10 -5 -15 -15 -15h-30c-10 0 -15 5 -15 15v45c0 10 -5 15 -15 15h-50c-10 0 -15 -5 -15 -15v-90h65c10 0 15 -5 15 -15v-30c0 -10 -5 -15 -15 -15h-65v-100c0 -10 5 -15 15 -15h50c10 0 15 5 15 15v50c0 10 5 15 15 15h30c10 0 15 -5 15 -15
v-65z" />
    <glyph glyph-name="afii10102" unicode="&#x455;" horiz-adv-x="270" 
d="M235 60c0 -17.333 -5.66699 -31.666 -17 -42.999s-25.666 -17 -42.999 -17h-80c-17.333 0 -31.666 5.66699 -42.999 17s-17 25.666 -17 42.999v65c0 10 5 15 15 15h30c10 0 15 -5 15 -15v-50c0 -10 5 -15 15 -15h50c10 0 15 5 15 15v45c0 15.333 -2 26 -6 32
s-8.66699 10.333 -14 13l-80 45c-10 5.33301 -19.167 13.666 -27.5 24.999s-12.5 29.666 -12.5 54.999v50c0 17.333 5.66699 31.666 17 42.999s25.666 17 42.999 17h80c17.333 0 31.666 -5.66699 42.999 -17s17 -25.666 17 -42.999v-60c0 -10 -5 -15 -15 -15h-30
c-10 0 -15 5 -15 15v45c0 10 -5 15 -15 15h-50c-10 0 -15 -5 -15 -15v-30c0 -15.333 2 -26 6 -32s8.66699 -10.333 14 -13l80 -45c10 -5.33301 19.167 -13.666 27.5 -24.999s12.5 -29.666 12.5 -54.999v-65z" />
    <glyph glyph-name="afii10103" unicode="&#x456;" horiz-adv-x="140" 
d="M40 385c0 10 5 15 15 15h30c10 0 15 -5 15 -15v-370c0 -10 -5 -15 -15 -15h-30c-10 0 -15 5 -15 15v370zM40 525c0 10 5 15 15 15h30c10 0 15 -5 15 -15v-30c0 -10 -5 -15 -15 -15h-30c-10 0 -15 5 -15 15v30z" />
    <glyph glyph-name="afii10104" unicode="&#x457;" horiz-adv-x="150" 
d="M45 385c0 10 5 15 15 15h30c10 0 15 -5 15 -15v-370c0 -10 -5 -15 -15 -15h-30c-10 0 -15 5 -15 15v370zM-10 525c0 10 5 15 15 15h30c10 0 15 -5 15 -15v-30c0 -10 -5 -15 -15 -15h-30c-10 0 -15 5 -15 15v30zM100 525c0 10 5 15 15 15h30c10 0 15 -5 15 -15v-30
c0 -10 -5 -15 -15 -15h-30c-10 0 -15 5 -15 15v30z" />
    <glyph glyph-name="afii10105" unicode="&#x458;" horiz-adv-x="140" 
d="M40 525c0 10 5 15 15 15h30c10 0 15 -5 15 -15v-30c0 -10 -5 -15 -15 -15h-30c-10 0 -15 5 -15 15v30zM-50 -155c0 10 4.99902 14.999 14.999 14.999h60c10 0 15 5 15 15v510c0 10 5 15 15 15h30c10 0 15 -5 15 -15v-525c0 -17.333 -5.66699 -31.666 -17 -42.999
s-25.666 -17 -42.999 -17h-75c-10 0 -15 5 -15 15v30z" />
    <glyph glyph-name="afii10106" unicode="&#x459;" horiz-adv-x="400" 
d="M370 60c0 -17.333 -5.66699 -31.6689 -17 -43.002s-25.666 -17 -42.999 -17h-115c-10 0 -15 5 -15 15v325h-60l-20 -285c-1.33301 -17.333 -7.33301 -31.666 -18 -42.999s-24.667 -17 -42 -17h-25c-10 0 -15 5 -15 15v30c0 10 5 15 15 15h10c8.66699 0 13.667 5 15 15
l25 315c1.33301 10 6.33301 15 15 15h145c10 0 15 -5 15 -15v-125h70c17.333 0 31.666 -5.66699 42.999 -17s17 -25.666 17 -42.999v-140zM310 184.997c0 10 -5 15 -15 15h-55v-140h55c10 0 15 5 15 15v110z" />
    <glyph glyph-name="afii10107" unicode="&#x45a;" horiz-adv-x="400" 
d="M370 60c0 -17.333 -5.66699 -31.668 -17 -43.001s-25.666 -17 -42.999 -17h-115c-10 0 -15 5 -15 15v175h-80v-175c0 -10 -5 -15 -15 -15h-30c-10 0 -15 5 -15 15v370c0 10 5 15 15 15h30c10 0 15 -5 15 -15v-135h80v135c0 10 5 15 15 15h30c10 0 15 -5 15 -15v-135h70
c17.333 0 31.666 -5.66699 42.999 -17s17 -25.666 17 -42.999v-130zM310 174.998c0 10 -5 15 -15 15h-55v-130h55c10 0 15 5 15 15v100z" />
    <glyph glyph-name="afii10108" unicode="&#x45b;" 
d="M40 560l0.000976562 124.999c0 10 5 15 15 15h30c10 0 15 -5 15 -15v-125h55c10 0 15 -5 15 -15v-30c0 -10 -5 -15 -15 -15h-55v-100h80c17.333 0 31.666 -5.66699 42.999 -17s17 -25.666 17 -42.999v-325c0 -10 -5 -15 -15 -15h-30c-10 0 -15 5 -15 15v310
c0 10 -5 15 -15 15h-65v-325c0 -10 -5 -15 -15 -15h-30c-10 0 -15 5 -15 15v485h-25c-10 0 -15 5 -15 15v30c0 10 5 15 15 15h25z" />
    <glyph glyph-name="afii10109" unicode="&#x45c;" horiz-adv-x="257" 
d="M255 15c4 -10 0.669922 -14.999 -9.99707 -14.999h-35c-9.33301 0 -16 5 -20 15l-70 165l-20 -45v-120c0 -10 -5 -15 -15 -15h-30c-10 0 -15 5 -15 15v370c0 10 5 15 15 15h30c10 0 15 -5 15 -15v-140l65 140c3.33301 5.33301 6.16602 9.16602 8.49902 11.499
s6.16602 3.5 11.499 3.5h35c11.333 0 14.666 -5 9.99902 -15l-70 -150zM125.003 481.001c-10 0 -13.333 5.00195 -10 15.002l30 90c2.66699 10 9.33398 15 20.001 15h40c5.33301 0 9 -1.33301 11 -4s1.66699 -6.33398 -1 -11.001l-55 -90
c-2.66699 -4.66699 -5.33398 -8.33398 -8.00098 -11.001s-6.66699 -4 -12 -4h-15v0z" />
    <glyph glyph-name="afii10110" unicode="&#x45e;" horiz-adv-x="232" 
d="M206 400c7.33301 0 12 -1.16699 14 -3.5s2.33301 -6.16602 1 -11.499l-115 -570c-1.33301 -5.33301 -3.5 -9.16602 -6.5 -11.499s-5.83301 -3.5 -8.5 -3.5h-30c-7.33301 0 -12 1.16699 -14 3.5s-2.33301 6.16602 -1 11.499l40 190l-75 380
c-0.666992 5.33301 -0.166992 9.16602 1.5 11.499s6.16699 3.5 13.5 3.5h30c2.66699 0 5.5 -1.16699 8.5 -3.5s5.16699 -6.16602 6.5 -11.499l45 -250l45 250c1.33301 5.33301 3.5 9.16602 6.5 11.499s5.83301 3.5 8.5 3.5h30zM157 566c0 10 4.99805 15 14.998 15h20
c10 0 15 -5 15 -15v-25c0 -17.333 -5.66699 -31.666 -17 -42.999s-25.666 -17 -42.999 -17h-60c-17.333 0 -31.666 5.66699 -42.999 17s-17 25.666 -17 42.999v25c0 10 5 15 15 15h20c10 0 15 -5 15 -15v-20c0 -10 5 -15 15 -15h50c10 0 15 5 15 15v20z" />
    <glyph glyph-name="afii10193" unicode="&#x45f;" 
d="M170 0v-65c0 -10 -5 -15 -15 -15h-30c-10 0 -15 5 -15 15v65h-55c-10 0 -15 5 -15 15v370c0 10 5 15 15 15h30c10 0 15 -5 15 -15v-325h80v325c0 10 5 15 15 15h30c10 0 15 -5 15 -15v-370c0 -10 -5 -15 -15 -15h-55z" />
    <glyph glyph-name="afii10050" unicode="&#x490;" horiz-adv-x="250" 
d="M50 685c0 10 5 15 15 15h125v75c0 10 5 15 15 15h30c10 0 15 -5 15 -15v-120c0 -10 -5 -15 -15 -15h-125v-625c0 -10 -5 -15 -15 -15h-30c-10 0 -15 5 -15 15v670z" />
    <glyph glyph-name="afii10098" unicode="&#x491;" horiz-adv-x="220" 
d="M100 340v-325c0 -10 -5 -15 -15 -15h-30c-10 0 -15 5 -15 15v370c0 10 5 15 15 15h105v65c0 10 5 15 15 15h30c10 0 15 -5 15 -15v-110c0 -10 -5 -15 -15 -15h-105z" />
    <glyph glyph-name="uni1E9E" unicode="&#x1e9e;" horiz-adv-x="327" 
d="M50 640c0 17.333 5.66797 31.665 17.001 42.998s25.666 17 42.999 17h165c13.333 0 18.333 -5 15 -15l-80 -255h10c17.333 0 31.666 -5.66699 42.999 -17s17 -25.666 17 -42.999v-310c0 -17.333 -5.66699 -31.666 -17 -42.999s-25.666 -17 -42.999 -17h-60
c-10 0 -15 5 -15 15v30c0 10 5 15 15 15h45c10 0 15 5 15 15v280c0 10 -5 15 -15 15h-55c-13.333 0 -18.333 5 -15 15l80 255h-90c-10 0 -15 -5 -15 -15v-610c0 -10 -5 -15 -15 -15h-30c-10 0 -15 5 -15 15v625z" />
    <glyph glyph-name="endash" unicode="&#x2013;" horiz-adv-x="260" 
d="M35 210c-10 0 -15 5 -15 15v30c0 10 5 15 15 15h190c10 0 15 -5 15 -15v-30c0 -10 -5 -15 -15 -15h-190z" />
    <glyph glyph-name="emdash" unicode="&#x2014;" horiz-adv-x="390" 
d="M35 210c-10 0 -15 5 -15 15v30c0 10 5 15 15 15h320c10 0 15 -5 15 -15v-30c0 -10 -5 -15 -15 -15h-320z" />
    <glyph glyph-name="quoteleft" unicode="&#x2018;" horiz-adv-x="100" 
d="M35 590c-10 0 -15 5 -15 15v30c0 4 0.666992 8.66699 2 14c0.666992 2.66699 1.66699 4.66699 3 6l15 35c2.66699 6.66699 6 10 10 10h10c6 0 7.66699 -3.33301 5 -10l-15 -40h15c10 0 15 -5 15 -15v-30c0 -10 -5 -15 -15 -15h-30z" />
    <glyph glyph-name="quoteright" unicode="&#x2019;" horiz-adv-x="100" 
d="M65 700c10 0 15.002 -5 15.002 -15v-30c0 -2.66699 -0.333008 -5.16699 -1 -7.5s-1.33398 -4.5 -2.00098 -6.5c-0.666992 -2.66699 -1.33398 -4.66699 -2.00098 -6l-15 -35c-2.66699 -6.66699 -6 -10 -10 -10h-10c-6 0 -7.66699 3.33301 -5 10l15 40h-15
c-10 0 -15 5 -15 15v30c0 10 5 15 15 15h30v0z" />
    <glyph glyph-name="quotesinglbase" unicode="&#x201a;" horiz-adv-x="100" 
d="M65 60c10 0 15.002 -5 15.002 -15v-30c0 -2.66699 -0.333008 -5.16699 -1 -7.5s-1.33398 -4.5 -2.00098 -6.5c-0.666992 -2.66699 -1.33398 -4.66699 -2.00098 -6l-15 -35c-2.66699 -6.66699 -6 -10 -10 -10h-10c-6 0 -7.66699 3.33301 -5 10l15 40h-15
c-10 0 -15 5 -15 15v30c0 10 5 15 15 15h30v0z" />
    <glyph glyph-name="quotedblleft" unicode="&#x201c;" horiz-adv-x="190" 
d="M125 590c-10 0 -15 5 -15 15v30c0 4 0.666992 8.66699 2 14c0.666992 2.66699 1.66699 4.66699 3 6l15 35c2.66699 6.66699 6 10 10 10h10c6 0 7.66699 -3.33301 5 -10l-15 -40h15c10 0 15 -5 15 -15v-30c0 -10 -5 -15 -15 -15h-30zM35 590c-10 0 -15 5 -15 15v30
c0 4 0.666992 8.66699 2 14c0.666992 2.66699 1.66699 4.66699 3 6l15 35c2.66699 6.66699 6 10 10 10h10c6 0 7.66699 -3.33301 5 -10l-15 -40h15c10 0 15 -5 15 -15v-30c0 -10 -5 -15 -15 -15h-30z" />
    <glyph glyph-name="quotedblright" unicode="&#x201d;" horiz-adv-x="190" 
d="M65 700c10 0 15.002 -5 15.002 -15v-30c0 -2.66699 -0.333008 -5.16699 -1 -7.5s-1.33398 -4.5 -2.00098 -6.5c-0.666992 -2.66699 -1.33398 -4.66699 -2.00098 -6l-15 -35c-2.66699 -6.66699 -6 -10 -10 -10h-10c-6 0 -7.66699 3.33301 -5 10l15 40h-15
c-10 0 -15 5 -15 15v30c0 10 5 15 15 15h30zM155.002 700c10 0 15.002 -5 15.002 -15v-30c0 -2.66699 -0.333008 -5.16699 -1 -7.5s-1.33398 -4.5 -2.00098 -6.5c-0.666992 -2.66699 -1.33398 -4.66699 -2.00098 -6l-15 -35c-2.66699 -6.66699 -6 -10 -10 -10h-10
c-6 0 -7.66699 3.33301 -5 10l15 40h-15c-10 0 -15 5 -15 15v30c0 10 5 15 15 15h30z" />
    <glyph glyph-name="quotedblbase" unicode="&#x201e;" horiz-adv-x="190" 
d="M65 60c10 0 15.002 -5 15.002 -15v-30c0 -2.66699 -0.333008 -5.16699 -1 -7.5s-1.33398 -4.5 -2.00098 -6.5c-0.666992 -2.66699 -1.33398 -4.66699 -2.00098 -6l-15 -35c-2.66699 -6.66699 -6 -10 -10 -10h-10c-6 0 -7.66699 3.33301 -5 10l15 40h-15
c-10 0 -15 5 -15 15v30c0 10 5 15 15 15h30zM155.002 60c10 0 15.002 -5 15.002 -15v-30c0 -2.66699 -0.333008 -5.16699 -1 -7.5s-1.33398 -4.5 -2.00098 -6.5c-0.666992 -2.66699 -1.33398 -4.66699 -2.00098 -6l-15 -35c-2.66699 -6.66699 -6 -10 -10 -10h-10
c-6 0 -7.66699 3.33301 -5 10l15 40h-15c-10 0 -15 5 -15 15v30c0 10 5 15 15 15h30z" />
    </font>
</defs>
</svg>
